SplineFontDB: 3.2
FontName: OlympiaTypewriterElite-Book
FullName: Olympia Typewriter Elite Book
FamilyName: Olympia Typewriter Elite
Weight: Book
Copyright: Copyright 2026 The Olympia Typewriter Project Authors (https://github.com/loma913-ops/Olympia-Typewriter)
Version: 1.010
ItalicAngle: 0
UnderlinePosition: -408
UnderlineWidth: 204
Ascent: 3276
Descent: 820
InvalidEm: 0
sfntRevision: 0x00010000
LayerCount: 2
Layer: 0 1 "Back" 1
Layer: 1 1 "Fore" 0
XUID: [1021 198 1607171608 23322]
StyleMap: 0x0040
FSType: 0
OS2Version: 4
OS2_WeightWidthSlopeOnly: 0
OS2_UseTypoMetrics: 0
CreationTime: 1777552046
ModificationTime: 1778234756
PfmFamily: 49
TTFWeight: 400
TTFWidth: 5
LineGap: 368
VLineGap: 0
Panose: 2 0 5 9 0 0 0 0 0 0
OS2TypoAscent: 3276
OS2TypoAOffset: 0
OS2TypoDescent: -820
OS2TypoDOffset: 0
OS2TypoLinegap: 368
OS2WinAscent: 3272
OS2WinAOffset: 0
OS2WinDescent: 324
OS2WinDOffset: 0
HheadAscent: 3272
HheadAOffset: 0
HheadDescent: -324
HheadDOffset: 0
OS2SubXSize: 2664
OS2SubYSize: 2868
OS2SubXOff: 0
OS2SubYOff: 572
OS2SupXSize: 2664
OS2SupYSize: 2868
OS2SupXOff: 0
OS2SupYOff: 1968
OS2StrikeYSize: 200
OS2StrikeYPos: 1056
OS2CapHeight: 2860
OS2XHeight: 2152
OS2Vendor: 'DRHF'
OS2CodePages: 00000001.00000000
OS2UnicodeRanges: 00000043.00000000.00000000.00000000
MarkAttachClasses: 1
DEI: 91125
TtTable: prep
PUSHW_1
 511
SCANCTRL
PUSHB_1
 4
SCANTYPE
EndTTInstrs
TtTable: fpgm
PUSHB_1
 0
FDEF
PUSHB_1
 0
SZP0
MPPEM
PUSHB_1
 42
LT
IF
PUSHB_1
 74
SROUND
EIF
PUSHB_1
 0
SWAP
MIAP[rnd]
RTG
PUSHB_1
 6
CALL
IF
RTDG
EIF
MPPEM
PUSHB_1
 42
LT
IF
RDTG
EIF
DUP
MDRP[rp0,rnd,grey]
PUSHB_1
 1
SZP0
MDAP[no-rnd]
RTG
ENDF
PUSHB_1
 1
FDEF
DUP
MDRP[rp0,min,white]
PUSHB_1
 12
CALL
ENDF
PUSHB_1
 2
FDEF
MPPEM
GT
IF
RCVT
SWAP
EIF
POP
ENDF
PUSHB_1
 3
FDEF
ROUND[Black]
RTG
DUP
PUSHB_1
 64
LT
IF
POP
PUSHB_1
 64
EIF
ENDF
PUSHB_1
 4
FDEF
PUSHB_1
 6
CALL
IF
POP
SWAP
POP
ROFF
IF
MDRP[rp0,min,rnd,black]
ELSE
MDRP[min,rnd,black]
EIF
ELSE
MPPEM
GT
IF
IF
MIRP[rp0,min,rnd,black]
ELSE
MIRP[min,rnd,black]
EIF

StartChar: exclam
Encoding: 33 33 4
Width: 2000
GlyphClass: 1
Flags: W
LayerCount: 2
Fore
SplineSet
781.440880082 1057.02099429 m 4,0,1
 766 958 766 958 692 904 c 140,-1,2
 618 850 618 850 603.5 742.5 c 4,3,4
 603 739 603 739 624 681.5 c 132,-1,5
 645 624 645 624 640.5 626.5 c 132,-1,6
 636 629 636 629 635.185773525 631.593555704 c 5,7,8
 635.185773525 631.593555704 635.185773525 631.593555704 657 538 c 5,9,10
 703 492 703 492 745 482 c 132,-1,11
 787 472 787 472 819.5 426.5 c 132,-1,12
 852 381 852 381 900.5 381.5 c 132,-1,13
 949 382 949 382 973 405.5 c 132,-1,14
 997 429 997 429 1009 429 c 132,-1,15
 1021 429 1021 429 1026.42674838 428.502548066 c 4,16,17
 1141 418 1141 418 1220 532 c 132,-1,18
 1299 646 1299 646 1299 723.5 c 6,19,20
 1299 723.5 1299 723.5 1299 815.75 c 132,-1,21
 1299 908 1299 908 1290 918.5 c 132,-1,22
 1281 929 1281 929 1217 1043 c 132,-1,23
 1153 1157 1153 1157 1112 1168.5 c 140,-1,24
 1071 1180 1071 1180 1059.5 1180.5 c 132,-1,25
 1048 1181 1048 1181 975.5 1185 c 132,-1,26
 903 1189 903 1189 886 1167.5 c 132,-1,27
 869 1146 869 1146 825.5 1103.5 c 132,-1,28
 782 1061 782 1061 781.440880082 1057.02099429 c 4,0,1
994.8 479.5 m 132,-1,30
 1008 514 1008 514 1030.5 515.375 c 132,-1,31
 1053 516.75 1053 516.75 1053 479.975 c 132,-1,32
 1053 443.2 1053 443.2 1017.3 444.1 c 132,-1,29
 981.6 445 981.6 445 994.8 479.5 c 132,-1,30
733 2114 m 6,33,34
 750 2114 750 2114 750 1954 c 132,-1,35
 750 1794 750 1794 806.045278902 1794 c 4,36,37
 829 1794 829 1794 829 1764 c 132,-1,38
 829 1734 829 1734 811.5 1676 c 132,-1,39
 794 1618 794 1618 809.409107366 1592.64925896 c 132,-1,40
 824.818214732 1567.29851792 824.818214732 1567.29851792 843 1466 c 6,41,-1
 857 1388 l 5,42,-1
 968 1360 l 6,43,44
 1047 1340 1047 1340 1062.46555685 1344 c 4,45,46
 1179 1374 1179 1374 1186.5 1385.5 c 132,-1,47
 1194 1397 1194 1397 1205 1413 c 5,48,49
 1250 1453 1250 1453 1294 1493 c 5,50,51
 1250 1596 1250 1596 1250 1602 c 132,-1,52
 1250 1608 1250 1608 1264.5 1625 c 132,-1,53
 1279 1642 1279 1642 1268.5 1680 c 132,-1,54
 1258 1718 1258 1718 1281.5 1774.5 c 132,-1,55
 1305 1831 1305 1831 1290 1871.5 c 132,-1,56
 1275 1912 1275 1912 1309.5 1969 c 132,-1,57
 1344 2026 1344 2026 1329.5 2100 c 132,-1,58
 1315 2174 1315 2174 1375.40143722 2175.52109676 c 4,59,60
 1391 2176 1391 2176 1391 2182 c 132,-1,61
 1391 2188 1391 2188 1331 2413.5 c 132,-1,62
 1271 2639 1271 2639 1283.37168099 2653.27501652 c 4,63,64
 1286.71679685 2657.13476562 1286.71679685 2657.13476562 1267.01690207 2656.57191149 c 4,65,66
 1242 2656 1242 2656 1244.5 2651.5 c 132,-1,67
 1247 2647 1247 2647 1247 2643.28160122 c 4,68,69
 1247 2620 1247 2620 1197.5625 2620 c 132,-1,70
 1148.125 2620 1148.125 2620 1151 2643 c 6,71,-1
 1152 2651 l 5,72,73
 1149 2681 1149 2681 1015 2681 c 132,-1,74
 881 2681 881 2681 849 2649 c 132,-1,75
 817 2617 817 2617 757 2478.5 c 132,-1,76
 697 2340 697 2340 720 2291 c 5,77,-1
 720 2290 l 5,78,-1
 756 2182 l 6,79,80
 761 2167 761 2167 761 2147 c 132,-1,81
 761 2127 761 2127 759.4375 2127 c 6,82,83
 759.4375 2127 759.4375 2127 735.71875 2127 c 132,-1,84
 712 2127 712 2127 712 2124 c 6,85,-1
 712 2123 l 6,86,87
 712 2113 712 2113 715 2113 c 5,88,-1
 716 2114 l 5,89,-1
 733 2114 l 6,33,34
981 1450 m 5,90,91
 1015 1424.94736842 1015 1424.94736842 1015 1412.97368421 c 132,-1,92
 1015 1401 1015 1401 996.961848967 1401 c 4,93,94
 966 1401 966 1401 966 1425.5 c 132,-1,95
 966 1450 966 1450 979 1450 c 6,96,-1
 981 1450 l 5,90,91
EndSplineSet
EndChar

StartChar: quotedbl
Encoding: 34 34 5
AltUni2: 00201e.ffffffff.0 00201d.ffffffff.0 00201c.ffffffff.0 00201e.ffffffff.0 00201d.ffffffff.0 00201c.ffffffff.0
Width: 2000
GlyphClass: 1
Flags: W
LayerCount: 2
Fore
SplineSet
1142 1889 m 128,-1,1
 1115 1889 1115 1889 1122.5 1907 c 128,-1,2
 1130 1925 1130 1925 1140.5 1925 c 128,-1,3
 1151 1925 1151 1925 1160 1907 c 128,-1,0
 1169 1889 1169 1889 1142 1889 c 128,-1,1
1703.44226496 2242.57358387 m 128,-1,5
 1729 2210 1729 2210 1707 2172 c 128,-1,6
 1685 2134 1685 2134 1685 2114 c 128,-1,7
 1685 2094 1685 2094 1703.5 2045.5 c 128,-1,8
 1722 1997 1722 1997 1691 1948.5 c 128,-1,9
 1660 1900 1660 1900 1660 1732 c 128,-1,10
 1660 1564 1660 1564 1639.52774666 1564 c 0,11,12
 1628 1564 1628 1564 1628 1497 c 128,-1,13
 1628 1430 1628 1430 1586.06907545 1430 c 0,14,15
 1570 1430 1570 1430 1570 1412 c 128,-1,16
 1570 1394 1570 1394 1519.5 1394 c 128,-1,17
 1469 1394 1469 1394 1443 1370.5 c 128,-1,18
 1417 1347 1417 1347 1387 1363.5 c 128,-1,19
 1357 1380 1357 1380 1346 1380 c 1,20,-1
 1293 1357 l 1,21,22
 1263 1354 1263 1354 1263 1398.25 c 128,-1,23
 1263 1442.5 1263 1442.5 1239.5 1594.5 c 128,-1,24
 1216 1746.5 1216 1746.5 1214.5 1980.25 c 128,-1,25
 1213 2214 1213 2214 1182 2295 c 128,-1,26
 1151 2376 1151 2376 1179.02239653 2431.19562954 c 0,27,28
 1184 2441 1184 2441 1184 2450 c 128,-1,29
 1184 2459 1184 2459 1115 2612.5 c 1,30,-1
 1171 2723.75 l 2,31,32
 1227 2835 1227 2835 1278 2835 c 1,33,-1
 1404 2831 l 2,34,35
 1618.94630099 2824.17630791 1618.94630099 2824.17630791 1625.91433804 2703.97766882 c 0,36,37
 1628 2668 1628 2668 1647.22192701 2668 c 0,38,39
 1678 2668 1678 2668 1718 2585 c 128,-1,40
 1758 2502 1758 2502 1758 2464.5 c 128,-1,41
 1758 2427 1758 2427 1781.5 2410.5 c 128,-1,42
 1805 2394 1805 2394 1801 2369 c 128,-1,43
 1797 2344 1797 2344 1768.5 2344 c 128,-1,44
 1740 2344 1740 2344 1709 2309.5 c 128,-1,4
 1678 2275 1678 2275 1703.44226496 2242.57358387 c 128,-1,5
1418 1439 m 128,-1,46
 1418 1466 1418 1466 1398.5 1466 c 128,-1,47
 1379 1466 1379 1466 1379 1439 c 128,-1,48
 1379 1412 1379 1412 1398.5 1412 c 128,-1,45
 1418 1412 1418 1412 1418 1439 c 128,-1,46
766.809683461 2778.14611478 m 0,49,50
 794 2780 794 2780 823 2714 c 128,-1,51
 852 2648 852 2648 888 2582 c 128,-1,52
 924 2516 924 2516 924 2493 c 128,-1,53
 924 2470 924 2470 909.5 2435.5 c 128,-1,54
 895 2401 895 2401 915 2358 c 128,-1,55
 935 2315 935 2315 931 2298.5 c 128,-1,56
 927 2282 927 2282 889.5 2246 c 128,-1,57
 852 2210 852 2210 815.5 2210 c 128,-1,58
 779 2210 779 2210 801 2183 c 128,-1,59
 823 2156 823 2156 850 2147 c 128,-1,60
 877 2138 877 2138 878.5 2107 c 128,-1,61
 880 2076 880 2076 835 2058 c 128,-1,62
 790 2040 790 2040 790 2025.75 c 0,63,64
 790 1972.61290323 790 1972.61290323 839 1932.30645161 c 128,-1,65
 888 1892 888 1892 866 1890.5 c 128,-1,66
 844 1889 844 1889 811.5 1809.5 c 128,-1,67
 779 1730 779 1730 822.456087813 1731.88939512 c 0,68,69
 848 1733 848 1733 848 1690 c 128,-1,70
 848 1647 848 1647 774 1582 c 128,-1,71
 700 1517 700 1517 656.5 1450 c 128,-1,72
 613 1383 613 1383 600.949053396 1426.51730718 c 0,73,74
 595 1448 595 1448 575.5 1448 c 128,-1,75
 556 1448 556 1448 510.5 1504 c 128,-1,76
 465 1560 465 1560 443.5 1674 c 128,-1,77
 422 1788 422 1788 422 1872.5 c 128,-1,78
 422 1957 422 1957 434.5 1977 c 128,-1,79
 447 1997 447 1997 420 2024 c 128,-1,80
 393 2051 393 2051 387.5 2080 c 128,-1,81
 382 2109 382 2109 404 2123.5 c 128,-1,82
 426 2138 426 2138 424 2174 c 128,-1,83
 422 2210 422 2210 391.5 2233.5 c 128,-1,84
 361 2257 361 2257 359 2336.5 c 128,-1,85
 357 2416 357 2416 369.5 2428.5 c 128,-1,86
 382 2441 382 2441 382 2446.5 c 128,-1,87
 382 2452 382 2452 373 2486 c 128,-1,88
 364 2520 364 2520 386 2540 c 128,-1,89
 408 2560 408 2560 398.5 2618 c 128,-1,90
 389 2676 389 2676 393 2683 c 1,91,-1
 462 2683 l 1,92,-1
 458 2694 l 1,93,94
 458 2697 458 2697 457.787449893 2700.29452666 c 0,95,96
 454 2759 454 2759 508.5 2780.5 c 128,-1,97
 563 2802 563 2802 563 2840 c 128,-1,98
 563 2878 563 2878 599 2878 c 128,-1,99
 635 2878 635 2878 635 2851 c 128,-1,100
 635 2824 635 2824 667.5 2764.5 c 128,-1,101
 700 2705 700 2705 716 2705 c 128,-1,102
 732 2705 732 2705 741 2741 c 128,-1,103
 750 2777 750 2777 766.809683461 2778.14611478 c 0,49,50
EndSplineSet
EndChar

StartChar: numbersign
Encoding: 35 35 6
Width: 2000
GlyphClass: 2
Flags: W
LayerCount: 2
Fore
SplineSet
1083.26733686 2595.64125354 m 1,0,1
 1058.47275174 2619.97964559 1058.47275174 2619.97964559 1015.53636364 2665 c 1,2,3
 997.75 2665 997.75 2665 1014.375 2590.5 c 128,-1,4
 1031 2516 1031 2516 1005 2500.5 c 128,-1,5
 979 2485 979 2485 979 2468 c 128,-1,6
 979 2451 979 2451 995.5 2436.5 c 128,-1,7
 1012 2422 1012 2422 985 2406.5 c 128,-1,8
 958 2391 958 2391 958 2381.58339917 c 128,-1,9
 958 2372.16679834 958 2372.16679834 972.122292309 2354.66340581 c 1,10,11
 1047.06108556 2526.42778774 1047.06108556 2526.42778774 1083.26733686 2595.64125354 c 1,0,1
2010.83250734 1827.53368995 m 1,12,13
 2030.31391467 1838.00000145 2030.31391467 1838.00000145 2032.53195734 1838.7088207 c 128,-1,14
 2034.75 1839.41763995 2034.75 1839.41763995 2034.79804455 1840.78503717 c 1,15,16
 2024.43312528 1834.91071711 2024.43312528 1834.91071711 2010.83250734 1827.53368995 c 1,12,13
1224 1854 m 1,17,18
 1216 1851 1216 1851 1184.87168142 1842.69911504 c 128,-1,19
 1153.74336283 1834.39823009 1153.74336283 1834.39823009 1179.32782176 1829.88332557 c 128,-1,20
 1204.9122807 1825.36842105 1204.9122807 1825.36842105 1224 1854 c 1,17,18
2071.12368554 1868.73434059 m 1,21,22
 2076 1863 2076 1863 2061.32551965 1856.07980037 c 128,-1,23
 2046.6510393 1849.15960075 2046.6510393 1849.15960075 2066.32551965 1828.07980037 c 128,-1,24
 2086 1807 2086 1807 2080.75331918 1807 c 128,-1,25
 2075.50663837 1807 2075.50663837 1807 2033.75331919 1804 c 128,-1,26
 1992 1801 1992 1801 1975.4 1842.5 c 128,-1,27
 1958.8 1884 1958.8 1884 1920.9 1884 c 128,-1,28
 1883 1884 1883 1884 1794.5 1865 c 128,-1,29
 1706 1846 1706 1846 1643.33307438 1867.55618506 c 128,-1,30
 1580.66614877 1889.11237012 1580.66614877 1889.11237012 1573.59090909 1887 c 0,31,32
 1520 1871 1520 1871 1515.5 1863.5 c 128,-1,33
 1511 1856 1511 1856 1526.5 1835.5 c 128,-1,34
 1542 1815 1542 1815 1525 1815 c 128,-1,35
 1508 1815 1508 1815 1495 1828 c 1,36,37
 1451 1757 1451 1757 1451 1661.5 c 128,-1,38
 1451 1566 1451 1566 1349 1362 c 1,39,-1
 1400.5 1354.5 l 2,40,41
 1452 1347 1452 1347 1463 1347.5 c 128,-1,42
 1474 1348 1474 1348 1465.5 1364.5 c 128,-1,43
 1457 1381 1457 1381 1465 1384.5 c 128,-1,44
 1473 1388 1473 1388 1490.5 1388 c 2,45,-1
 1527.5 1388 l 1,46,47
 1527.5 1388 1527.5 1388 1730.23896699 1357 c 1,48,49
 1752 1357 1752 1357 1751 1362 c 128,-1,50
 1750 1367 1750 1367 1734.5 1367 c 128,-1,51
 1719 1367 1719 1367 1692 1365 c 1,52,53
 1845 1381 1845 1381 1849.59207542 1381 c 128,-1,54
 1854 1381 1854 1381 1890 1359 c 128,-1,55
 1926 1337 1926 1337 1978 1320.5 c 128,-1,56
 2030 1304 2030 1304 2038.5 1256 c 128,-1,57
 2047 1208 2047 1208 2014 1202.5 c 128,-1,58
 1981 1197 1981 1197 1982 1182.5 c 128,-1,59
 1983 1168 1983 1168 2004.5 1168 c 128,-1,60
 2026 1168 2026 1168 2101 1179.5 c 128,-1,61
 2176 1191 2176 1191 2179 1172.5 c 128,-1,62
 2182 1154 2182 1154 2104.5 1154 c 128,-1,63
 2027 1154 2027 1154 1988.5 1155.5 c 128,-1,64
 1950 1157 1950 1157 1885 1140 c 1,65,66
 1907 1120 1907 1120 1918 1120 c 1,67,-1
 1879.5 1120 l 2,68,69
 1841 1120 1841 1120 1862 1148 c 1,70,-1
 1888 1169 l 1,71,-1
 1783 1155 l 1,72,73
 1778 1147 1778 1147 1756.5 1148.5 c 128,-1,74
 1735 1150 1735 1150 1715 1150 c 128,-1,75
 1695 1150 1695 1150 1640 1140 c 128,-1,76
 1585 1130 1585 1130 1516 1146 c 128,-1,77
 1447 1162 1447 1162 1413 1154 c 128,-1,78
 1379 1146 1379 1146 1375.86985732 1145.35034775 c 0,79,80
 1228 1115 1228 1115 1294.19994245 919.686165245 c 0,81,82
 1330 813 1330 813 1283.5166832 811.019130305 c 1,83,84
 1290.1880904 796.951683757 1290.1880904 796.951683757 1269.31504031 683.992882973 c 1,85,86
 1275.95454221 744.585151045 1275.95454221 744.585151045 1233.31578947 744 c 2,87,-1
 1174.37848297 743.19117647 l 2,88,89
 1115 742 1115 742 1147.31557444 696.657458694 c 0,90,91
 1199 623 1199 623 1111 536.5 c 128,-1,92
 1023 450 1023 450 1074.76039111 398.23960889 c 0,93,94
 1104 369 1104 369 1093 352 c 128,-1,95
 1082 335 1082 335 1082 334.522462136 c 128,-1,96
 1082 334 1082 334 1071.5 332.5 c 128,-1,97
 1061 331 1061 331 1080.5 278.5 c 128,-1,98
 1100 226 1100 226 1089.5 159 c 128,-1,99
 1079 92 1079 92 1027.72572209 82.9134191041 c 0,100,101
 1000 78 1000 78 973 43 c 128,-1,102
 946 8 946 8 889 32.5 c 128,-1,103
 832 57 832 57 818 97 c 128,-1,104
 804 137 804 137 787.5 233 c 128,-1,105
 771 329 771 329 789 361 c 128,-1,106
 807 393 807 393 800.5 496.5 c 128,-1,107
 794 600 794 600 793 605.5 c 128,-1,108
 792 611 792 611 824 680 c 128,-1,109
 856 749 856 749 876.975772277 749 c 0,110,111
 884 749 884 749 900 735 c 128,-1,112
 916 721 916 721 914.218210872 741.04512769 c 0,113,114
 912 766 912 766 948.5 793.5 c 128,-1,115
 985 821 985 821 999 900 c 128,-1,116
 1013 979 1013 979 1003 1047.5 c 128,-1,117
 993 1116 993 1116 1002 1130 c 1,118,119
 935 1130 935 1130 948.71780945 1151.43407727 c 0,120,121
 951 1155 951 1155 950 1160.5 c 128,-1,122
 949 1166 949 1166 905 1166 c 2,123,-1
 904 1166 l 1,124,-1
 713 1157 l 1,125,-1
 659 1160 l 1,126,-1
 618.513452915 1019.95964126 l 2,127,128
 578 880 578 880 611.5 783 c 128,-1,129
 645 686 645 686 594 686 c 2,130,-1
 593 686 l 1,131,132
 593 683 593 683 598.452048906 672.095902189 c 0,133,134
 630 608 630 608 578.671061796 608 c 0,135,136
 555 608 555 608 555 619 c 2,137,-1
 555 620 l 1,138,-1
 554 620 l 2,139,140
 552 620 552 620 540.946934308 616.028811119 c 0,141,142
 448 582 448 582 484 544 c 128,-1,143
 520 506 520 506 455.258634245 442.028910274 c 0,144,145
 344 333 344 333 415.283796442 185.694652398 c 0,146,147
 419 178 419 178 420 175 c 1,148,-1
 395 209 l 1,149,-1
 394 209 l 2,150,151
 367 209 367 209 382 171 c 128,-1,152
 397 133 397 133 392.788524236 95.7446374709 c 0,153,154
 384 18 384 18 309.549254007 3.10985080149 c 0,155,156
 263 -6 263 -6 246.825660348 -39.6459999884 c 1,157,158
 195 -17 195 -17 182.5 17 c 0,159,160
 125.768643032 171.309290954 125.768643032 171.309290954 169.384321516 249.154645477 c 128,-1,161
 213 327 213 327 176 446 c 128,-1,162
 139 565 139 565 165.5 587.5 c 128,-1,163
 192 610 192 610 167.5 658 c 128,-1,164
 143 706 143 706 151 706 c 128,-1,165
 159 706 159 706 235 665 c 1,166,-1
 236 665 l 1,167,168
 344 671 344 671 323.355608567 871.842048346 c 0,169,170
 320 904 320 904 316 937 c 1,171,172
 351 1038 351 1038 378.323839546 1123.50092947 c 1,173,174
 373 1151 373 1151 330.939349273 1151 c 0,175,176
 329 1151 329 1151 236 1148 c 128,-1,177
 143 1145 143 1145 17.5 1159 c 128,-1,178
 -108 1173 -108 1173 -104.108295071 1148.87142944 c 0,179,180
 -101.870967742 1135 -101.870967742 1135 -155.935483871 1135 c 128,-1,181
 -210 1135 -210 1135 -214.5 1162.5 c 128,-1,182
 -219 1190 -219 1190 -254.5 1212 c 128,-1,183
 -290 1234 -290 1234 -284 1278 c 128,-1,184
 -278 1322 -278 1322 -203.5 1328 c 128,-1,185
 -129 1334 -129 1334 -59 1355 c 128,-1,186
 11 1376 11 1376 95 1376 c 2,187,-1
 96 1376 l 1,188,-1
 97 1376 l 1,189,-1
 200 1367 l 1,190,-1
 299.666832813 1374.66583593 l 2,191,192
 321 1376 321 1376 453.340211801 1391.57788098 c 1,193,194
 488 1545 488 1545 470.5 1599 c 128,-1,195
 453 1653 453 1653 505 1697 c 128,-1,196
 557 1741 557 1741 543.5 1747 c 128,-1,197
 530 1753 530 1753 526.5 1764 c 128,-1,198
 523 1775 523 1775 504.5 1795.5 c 128,-1,199
 486 1816 486 1816 486 1820.5 c 128,-1,200
 486 1825 486 1825 514 1885 c 1,201,202
 471 1893 471 1893 447.875 1893 c 128,-1,203
 424.75 1893 424.75 1893 427.591009711 1877.09034562 c 0,204,205
 431 1858 431 1858 377.5 1845 c 128,-1,206
 324 1832 324 1832 266.5 1838.63461538 c 128,-1,207
 209 1845.26923077 209 1845.26923077 209 1869 c 1,208,209
 163 1892 163 1892 138.25 1892 c 2,210,-1
 81.125 1892 l 2,211,212
 24 1892 24 1892 17.3336034474 1854.9644636 c 0,213,214
 15 1842 15 1842 8 1842 c 2,215,-1
 7 1842 l 1,216,217
 -223 1940 -223 1940 -14.4128521488 2023.83485914 c 0,218,219
 56 2052 56 2052 111 2060 c 128,-1,220
 166 2068 166 2068 209.5 2077.5 c 128,-1,221
 253 2087 253 2087 331.5 2087 c 128,-1,222
 410 2087 410 2087 575 2072 c 1,223,224
 629 2147 629 2147 599.46560153 2310.25599139 c 0,225,226
 591 2357 591 2357 585 2361 c 1,227,-1
 585 2362 l 2,228,229
 585 2365 585 2365 591.490163707 2369.79427758 c 0,230,231
 637 2405 637 2405 652.5 2500 c 128,-1,232
 668 2595 668 2595 681 2595 c 128,-1,233
 694 2595 694 2595 741 2560 c 1,234,-1
 742 2560 l 1,235,236
 811 2587 811 2587 796.5 2794.5 c 128,-1,237
 782 3002 782 3002 843 3018 c 1,238,239
 830 3016 830 3016 782 3007 c 1,240,-1
 866 3074.5 l 2,241,242
 950 3142 950 3142 956 3141 c 128,-1,243
 962 3140 962 3140 964.042939444 3140.04705597 c 0,244,245
 1005 3141 1005 3141 1054.5 3074 c 128,-1,246
 1104 3007 1104 3007 1108 2936 c 128,-1,247
 1112 2865 1112 2865 1118.5 2854 c 128,-1,248
 1125 2843 1125 2843 1132.5 2825 c 128,-1,249
 1140 2807 1140 2807 1151.5 2801 c 128,-1,250
 1163 2795 1163 2795 1157 2770.5 c 128,-1,251
 1151 2746 1151 2746 1103.44169994 2630.89860682 c 1,252,253
 1116 2649 1116 2649 1120 2608 c 128,-1,254
 1124 2567 1124 2567 1118.5 2567 c 128,-1,255
 1113 2567 1113 2567 1087.29828117 2591.70468498 c 1,256,257
 1003 2430 1003 2430 976 2352 c 1,258,259
 1001 2320 1001 2320 980.5 2303 c 128,-1,260
 960 2286 960 2286 946 2194.5 c 128,-1,261
 932 2103 932 2103 927 2075 c 1,262,263
 983 2061 983 2061 989.5 2061 c 128,-1,264
 996 2061 996 2061 1219 2064 c 1,265,266
 1253 2181 1253 2181 1253 2192 c 1,267,-1
 1255 2192 l 1,268,269
 1276 2196 1276 2196 1284.5 2333.5 c 128,-1,270
 1293 2471 1293 2471 1280 2479.5 c 128,-1,271
 1267 2488 1267 2488 1264.05083424 2508.17702792 c 0,272,273
 1252 2580 1252 2580 1326 2588 c 128,-1,274
 1400 2596 1400 2596 1395.57317578 2660.1889512 c 0,275,276
 1392 2712 1392 2712 1438.09105647 2726.33083268 c 0,277,278
 1511 2749 1511 2749 1491.64788251 2875.40638444 c 0,279,280
 1464 3056 1464 3056 1615 3088 c 1,281,-1
 1617 3089 l 1,282,283
 1616 3089 1616 3089 1557 3077 c 128,-1,284
 1498 3065 1498 3065 1488 3063 c 1,285,-1
 1572 3130 l 2,286,287
 1653 3195 1653 3195 1662 3195 c 2,288,-1
 1663 3195 l 1,289,290
 1666 3196 1666 3196 1678 3196 c 128,-1,291
 1690 3196 1690 3196 1741 3147.5 c 128,-1,292
 1792 3099 1792 3099 1795.5 3046.5 c 128,-1,293
 1799 2994 1799 2994 1805.5 2981 c 128,-1,294
 1812 2968 1812 2968 1820 2951 c 128,-1,295
 1828 2934 1828 2934 1838.5 2926 c 128,-1,296
 1849 2918 1849 2918 1840.5 2883.5 c 128,-1,297
 1832 2849 1832 2849 1816.5 2842.5 c 128,-1,298
 1801 2836 1801 2836 1803 2789.5 c 128,-1,299
 1805 2743 1805 2743 1783 2678.5 c 128,-1,300
 1761 2614 1761 2614 1754 2614 c 128,-1,301
 1747 2614 1747 2614 1734.8945386 2619.86091881 c 0,302,303
 1666 2653 1666 2653 1667.27560786 2598.2272953 c 0,304,305
 1668 2567 1668 2567 1689.5 2561 c 128,-1,306
 1711 2555 1711 2555 1677.5 2535.5 c 128,-1,307
 1644 2516 1644 2516 1644 2499 c 2,308,-1
 1644 2498 l 2,309,310
 1644 2496 1644 2496 1666.5 2470 c 128,-1,311
 1689 2444 1689 2444 1668 2427.5 c 128,-1,312
 1647 2411 1647 2411 1627 2260.5 c 128,-1,313
 1607 2110 1607 2110 1574.27217655 2110.90910621 c 0,314,315
 1517.48214286 2112.48660709 1517.48214286 2112.48660709 1521.24107143 2089.24330355 c 128,-1,316
 1525 2066 1525 2066 1625.5 2066 c 128,-1,317
 1726 2066 1726 2066 1878 2069.5 c 128,-1,318
 2030 2073 2030 2073 2052 2058.5 c 128,-1,319
 2074 2044 2074 2044 2092.08182655 2037.19693655 c 0,320,321
 2175 2006 2175 2006 2181.93089851 1965.33872876 c 0,322,323
 2190 1918 2190 1918 2087.15669212 1904.28755895 c 0,324,325
 2055 1900 2055 1900 2038 1893 c 1,326,327
 2060.5 1878 2060.5 1878 2073 1878 c 1,328,329
 2073 1875 2073 1875 2071.12368554 1868.73434059 c 1,21,22
460 1851 m 1,330,-1
 457 1851 l 2,331,332
 450 1851 450 1851 447 1859 c 1,333,-1
 447 1860 l 1,334,335
 436 1871 436 1871 451 1871 c 128,-1,336
 466 1871 466 1871 467 1862 c 128,-1,337
 468 1853 468 1853 460 1851 c 1,330,-1
1157.40168515 1703.76866175 m 0,338,339
 1143.65822785 1747.51898734 1143.65822785 1747.51898734 1157.32911393 1770.75949367 c 128,-1,340
 1171 1794 1171 1794 1100.5 1836.5 c 128,-1,341
 1030 1879 1030 1879 1013 1873.5 c 128,-1,342
 996 1868 996 1868 996.5 1866.5 c 0,343,344
 1004.98615917 1841.04152249 1004.98615917 1841.04152249 954.993079585 1840.52076125 c 128,-1,345
 905 1840 905 1840 892 1840 c 128,-1,346
 879 1840 879 1840 859 1842 c 1,347,348
 844.639999999 1669.68 844.639999999 1669.68 784.657977062 1660.20915427 c 0,349,350
 756.797468354 1655.81012658 756.797468354 1655.81012658 764.859036664 1622.58103869 c 128,-1,351
 772.920604975 1589.35195079 772.920604975 1589.35195079 762.270589278 1537.83997163 c 128,-1,352
 751.620573581 1486.32799247 751.620573581 1486.32799247 761.818803134 1453.10560311 c 128,-1,353
 772.017032687 1419.88321374 772.017032687 1419.88321374 749 1375 c 1,354,-1
 823.5 1359 l 2,355,356
 898 1343 898 1343 915.5 1343 c 128,-1,357
 933 1343 933 1343 912.875 1363.125 c 128,-1,358
 892.75 1383.25 892.75 1383.25 906.875 1387.625 c 128,-1,359
 921 1392 921 1392 977.5 1392 c 128,-1,360
 1034 1392 1034 1392 1050 1391 c 1,361,362
 1050 1445.68 1050 1445.68 1103.962741 1497.40356409 c 0,363,364
 1194.85913918 1584.52822806 1194.85913918 1584.52822806 1157.40168515 1703.76866175 c 0,338,339
101 1424 m 2,365,366
 182 1424 182 1424 182.869906356 1409.21159195 c 0,367,368
 183.647058824 1396 183.647058824 1396 116.990196079 1396 c 128,-1,369
 50.3333333333 1396 50.3333333333 1396 47.494264837 1410.90510961 c 0,370,371
 45 1424 45 1424 98 1424 c 2,372,-1
 101 1424 l 2,365,366
92 2076 m 1,373,374
 103 2067 103 2067 118 2067 c 128,-1,375
 133 2067 133 2067 155 2071 c 128,-1,376
 177 2075 177 2075 233 2085 c 1,377,378
 153 2072 153 2072 125.5 2072 c 128,-1,379
 98 2072 98 2072 92 2076 c 1,373,374
246.223783996 -41 m 1,380,381
 244 -46.341158286 244 -46.341158286 244 -52 c 1,382,383
 244 -41 244 -41 245.25 -41 c 2,384,-1
 246.223783996 -41 l 1,380,381
246.223783996 -41 m 1,385,-1
 250 -41 l 1,386,387
 246.784243631 -39.6538694271 246.784243631 -39.6538694271 246.223783996 -41 c 1,385,-1
1488 3063 m 1,388,-1
 1483.59183673 3062.26530612 l 1,389,390
 1485.42857143 3063 1485.42857143 3063 1488 3063 c 1,388,-1
782 3007 m 1,391,-1
 780 3006 l 1,392,-1
 780 3007 l 1,393,-1
 782 3007 l 1,391,-1
EndSplineSet
EndChar

StartChar: dollar
Encoding: 36 36 7
Width: 2000
GlyphClass: 1
Flags: W
LayerCount: 2
Fore
SplineSet
1028 407 m 1028,0,-1
807.36936793 2281.64889077 m 5,1,2
 807.36936793 2281.64889077 807.36936793 2281.64889077 844.207314853 2211.53935967 c 5,3,4
 844.207314853 2205.48029916 844.207314853 2205.48029916 838.51820239 2202.85455495 c 4,5,6
 815 2192 815 2192 815 2069.18952725 c 132,-1,7
 815 1946.37905449 815 1946.37905449 770.717074688 1946.37905449 c 4,8,9
 743.52755527 1946.37905449 743.52755527 1946.37905449 662.867964546 2011.09430751 c 132,-1,10
 582.208373823 2075.80956054 582.208373823 2075.80956054 582.208373823 2122.23740178 c 4,11,12
 582.208373823 2131.76456072 582.208373823 2131.76456072 608.104186911 2198.88228036 c 132,-1,13
 634 2266 634 2266 661 2280 c 132,-1,14
 688 2294 688 2294 699.72385905 2294 c 4,15,16
 724.901903049 2294 724.901903049 2294 724.901903049 2321.08953545 c 5,17,18
 724.901903049 2321.08953545 724.901903049 2321.08953545 721.145238675 2365.04476772 c 132,-1,19
 717.388574301 2409 717.388574301 2409 757.206670319 2409 c 4,20,21
 816.247563544 2409 816.247563544 2409 816.247563544 2328.01650644 c 5,22,23
 816.247563544 2328.01650644 816.247563544 2328.01650644 807.36936793 2281.64889077 c 5,1,2
994.983685569 1800.96982355 m 5,24,25
 983.286409869 1800.96982355 983.286409869 1800.96982355 983.286409869 1819.61788572 c 132,-1,26
 983.286409869 1838.26594789 983.286409869 1838.26594789 962.458911461 1994.61243119 c 5,27,28
 962.458911461 2064.69498403 962.458911461 2064.69498403 996 2096 c 6,29,-1
 1040 2136 l 5,30,-1
 996 2184 l 6,31,32
 958 2226 958 2226 958 2277 c 132,-1,33
 958 2328 958 2328 995.339125445 2328 c 132,-1,34
 1032.67825089 2328 1032.67825089 2328 1032.67825089 2366.79264406 c 132,-1,35
 1032.67825089 2405.58528812 1032.67825089 2405.58528812 1005.74313565 2415.94494782 c 132,-1,36
 978.808020416 2426.30460753 978.808020416 2426.30460753 978.808020416 2440.25831908 c 132,-1,37
 978.808020416 2454.21203062 978.808020416 2454.21203062 988.803090272 2469.2046354 c 132,-1,38
 998.798160129 2484.19724019 998.798160129 2484.19724019 1009.93721252 2484.19724019 c 132,-1,39
 1021.07626491 2484.19724019 1021.07626491 2484.19724019 1037.16258534 2449.09981381 c 132,-1,40
 1053.24890576 2414.00238743 1053.24890576 2414.00238743 1075.71143315 2417.06184747 c 132,-1,41
 1098.17396053 2420.12130752 1098.17396053 2420.12130752 1312.5980428 2392 c 5,42,43
 1344 2392 1344 2392 1344 2340 c 6,44,-1
 1344 2280 l 6,45,46
 1344 2045.26582278 1344 2045.26582278 1235.57387339 2030.16851402 c 4,47,48
 1209.27276325 2026.50633412 1209.27276325 2026.50633412 1209.27276325 2016.3800113 c 4,49,50
 1209.27276325 1924 1209.27276325 1924 1250 1924 c 4,51,52
 1280 1924 1280 1924 1280 1893.5 c 132,-1,53
 1280 1863 1280 1863 1228 1808 c 6,54,-1
 1172 1748 l 5,55,-1
 1132 1800 l 5,56,57
 1109.31502083 1824.95347708 1109.31502083 1824.95347708 1093.50694117 1824.95347708 c 132,-1,58
 1077.6988615 1824.95347708 1077.6988615 1824.95347708 994.983685569 1800.96982355 c 5,24,25
772.976883789 1362.82462141 m 5,59,60
 772.976883789 1362.82462141 772.976883789 1362.82462141 740.061170165 1246.58108624 c 5,61,62
 740.061170165 1218.84900767 740.061170165 1218.84900767 754.385202008 1075.55402617 c 5,63,64
 754.385202008 997.137005305 754.385202008 997.137005305 701.506591965 997.137005305 c 4,65,66
 680.090219733 997.137005305 680.090219733 997.137005305 650 1010 c 5,67,-1
 521 1023 l 5,68,69
 416 1003 416 1003 346.045371255 959.123132267 c 132,-1,70
 276.090742511 915.246264534 276.090742511 915.246264534 276.090742511 888.892461702 c 132,-1,71
 276.090742511 862.538658871 276.090742511 862.538658871 290.13028585 845.907199839 c 132,-1,72
 304.169829189 829.275740807 304.169829189 829.275740807 304.169829189 817.857367744 c 132,-1,73
 304.169829189 806.438994681 304.169829189 806.438994681 296.178059282 757.4579611 c 5,74,75
 296.178059282 702.147719941 296.178059282 702.147719941 388.740370041 678.72834011 c 4,76,77
 443 665 443 665 551.5 608.5 c 132,-1,78
 660 552 660 552 728 466 c 132,-1,79
 796 380 796 380 796 334.594352061 c 5,80,81
 796 334.594352061 796 334.594352061 779.139134952 267.790417384 c 5,82,83
 779.139134952 247.375647054 779.139134952 247.375647054 795.567430604 228.756911982 c 132,-1,84
 811.995726256 210.13817691 811.995726256 210.13817691 832.801282123 210.13817691 c 132,-1,85
 853.60683799 210.13817691 853.60683799 210.13817691 888.803418995 235.069088455 c 132,-1,86
 924 260 924 260 924 313.951594883 c 132,-1,87
 924 368 924 368 971 368 c 132,-1,88
 1018 368 1018 368 1063.5 324 c 132,-1,89
 1109 280 1109 280 1120.16260073 252.093498181 c 132,-1,90
 1131.32520146 224.186996361 1131.32520146 224.186996361 1165.591454 224.186996361 c 132,-1,91
 1199.85770654 224.186996361 1199.85770654 224.186996361 1199.85770654 237.323875469 c 132,-1,92
 1199.85770654 250.460754577 1199.85770654 250.460754577 1163.36680948 271.967603566 c 132,-1,93
 1126.87591241 293.474452555 1126.87591241 293.474452555 1088.56912505 358.13962861 c 132,-1,94
 1050.2623377 422.804804664 1050.2623377 422.804804664 1050.2623377 456.662793189 c 132,-1,95
 1050.2623377 490.520781713 1050.2623377 490.520781713 1124.95410046 490.520781713 c 132,-1,96
 1199.64586322 490.520781713 1199.64586322 490.520781713 1229.91001271 438.246341681 c 4,97,98
 1241.82212681 417.670871875 1241.82212681 417.670871875 1251.79549688 417.670871875 c 132,-1,99
 1261.76886694 417.670871875 1261.76886694 417.670871875 1274.88443347 427.835435937 c 132,-1,100
 1288 438 1288 438 1348 438 c 132,-1,101
 1408 438 1408 438 1408 406.255860649 c 4,102,103
 1408 385 1408 385 1376.02529162 385 c 4,104,105
 1300 385 1300 385 1300 268.5 c 132,-1,106
 1300 152 1300 152 1366 152 c 132,-1,107
 1432 152 1432 152 1432 258 c 5,108,-1
 1462 331 l 6,109,110
 1475.3633473 363.517478418 1475.3633473 363.517478418 1475.3633473 388.19517993 c 132,-1,111
 1475.3633473 412.872881443 1475.3633473 412.872881443 1458.62402632 421.800519298 c 132,-1,112
 1441.88470534 430.728157154 1441.88470534 430.728157154 1441.88470534 439.953882135 c 132,-1,113
 1441.88470534 449.179607116 1441.88470534 449.179607116 1448.94235267 458.589803558 c 132,-1,114
 1456 468 1456 468 1468 492 c 132,-1,115
 1480 516 1480 516 1494 534 c 132,-1,116
 1508 552 1508 552 1526.08695652 579.130434783 c 132,-1,117
 1544.17391304 606.260869565 1544.17391304 606.260869565 1584.08695652 615.130434783 c 132,-1,118
 1624 624 1624 624 1696 696 c 132,-1,119
 1768 768 1768 768 1768 781 c 132,-1,120
 1768 794 1768 794 1819.29531402 884.180471424 c 132,-1,121
 1870.59062804 974.360942849 1870.59062804 974.360942849 1870.59062804 996.811580765 c 132,-1,122
 1870.59062804 1019.26221868 1870.59062804 1019.26221868 1856.60709494 1063.68141222 c 5,123,124
 1856.60709494 1063.68141222 1856.60709494 1063.68141222 1880.04297237 1188.92680725 c 5,125,126
 1880.04297237 1247.40094633 1880.04297237 1247.40094633 1834.02148618 1276.98618745 c 132,-1,127
 1788 1306.57142857 1788 1306.57142857 1788 1365.28571429 c 132,-1,128
 1788 1424 1788 1424 1760.70629824 1535.90417723 c 132,-1,129
 1733.41259648 1647.80835445 1733.41259648 1647.80835445 1680.71433723 1647.80835445 c 4,130,131
 1667.2617837 1647.80835445 1667.2617837 1647.80835445 1652 1640 c 5,132,-1
 1644 1640 l 5,133,-1
 1640 1636 l 5,134,-1
 1560 1676 l 6,135,136
 1453.61150912 1729.19424544 1453.61150912 1729.19424544 1453.61150912 1756.14653383 c 4,137,138
 1453.61150912 1767.26738548 1453.61150912 1767.26738548 1471.72405312 1773.92056776 c 4,139,140
 1540 1799 1540 1799 1540 1927 c 132,-1,141
 1540 2055 1540 2055 1521.52748944 2098.87221258 c 132,-1,142
 1503.05497887 2142.74442517 1503.05497887 2142.74442517 1503.05497887 2165.37221258 c 132,-1,143
 1503.05497887 2188 1503.05497887 2188 1537 2188 c 6,144,-1
 1626 2188 l 6,145,146
 1664 2188 1664 2188 1726 2252 c 132,-1,147
 1788 2316 1788 2316 1788 2366 c 132,-1,148
 1788 2416 1788 2416 1774 2442 c 132,-1,149
 1760 2468 1760 2468 1755.03882886 2480.75729722 c 4,150,151
 1725.04074977 2557.89521489 1725.04074977 2557.89521489 1656.84153906 2557.89521489 c 5,152,153
 1656.84153906 2557.89521489 1656.84153906 2557.89521489 1628.05675789 2557.39672015 c 132,-1,154
 1599.27197672 2556.89822541 1599.27197672 2556.89822541 1552.8396406 2576.89984712 c 132,-1,155
 1506.40730448 2596.90146884 1506.40730448 2596.90146884 1506.40730448 2627.96834322 c 5,156,157
 1506.40730448 2627.96834322 1506.40730448 2627.96834322 1540.21011021 2701.73554524 c 5,158,159
 1540.21011021 2721.08135891 1540.21011021 2721.08135891 1511.30489375 2744.28159844 c 132,-1,160
 1482.39967729 2767.48183796 1482.39967729 2767.48183796 1482.39967729 2817.9231248 c 132,-1,161
 1482.39967729 2868.36441164 1482.39967729 2868.36441164 1499.16898608 2883.65407554 c 132,-1,162
 1516 2899 1516 2899 1516 2950.12591144 c 132,-1,163
 1516 3001.25182288 1516 3001.25182288 1476.51167386 3001.25182288 c 4,164,165
 1457.84071797 3001.25182288 1457.84071797 3001.25182288 1436.92035898 2974.62591144 c 132,-1,166
 1416 2948 1416 2948 1334 2930 c 132,-1,167
 1252 2912 1252 2912 1252 2872.75651071 c 5,168,169
 1252 2872.75651071 1252 2872.75651071 1300.40573095 2711.95359428 c 5,170,171
 1300.40573095 2692 1300.40573095 2692 1293.01172499 2692 c 132,-1,172
 1285.61771903 2692 1285.61771903 2692 1243.21684239 2695.71583084 c 132,-1,173
 1200.81596575 2699.43166169 1200.81596575 2699.43166169 1176.90798288 2662.71583084 c 132,-1,174
 1153 2626 1153 2626 1104.5 2626 c 132,-1,175
 1056 2626 1056 2626 1015.15768747 2659.3406633 c 132,-1,176
 974.315374931 2692.68132659 974.315374931 2692.68132659 974.315374931 2714.51498774 c 132,-1,177
 974.315374931 2736.34864889 974.315374931 2736.34864889 1000.45643136 2736.34864889 c 132,-1,178
 1026.59748779 2736.34864889 1026.59748779 2736.34864889 1062.73245671 2705.93803149 c 132,-1,179
 1098.86742563 2675.52741408 1098.86742563 2675.52741408 1124.9325376 2675.52741408 c 132,-1,180
 1150.99764957 2675.52741408 1150.99764957 2675.52741408 1150.99764957 2708.70458577 c 132,-1,181
 1150.99764957 2741.88175747 1150.99764957 2741.88175747 1131.1509987 2798.94087874 c 132,-1,182
 1111.30434783 2856 1111.30434783 2856 1089.90217392 2856 c 132,-1,183
 1068.5 2856 1068.5 2856 908 2980 c 5,184,185
 888 2980 888 2980 832 2915.5 c 132,-1,186
 776 2851 776 2851 776 2825.5 c 132,-1,187
 776 2800 776 2800 737.739554506 2786.3669677 c 132,-1,188
 699.479109013 2772.7339354 699.479109013 2772.7339354 699.479109013 2745.78616827 c 5,189,190
 699.479109013 2745.78616827 699.479109013 2745.78616827 702.207479403 2716.87744712 c 132,-1,191
 704.935849794 2687.96872597 704.935849794 2687.96872597 673.967924897 2679.48436299 c 132,-1,192
 643 2671 643 2671 624 2657 c 132,-1,193
 605 2643 605 2643 605 2559 c 132,-1,194
 605 2475 605 2475 588 2475 c 132,-1,195
 571 2475 571 2475 481 2560 c 5,196,197
 418.566150606 2560 418.566150606 2560 418.566150606 2481.82768654 c 5,198,199
 418.566150606 2481.82768654 418.566150606 2481.82768654 420.123731955 2420.34348542 c 132,-1,200
 421.681313303 2358.85928431 421.681313303 2358.85928431 385.625573186 2315.72701861 c 132,-1,201
 349.569833068 2272.5947529 349.569833068 2272.5947529 349.569833068 2221.76715713 c 132,-1,202
 349.569833068 2170.93956135 349.569833068 2170.93956135 368 2119 c 5,203,204
 368 1924 368 1924 406.525866508 1924 c 4,205,206
 428 1924 428 1924 428 1863.41556285 c 4,207,208
 428 1744 428 1744 511.428676387 1744 c 4,209,210
 523.5 1744 523.5 1744 584 1746.5 c 5,211,212
 584 1732 584 1732 600.596602756 1704.16053731 c 4,213,214
 646 1628 646 1628 705 1628 c 132,-1,215
 764 1628 764 1628 764 1576.29276584 c 5,216,217
 764 1576.29276584 764 1576.29276584 740.579776137 1486.38949464 c 5,218,219
 740.579776137 1486.38949464 740.579776137 1486.38949464 772.976883789 1362.82462141 c 5,59,60
1284 954 m 132,-1,221
 1284 932 1284 932 1262 932 c 132,-1,222
 1240 932 1240 932 1240 954 c 132,-1,223
 1240 976 1240 976 1262 976 c 132,-1,220
 1284 976 1284 976 1284 954 c 132,-1,221
1536 916.579218375 m 4,224,225
 1536 868 1536 868 1497.17969999 868 c 132,-1,226
 1458.35939999 868 1458.35939999 868 1458.35939999 900.981784205 c 132,-1,227
 1458.35939999 933.96356841 1458.35939999 933.96356841 1480.61891955 957.785159519 c 132,-1,228
 1502.87843911 981.606750628 1502.87843911 981.606750628 1502.87843911 997.047279589 c 132,-1,229
 1502.87843911 1012.48780855 1502.87843911 1012.48780855 1476.18819243 1108.57230027 c 5,230,231
 1476.18819243 1127 1476.18819243 1127 1508.09409622 1127 c 132,-1,232
 1540 1127 1540 1127 1604 1048 c 5,233,-1
 1664 976 l 5,234,-1
 1600 976 l 6,235,236
 1536 976 1536 976 1536 916.579218375 c 4,224,225
1242 1214.5 m 5,237,238
 1242 1200.15651063 1242 1200.15651063 1221.32204549 1200.15651063 c 132,-1,239
 1200.64409098 1200.15651063 1200.64409098 1200.15651063 1116.32204549 1272.07825531 c 132,-1,240
 1032 1344 1032 1344 1032 1354 c 132,-1,241
 1032 1364 1032 1364 1077.10698627 1375.27674656 c 132,-1,242
 1122.21397254 1386.55349313 1122.21397254 1386.55349313 1164.10698627 1386.55349313 c 132,-1,243
 1206 1386.55349313 1206 1386.55349313 1206 1356.77674656 c 132,-1,244
 1206 1327 1206 1327 1242 1214.5 c 5,237,238
1567 2313 m 132,-1,246
 1567 2308 1567 2308 1541.5 2308 c 132,-1,247
 1516 2308 1516 2308 1516 2323 c 132,-1,248
 1516 2338 1516 2338 1524.5 2338 c 132,-1,249
 1533 2338 1533 2338 1550 2328 c 132,-1,245
 1567 2318 1567 2318 1567 2313 c 132,-1,246
769.956781202 2673.94797751 m 132,-1,251
 776.190482584 2663.61903483 776.190482584 2663.61903483 776.190482584 2655.80951742 c 132,-1,252
 776.190482584 2648 776.190482584 2648 766.095241292 2648 c 132,-1,253
 756 2648 756 2648 756 2666.13846009 c 132,-1,254
 756 2684.27692018 756 2684.27692018 759.861539911 2684.27692018 c 132,-1,250
 763.723079821 2684.27692018 763.723079821 2684.27692018 769.956781202 2673.94797751 c 132,-1,251
1063.52448852 2064.94900878 m 4,255,256
 1034.4141812 2064.94900878 1034.4141812 2064.94900878 1034.4141812 2024.63839511 c 4,257,258
 1034.4141812 2010.85374578 1034.4141812 2010.85374578 1055.36265335 2010.85374578 c 132,-1,259
 1076.31112549 2010.85374578 1076.31112549 2010.85374578 1076.31112549 2037.90137728 c 132,-1,260
 1076.31112549 2064.94900878 1076.31112549 2064.94900878 1063.52448852 2064.94900878 c 4,255,256
659.679242456 2835.788837 m 132,-1,262
 629.299185192 2835.788837 629.299185192 2835.788837 629.299185192 2842.8944185 c 132,-1,263
 629.299185192 2850 629.299185192 2850 659.679242456 2850 c 132,-1,264
 690.059299721 2850 690.059299721 2850 690.059299721 2842.8944185 c 132,-1,261
 690.059299721 2835.788837 690.059299721 2835.788837 659.679242456 2835.788837 c 132,-1,262
665.5 2812 m 132,-1,266
 671 2812 671 2812 671 2798.73081146 c 4,267,268
 671 2768 671 2768 641.5 2768 c 4,269,270
 627.691882493 2768 627.691882493 2768 627.691882493 2775.19211281 c 132,-1,271
 627.691882493 2782.38422562 627.691882493 2782.38422562 643.845941246 2797.19211281 c 132,-1,265
 660 2812 660 2812 665.5 2812 c 132,-1,266
542.951745879 428.380698352 m 132,-1,273
 560.254218421 435.301687368 560.254218421 435.301687368 560.254218421 437.387576166 c 132,-1,274
 560.254218421 439.473464963 560.254218421 439.473464963 510.108552084 466.163601381 c 5,275,276
 510.108552084 572 510.108552084 572 550 572 c 4,277,278
 576 572 576 572 624 520 c 132,-1,279
 672 468 672 468 672 442 c 132,-1,280
 672 416 672 416 626 372 c 132,-1,281
 580 328 580 328 570 328 c 4,282,283
 525.649273338 328 525.649273338 328 525.649273338 374.729854668 c 132,-1,272
 525.649273338 421.459709335 525.649273338 421.459709335 542.951745879 428.380698352 c 132,-1,273
947.389578813 986.326231759 m 5,284,285
 947.389578813 986.326231759 947.389578813 986.326231759 952.712824589 1043.53208538 c 132,-1,286
 958.036070366 1100.73793901 958.036070366 1100.73793901 976.518035183 1121.3689695 c 132,-1,287
 995 1142 995 1142 1005.80050556 1185.51060812 c 4,288,289
 1024.80053949 1262.05360196 1024.80053949 1262.05360196 1072.7385653 1262.05360196 c 4,290,291
 1085.85706145 1262.05360196 1085.85706145 1262.05360196 1101.14264389 1256.32150854 c 4,292,293
 1166 1232 1166 1232 1190.2508333 1159.24750011 c 132,-1,294
 1214.50166659 1086.49500022 1214.50166659 1086.49500022 1214.50166659 1055.2988519 c 132,-1,295
 1214.50166659 1024.10270358 1214.50166659 1024.10270358 1198.7508333 998.55135179 c 132,-1,296
 1183 973 1183 973 1183 910.5 c 132,-1,297
 1183 848 1183 848 1170.25 848 c 132,-1,298
 1157.5 848 1157.5 848 987.5 956 c 5,299,300
 947.389578813 956 947.389578813 956 947.389578813 986.326231759 c 5,284,285
1295 512 m 5,301,302
 1287 509 1287 509 1279 505 c 5,303,304
 1285 512 1285 512 1287.25 512 c 6,305,-1
 1295 512 l 5,301,302
1298 510 m 5,306,307
 1304 507 1304 507 1304 494 c 4,308,309
 1304 468 1304 468 1280 468 c 5,310,-1
 1268 480 l 5,311,312
 1272 494 1272 494 1277 502 c 5,313,314
 1287 506 1287 506 1298 510 c 5,306,307
EndSplineSet
EndChar

StartChar: percent
Encoding: 37 37 8
Width: 2000
GlyphClass: 1
Flags: W
LayerCount: 2
Fore
SplineSet
518 1128 m 132,-1,1
 500 1128 500 1128 500 1148 c 132,-1,2
 500 1168 500 1168 529.350834874 1168 c 132,-1,3
 558.701669749 1168 558.701669749 1168 558.701669749 1160.61203875 c 132,-1,4
 558.701669749 1153.2240775 558.701669749 1153.2240775 547.350834874 1140.61203875 c 132,-1,0
 536 1128 536 1128 518 1128 c 132,-1,1
540 1326 m 132,-1,6
 540 1336 540 1336 550 1336 c 132,-1,7
 560 1336 560 1336 560 1326 c 132,-1,8
 560 1316 560 1316 550 1316 c 132,-1,5
 540 1316 540 1316 540 1326 c 132,-1,6
509.084531292 2033.02493602 m 4,9,10
 544 2033.02493602 544 2033.02493602 544 2004.07643646 c 132,-1,11
 544 1975.1279369 544 1975.1279369 512.345952678 1975.1279369 c 4,12,13
 500 1975.1279369 500 1975.1279369 500 2004.07643646 c 132,-1,14
 500 2033.02493602 500 2033.02493602 509.084531292 2033.02493602 c 4,9,10
1975 2712 m 5,15,16
 1975 2712 1975 2712 1919.92502443 2743.24760517 c 5,17,18
 1909.60404422 2743.24760517 1909.60404422 2743.24760517 1888.7907132 2742.15726085 c 132,-1,19
 1867.97738217 2741.06691652 1867.97738217 2741.06691652 1839.63415794 2758.96790025 c 132,-1,20
 1811.29093371 2776.86888397 1811.29093371 2776.86888397 1805.64546685 2776.86888397 c 132,-1,21
 1800 2776.86888397 1800 2776.86888397 1800 2765.43444198 c 132,-1,22
 1800 2754 1800 2754 1892 2608 c 5,23,24
 1892 2528 1892 2528 1657.20630833 2528 c 4,25,26
 1616 2528 1616 2528 1616 2524 c 132,-1,27
 1616 2520 1616 2520 1824 2392 c 5,28,29
 1824 2355.18362751 1824 2355.18362751 1796.141197 2355.18362751 c 5,30,31
 1796.141197 2355.18362751 1796.141197 2355.18362751 1705.6651272 2380 c 5,32,33
 1676 2380 1676 2380 1676 2358 c 132,-1,34
 1676 2336 1676 2336 1696.61825064 2308.50899915 c 132,-1,35
 1717.23650127 2281.0179983 1717.23650127 2281.0179983 1717.23650127 2260.00654483 c 132,-1,36
 1717.23650127 2238.99509137 1717.23650127 2238.99509137 1674.61825064 2223.49754568 c 132,-1,37
 1632 2208 1632 2208 1630 2140 c 132,-1,38
 1628 2072 1628 2072 1597 2066 c 5,39,-1
 1534.5 2059 l 6,40,41
 1472 2052 1472 2052 1472 2006.55001924 c 4,42,43
 1472 1976 1472 1976 1441.44209168 1964.11636899 c 132,-1,44
 1410.88418337 1952.23273798 1410.88418337 1952.23273798 1410.88418337 1931.52591739 c 132,-1,45
 1410.88418337 1910.81909681 1410.88418337 1910.81909681 1418.56580978 1843.62764364 c 5,46,47
 1418.56580978 1764.23641242 1418.56580978 1764.23641242 1353.28290489 1726.11820621 c 132,-1,48
 1288 1688 1288 1688 1272 1656 c 132,-1,49
 1256 1624 1256 1624 1226 1614 c 132,-1,50
 1196 1604 1196 1604 1180 1558 c 132,-1,51
 1164 1512 1164 1512 1164 1470 c 132,-1,52
 1164 1428 1164 1428 1199.23288097 1428 c 4,53,54
 1220 1428 1220 1428 1244 1448 c 132,-1,55
 1268 1468 1268 1468 1272 1494 c 132,-1,56
 1276 1520 1276 1520 1295.04522225 1536.92908645 c 132,-1,57
 1314.09044451 1553.8581729 1314.09044451 1553.8581729 1324.99143624 1553.8581729 c 132,-1,58
 1335.89242796 1553.8581729 1335.89242796 1553.8581729 1342.89074132 1537.06222084 c 132,-1,59
 1349.88905468 1520.26626878 1349.88905468 1520.26626878 1370.24282722 1520.26626878 c 132,-1,60
 1390.59659976 1520.26626878 1390.59659976 1520.26626878 1433.29829988 1554.13313439 c 132,-1,61
 1476 1588 1476 1588 1491.30068445 1588 c 132,-1,62
 1506.6013689 1588 1506.6013689 1588 1663.31565172 1607.68841944 c 5,63,64
 1749.0042891 1607.68841944 1749.0042891 1607.68841944 1764.50214455 1565.84420972 c 132,-1,65
 1780 1524 1780 1524 1850 1520 c 132,-1,66
 1920 1516 1920 1516 1958 1452 c 132,-1,67
 1996 1388 1996 1388 2038 1366 c 132,-1,68
 2080 1344 2080 1344 2080 1294 c 132,-1,69
 2080 1244 2080 1244 2066.7984914 1221.55743538 c 132,-1,70
 2053.5969828 1199.11487076 2053.5969828 1199.11487076 2053.5969828 1183.78049572 c 132,-1,71
 2053.5969828 1168.44612067 2053.5969828 1168.44612067 2082.7984914 1152.22306033 c 132,-1,72
 2112 1136 2112 1136 2112 1075 c 132,-1,73
 2112 1014 2112 1014 2099.99983643 945.229831863 c 4,74,75
 2060 716 2060 716 1976.00444266 716 c 4,76,77
 1933.90143282 716 1933.90143282 716 1933.90143282 663.049283588 c 132,-1,78
 1933.90143282 610.098567176 1933.90143282 610.098567176 1961.29256823 582.707431775 c 132,-1,79
 1988.68370363 555.316296374 1988.68370363 555.316296374 1988.68370363 538.408748911 c 132,-1,80
 1988.68370363 521.501201448 1988.68370363 521.501201448 1919.63401909 521.501201448 c 132,-1,81
 1850.58433454 521.501201448 1850.58433454 521.501201448 1793.29216727 452.750600724 c 132,-1,82
 1736 384 1736 384 1710 384 c 132,-1,83
 1684 384 1684 384 1684 406 c 132,-1,84
 1684 428 1684 428 1643.66666666 428 c 132,-1,85
 1603.33333333 428 1603.33333333 428 1568.79538773 386.554465277 c 132,-1,86
 1534.25744213 345.108930555 1534.25744213 345.108930555 1515.03494159 345.108930555 c 132,-1,87
 1495.81244105 345.108930555 1495.81244105 345.108930555 1402.75100638 372 c 5,88,89
 1344.5 372 1344.5 372 1152 464 c 5,90,-1
 1144 464 l 5,91,-1
 1136 460 l 5,92,93
 1036 460 1036 460 1036 541.069954242 c 4,94,95
 1036 564 1036 564 1044 605 c 5,96,97
 1044 668 1044 668 956 668 c 5,98,-1
 948 664 l 5,99,100
 905.973718661 664 905.973718661 664 905.973718661 702.717715877 c 132,-1,101
 905.973718661 741.435431754 905.973718661 741.435431754 948 772 c 6,102,-1
 996 808 l 5,103,-1
 948 852 l 5,104,105
 882.803059295 902.708731659 882.803059295 902.708731659 882.803059295 919.35436583 c 132,-1,106
 882.803059295 936 882.803059295 936 910.904100008 936 c 4,107,108
 1004 936 1004 936 1034.19436604 1080.8097147 c 4,109,110
 1041.67893024 1116.70507361 1041.67893024 1116.70507361 1041.67893024 1151.1698136 c 132,-1,111
 1041.67893024 1185.63455359 1041.67893024 1185.63455359 1026.83946512 1204.81727679 c 132,-1,112
 1012 1224 1012 1224 1012 1246.30527338 c 4,113,114
 1012 1316 1012 1316 1134.57296226 1316 c 4,115,116
 1192.42306645 1316 1192.42306645 1316 1192.42306645 1327.99923475 c 132,-1,117
 1192.42306645 1339.9984695 1192.42306645 1339.9984695 1167.15318695 1359.20357792 c 132,-1,118
 1141.88330746 1378.40868633 1141.88330746 1378.40868633 1091.96142712 1378.40868633 c 132,-1,119
 1042.03954678 1378.40868633 1042.03954678 1378.40868633 982.260600081 1338.68676802 c 132,-1,120
 922.481653383 1298.96484971 922.481653383 1298.96484971 922.481653383 1290.24159817 c 132,-1,121
 922.481653383 1281.51834662 922.481653383 1281.51834662 929.240826691 1274.75917331 c 132,-1,122
 936 1268 936 1268 948 1188 c 5,123,-1
 956 1116 l 5,124,-1
 864 1124 l 6,125,126
 846.111992966 1126.33321831 846.111992966 1126.33321831 831.812600372 1126.33321831 c 4,127,128
 774.834445729 1126.33321831 774.834445729 1126.33321831 774.834445729 1089.28759086 c 4,129,130
 774.834445729 1068.81588799 774.834445729 1068.81588799 790.951786561 1057.53374941 c 132,-1,131
 807.069127392 1046.25161083 807.069127392 1046.25161083 807.069127392 1028.7512968 c 132,-1,132
 807.069127392 1011.25098277 807.069127392 1011.25098277 802.449201715 947.027758154 c 132,-1,133
 797.829276037 882.804533539 797.829276037 882.804533539 813.244388534 862.110272926 c 132,-1,134
 828.659501032 841.416012313 828.659501032 841.416012313 828.659501032 828.531401694 c 4,135,136
 828.659501032 790.420195554 828.659501032 790.420195554 733 768 c 5,137,138
 648 768 648 768 648 703.909197149 c 4,139,140
 648 652 648 652 598.504037556 626.352092189 c 132,-1,141
 549.008075113 600.704184377 549.008075113 600.704184377 549.008075113 569.498167971 c 5,142,143
 549.008075113 569.498167971 549.008075113 569.498167971 554.266437872 539.477166951 c 5,144,145
 554.266437872 515.304745562 554.266437872 515.304745562 515.681964694 512.548711764 c 4,146,147
 444 507.428571429 444 507.428571429 444 424 c 5,148,-1
 448 420 l 5,149,-1
 448 412 l 5,150,151
 454.56096663 402.158550056 454.56096663 402.158550056 454.56096663 395.079275028 c 132,-1,152
 454.56096663 388 454.56096663 388 436.860976316 388 c 132,-1,153
 419.160986001 388 419.160986001 388 419.160986001 366.433670278 c 5,154,155
 419.160986001 366.433670278 419.160986001 366.433670278 421.785378231 332.915705067 c 132,-1,156
 424.409770462 299.397739857 424.409770462 299.397739857 403.508996936 275.710196527 c 132,-1,157
 382.608223409 252.022653197 382.608223409 252.022653197 382.608223409 234.864261797 c 132,-1,158
 382.608223409 217.705870397 382.608223409 217.705870397 391.752255945 157.431116146 c 5,159,160
 391.752255945 132 391.752255945 132 337.876127973 132 c 132,-1,161
 284 132 284 132 213.205568642 59.1828706034 c 132,-1,162
 142.411137284 -13.6342587931 142.411137284 -13.6342587931 121.157288209 -13.6342587931 c 132,-1,163
 99.9034391344 -13.6342587931 99.9034391344 -13.6342587931 96 82 c 5,164,-1
 84 274 l 5,165,166
 84 341 84 341 174 436.5 c 132,-1,167
 264 532 264 532 266 586 c 132,-1,168
 268 640 268 640 340.919719549 712.919719549 c 132,-1,169
 413.839439098 785.839439098 413.839439098 785.839439098 413.839439098 865.836071038 c 6,170,171
 413.839439098 865.836071038 413.839439098 865.836071038 413.782678272 901.893554075 c 132,-1,172
 413.725917445 937.951037112 413.725917445 937.951037112 458.862958723 988.975518556 c 132,-1,173
 504 1040 504 1040 530 1040 c 132,-1,174
 556 1040 556 1040 598.199284681 1075.9475388 c 132,-1,175
 640.398569362 1111.8950776 640.398569362 1111.8950776 640.398569362 1168.0115334 c 5,176,177
 640.398569362 1168.0115334 640.398569362 1168.0115334 621.176471277 1259.87006463 c 5,178,179
 621.176471277 1316 621.176471277 1316 694.432476025 1316 c 132,-1,180
 767.688480773 1316 767.688480773 1316 767.688480773 1333.45605303 c 132,-1,181
 767.688480773 1350.91210606 767.688480773 1350.91210606 723.844240387 1385.45605303 c 132,-1,182
 680 1420 680 1420 680 1452 c 132,-1,183
 680 1484 680 1484 735.05556581 1484 c 4,184,185
 836 1484 836 1484 836 1593.44188268 c 4,186,187
 836 1676 836 1676 778.557302196 1676 c 4,188,189
 752 1676 752 1676 752 1658 c 132,-1,190
 752 1640 752 1640 723.271911706 1631.79197477 c 4,191,192
 668 1616 668 1616 668 1548.06165881 c 4,193,194
 668 1469.04115544 668 1469.04115544 593.22538388 1469.04115544 c 5,195,196
 593.22538388 1469.04115544 593.22538388 1469.04115544 538.111563847 1474.3520309 c 132,-1,197
 482.997743814 1479.66290636 482.997743814 1479.66290636 473.498871907 1463.83145318 c 132,-1,198
 464 1448 464 1448 426 1448 c 132,-1,199
 388 1448 388 1448 337.06773851 1457.50735548 c 4,200,201
 88 1504 88 1504 -42.9908346718 1671.66826838 c 4,202,203
 -112 1760 -112 1760 -112 1816 c 132,-1,204
 -112 1872 -112 1872 -92.9062950993 1884.7291366 c 132,-1,205
 -73.8125901986 1897.4582732 -73.8125901986 1897.4582732 -73.8125901986 1932.2869667 c 132,-1,206
 -73.8125901986 1967.11566021 -73.8125901986 1967.11566021 -85.020996369 2109.00141238 c 5,207,208
 -85.020996369 2152.49650061 -85.020996369 2152.49650061 -50.5104981845 2158.24825031 c 132,-1,209
 -16 2164 -16 2164 42 2270 c 132,-1,210
 100 2376 100 2376 100 2444 c 132,-1,211
 100 2512 100 2512 152.929839819 2512 c 5,212,213
 152.929839819 2512 152.929839819 2512 191.487493906 2509.88573274 c 132,-1,214
 230.045147992 2507.77146548 230.045147992 2507.77146548 360 2644 c 5,215,216
 388 2644 388 2644 410.527457321 2607.13688802 c 132,-1,217
 433.054914642 2570.27377604 433.054914642 2570.27377604 453.253802444 2570.27377604 c 132,-1,218
 473.452690245 2570.27377604 473.452690245 2570.27377604 511.100232035 2629.20036319 c 132,-1,219
 548.747773826 2688.12695034 548.747773826 2688.12695034 570.14680018 2688.12695034 c 4,220,221
 622.768162759 2688.12695034 622.768162759 2688.12695034 625.564328532 2624.28116518 c 132,-1,222
 628.360494305 2560.43538003 628.360494305 2560.43538003 650.307144795 2560.43538003 c 132,-1,223
 672.253795286 2560.43538003 672.253795286 2560.43538003 708.126897643 2592.21769001 c 132,-1,224
 744 2624 744 2624 778.083221045 2624 c 4,225,226
 836 2624 836 2624 836 2536.90261575 c 132,-1,227
 836 2449.8052315 836 2449.8052315 854.28062666 2449.8052315 c 132,-1,228
 872.56125332 2449.8052315 872.56125332 2449.8052315 890.69328776 2472.88236624 c 132,-1,229
 908.845224967 2495.98483178 908.845224967 2495.98483178 920.430196594 2495.98483178 c 132,-1,230
 932.015168221 2495.98483178 932.015168221 2495.98483178 974.00758411 2453.99241589 c 132,-1,231
 1016 2412 1016 2412 1016 2382 c 132,-1,232
 1016 2352 1016 2352 968.58925597 2352 c 132,-1,233
 921.178511939 2352 921.178511939 2352 921.178511939 2319.97619841 c 132,-1,234
 921.178511939 2287.95239682 921.178511939 2287.95239682 964.885083995 2276.29731093 c 132,-1,235
 1008.59165605 2264.64222505 1008.59165605 2264.64222505 1008.59165605 2224.23751579 c 132,-1,236
 1008.59165605 2183.83280653 1008.59165605 2183.83280653 980.295828025 2167.91640327 c 132,-1,237
 952 2152 952 2152 952 2096 c 132,-1,238
 952 2040 952 2040 965.931737831 2030.24778352 c 132,-1,239
 979.863475663 2020.49556704 979.863475663 2020.49556704 979.863475663 2005.62832472 c 132,-1,240
 979.863475663 1990.76108241 979.863475663 1990.76108241 961.931737831 1959.38054121 c 132,-1,241
 944 1928 944 1928 944 1896 c 132,-1,242
 944 1864 944 1864 917.927666762 1864 c 4,243,244
 906.257632534 1864 906.257632534 1864 906.257632534 1858.78530622 c 4,245,246
 906.257632534 1833.08994899 906.257632534 1833.08994899 939.928552239 1833.08994899 c 132,-1,247
 973.599471944 1833.08994899 973.599471944 1833.08994899 1000.79973597 1882.5449745 c 132,-1,248
 1028 1932 1028 1932 1087.77847934 1960.76558404 c 132,-1,249
 1147.55695867 1989.53116808 1147.55695867 1989.53116808 1147.55695867 2050.48650695 c 5,250,251
 1147.55695867 2050.48650695 1147.55695867 2050.48650695 1145.77847934 2076.24325348 c 132,-1,252
 1144 2102 1144 2102 1324 2290 c 5,253,254
 1324 2332 1324 2332 1295.17224271 2332 c 132,-1,255
 1266.34448542 2332 1266.34448542 2332 1266.34448542 2389.25287241 c 132,-1,256
 1266.34448542 2446.50574482 1266.34448542 2446.50574482 1316.01725686 2446.50574482 c 5,257,258
 1316.01725686 2446.50574482 1316.01725686 2446.50574482 1327.78252123 2446.16784863 c 4,259,260
 1364 2446.16784863 1364 2446.16784863 1364 2477.08392432 c 132,-1,261
 1364 2508 1364 2508 1412 2564 c 132,-1,262
 1460 2620 1460 2620 1482.95210165 2627.17253176 c 132,-1,263
 1505.9042033 2634.34506353 1505.9042033 2634.34506353 1505.9042033 2644.42930698 c 132,-1,264
 1505.9042033 2654.51355043 1505.9042033 2654.51355043 1471.31815999 2757.7600706 c 5,265,266
 1471.31815999 2796 1471.31815999 2796 1523.65907999 2796 c 132,-1,267
 1576 2796 1576 2796 1576 2822 c 132,-1,268
 1576 2848 1576 2848 1642 2926 c 132,-1,269
 1708 3004 1708 3004 1730 3004 c 132,-1,270
 1752 3004 1752 3004 1822 2926 c 132,-1,271
 1892 2848 1892 2848 1892 2822 c 132,-1,272
 1892 2796 1892 2796 1901.85882291 2796 c 4,273,274
 1924 2796 1924 2796 1948 2756 c 132,-1,275
 1972 2716 1972 2716 1975 2712 c 5,15,16
566.719938327 1845.7974808 m 5,276,277
 593.277932278 1845.7974808 593.277932278 1845.7974808 598.638966139 1886.8987404 c 132,-1,278
 604 1928 604 1928 630.058547577 1981.74575438 c 132,-1,279
 656.117095154 2035.49150876 656.117095154 2035.49150876 656.117095154 2053.62535577 c 132,-1,280
 656.117095154 2071.75920278 656.117095154 2071.75920278 651.74543017 2101.82983274 c 132,-1,281
 647.373765187 2131.9004627 647.373765187 2131.9004627 663.630085183 2149.31794841 c 132,-1,282
 679.886405179 2166.73543412 679.886405179 2166.73543412 679.886405179 2189.7548553 c 132,-1,283
 679.886405179 2212.77427647 679.886405179 2212.77427647 664.065238884 2241.02635914 c 132,-1,284
 648.244072588 2269.27844181 648.244072588 2269.27844181 648.244072588 2284.24574756 c 132,-1,285
 648.244072588 2299.21305332 648.244072588 2299.21305332 651.731877164 2329.59832594 c 132,-1,286
 655.219681739 2359.98359855 655.219681739 2359.98359855 645.609840869 2367.99179927 c 132,-1,287
 636 2376 636 2376 572 2388 c 132,-1,288
 508 2400 508 2400 494 2420 c 132,-1,289
 480 2440 480 2440 462.106446783 2440 c 4,290,291
 412 2440 412 2440 410.028992676 2345.39164843 c 132,-1,292
 408.057985351 2250.78329685 408.057985351 2250.78329685 375.669433569 2250.78329685 c 4,293,294
 361.21670315 2250.78329685 361.21670315 2250.78329685 342.608351575 2269.39164843 c 132,-1,295
 324 2288 324 2288 297.235945381 2288 c 4,296,297
 224 2288 224 2288 224 2110 c 132,-1,298
 224 1932 224 1932 115.231522287 1932 c 4,299,300
 78.0377674664 1932 78.0377674664 1932 78.0377674664 1909.66037209 c 132,-1,301
 78.0377674664 1887.32074418 78.0377674664 1887.32074418 109.327733114 1876.89075563 c 132,-1,302
 140.617698761 1866.46076708 140.617698761 1866.46076708 147.718066219 1866.46076708 c 132,-1,303
 154.818433676 1866.46076708 154.818433676 1866.46076708 177.952559906 1869.06854943 c 132,-1,304
 201.086686137 1871.67633178 201.086686137 1871.67633178 220.543343069 1839.83816589 c 132,-1,305
 240 1808 240 1808 242.360004409 1763.15991623 c 132,-1,306
 244.720008818 1718.31983246 244.720008818 1718.31983246 276.424878139 1718.31983246 c 4,307,308
 287.889127666 1718.31983246 287.889127666 1718.31983246 300.268515611 1738.43633787 c 132,-1,309
 312.647903555 1758.55284328 312.647903555 1758.55284328 331.476013451 1758.55284328 c 132,-1,310
 350.304123347 1758.55284328 350.304123347 1758.55284328 397.931939789 1757.37308412 c 132,-1,311
 445.559756231 1756.19332497 445.559756231 1756.19332497 477.497119034 1803.25891226 c 132,-1,312
 509.434481837 1850.32449955 509.434481837 1850.32449955 539.226113887 1850.32449955 c 5,313,314
 539.226113887 1850.32449955 539.226113887 1850.32449955 566.719938327 1845.7974808 c 5,276,277
881.299736301 2032 m 4,315,316
 838.27798311 2032 838.27798311 2032 838.27798311 1984.46892376 c 4,317,318
 838.27798311 1971.07244549 838.27798311 1971.07244549 852.001297833 1971.07244549 c 132,-1,319
 865.724612555 1971.07244549 865.724612555 1971.07244549 882.862306278 1983.53622275 c 132,-1,320
 900 1996 900 1996 900 2014 c 132,-1,321
 900 2032 900 2032 881.299736301 2032 c 4,315,316
856 1772 m 5,322,323
 838.005587562 1767.50139689 838.005587562 1767.50139689 838.005587562 1743.75069845 c 132,-1,324
 838.005587562 1720 838.005587562 1720 859.002793781 1720 c 132,-1,325
 880 1720 880 1720 880 1742 c 132,-1,326
 880 1764 880 1764 856 1772 c 5,322,323
1696 956 m 132,-1,328
 1720 980 1720 980 1720 988 c 132,-1,329
 1720 996 1720 996 1645.60400737 1153.07486332 c 5,330,331
 1645.60400737 1168 1645.60400737 1168 1654.80200369 1168 c 132,-1,332
 1664 1168 1664 1168 1688.08266499 1150.79809644 c 132,-1,333
 1712.16532997 1133.59619288 1712.16532997 1133.59619288 1729.51947697 1133.59619288 c 4,334,335
 1760 1133.59619288 1760 1133.59619288 1760 1201.02010729 c 132,-1,336
 1760 1268.4440217 1760 1268.4440217 1712.5997608 1268.4440217 c 5,337,338
 1712.5997608 1268.4440217 1712.5997608 1268.4440217 1674.85625841 1264.39498967 c 132,-1,339
 1637.11275601 1260.34595764 1637.11275601 1260.34595764 1629.60661594 1287.24295954 c 4,340,341
 1616 1336 1616 1336 1516 1336 c 132,-1,342
 1416 1336 1416 1336 1416 1259.21283858 c 4,343,344
 1416 1232.02834185 1416 1232.02834185 1431.84632335 1232.02834185 c 132,-1,345
 1447.6926467 1232.02834185 1447.6926467 1232.02834185 1488 1276 c 5,346,-1
 1528 1324 l 5,347,-1
 1560 1272 l 5,348,349
 1593.30081301 1219.96747967 1593.30081301 1219.96747967 1593.30081301 1195.98373984 c 132,-1,350
 1593.30081301 1172 1593.30081301 1172 1565 1172 c 5,351,-1
 1506.5 1176 l 6,352,353
 1501.43765385 1176.34614333 1501.43765385 1176.34614333 1472.58741053 1176.34614333 c 132,-1,354
 1443.73716721 1176.34614333 1443.73716721 1176.34614333 1403.8685836 1142.17307166 c 132,-1,355
 1364 1108 1364 1108 1332.5861995 1108 c 4,356,357
 1264 1108 1264 1108 1212.27616007 966.060160181 c 4,358,359
 1194.03167683 915.993903851 1194.03167683 915.993903851 1194.03167683 893.996951926 c 132,-1,360
 1194.03167683 872 1194.03167683 872 1209.01583841 872 c 132,-1,361
 1224 872 1224 872 1243.69233734 903.179534118 c 132,-1,362
 1263.38467468 934.359068237 1263.38467468 934.359068237 1299.34590609 934.359068237 c 132,-1,363
 1335.30713749 934.359068237 1335.30713749 934.359068237 1335.30713749 918.528538788 c 132,-1,364
 1335.30713749 902.69800934 1335.30713749 902.69800934 1313.09832787 889.952083819 c 4,365,366
 1236.91420498 846.229021989 1236.91420498 846.229021989 1236.91420498 726.699393231 c 4,367,368
 1236.91420498 694.354431043 1236.91420498 694.354431043 1250.89207521 669.194264626 c 132,-1,369
 1264.86994544 644.034098208 1264.86994544 644.034098208 1317.89571785 644.034098208 c 132,-1,370
 1370.92149026 644.034098208 1370.92149026 644.034098208 1377.46074513 662.017049104 c 132,-1,371
 1384 680 1384 680 1450 708 c 4,372,373
 1666.71763255 799.94081381 1666.71763255 799.94081381 1670.63290697 897.822674218 c 4,374,327
 1672 932 1672 932 1696 956 c 132,-1,328
312 234 m 132,-1,376
 312 240 312 240 298.077037207 240 c 4,377,378
 268 240 268 240 268 212 c 4,379,380
 268 198.50068878 268 198.50068878 275.25034439 198.50068878 c 132,-1,381
 282.50068878 198.50068878 282.50068878 198.50068878 297.25034439 213.25034439 c 132,-1,375
 312 228 312 228 312 234 c 132,-1,376
1715.5 3078 m 132,-1,383
 1724 3078 1724 3078 1724 3063 c 132,-1,384
 1724 3048 1724 3048 1698.5 3048 c 132,-1,385
 1673 3048 1673 3048 1673 3053 c 132,-1,386
 1673 3058 1673 3058 1690 3068 c 132,-1,382
 1707 3078 1707 3078 1715.5 3078 c 132,-1,383
1975 2712 m 5,387,388
 1975.5 2711 1975.5 2711 1975.75 2711 c 132,-1,389
 1976 2711 1976 2711 1976 2712 c 5,390,-1
 1975 2712 l 5,387,388
EndSplineSet
EndChar

StartChar: ampersand
Encoding: 38 38 9
Width: 2000
GlyphClass: 1
Flags: W
LayerCount: 2
Fore
SplineSet
1779 400 m 5,0,1
 1801.19387175 385.204085498 1801.19387175 385.204085498 1801.19387175 368.958173192 c 132,-1,2
 1801.19387175 352.712260885 1801.19387175 352.712260885 1794.58828949 352.712260885 c 132,-1,3
 1787.98270723 352.712260885 1787.98270723 352.712260885 1773.81049394 369.064814691 c 132,-1,4
 1759.63828064 385.417368497 1759.63828064 385.417368497 1759.63828064 392.708684248 c 132,-1,5
 1759.63828064 400 1759.63828064 400 1771 400 c 6,6,-1
 1779 400 l 5,0,1
1547.8783972 932.446828284 m 4,7,8
 1547.8783972 976 1547.8783972 976 1599.4391986 976 c 132,-1,9
 1651 976 1651 976 1651 928 c 132,-1,10
 1651 880 1651 880 1599.4391986 880 c 132,-1,11
 1547.8783972 880 1547.8783972 880 1547.8783972 932.446828284 c 4,7,8
1039 1492.66172119 m 132,-1,13
 1039 1521.32344238 1039 1521.32344238 1046.33827881 1521.32344238 c 132,-1,14
 1053.67655762 1521.32344238 1053.67655762 1521.32344238 1067.37645173 1507.62354827 c 132,-1,15
 1081.07634584 1493.92365416 1081.07634584 1493.92365416 1081.07634584 1471.69461662 c 4,16,17
 1081.07634584 1464 1081.07634584 1464 1060.03817292 1464 c 132,-1,12
 1039 1464 1039 1464 1039 1492.66172119 c 132,-1,13
488.633688479 893.731484862 m 4,18,19
 469.690215336 893.731484862 469.690215336 893.731484862 469.690215336 910.307164583 c 132,-1,20
 469.690215336 926.882844303 469.690215336 926.882844303 479.87377447 956.302015135 c 132,-1,21
 490.057333604 985.721185968 490.057333604 985.721185968 507.089908433 985.721185968 c 132,-1,22
 524.122483261 985.721185968 524.122483261 985.721185968 524.122483261 939.726335415 c 132,-1,23
 524.122483261 893.731484862 524.122483261 893.731484862 488.633688479 893.731484862 c 4,18,19
700.565217391 1033.19470699 m 4,24,25
 700.565217391 1016 700.565217391 1016 680.555335968 1016 c 132,-1,26
 660.545454545 1016 660.545454545 1016 660.545454545 1032.56198347 c 4,27,28
 660.545454545 1040 660.545454545 1040 680.555335968 1040 c 132,-1,29
 700.565217391 1040 700.565217391 1040 700.565217391 1033.19470699 c 4,24,25
471 1156 m 132,-1,31
 471 1188 471 1188 491 1188 c 132,-1,32
 511 1188 511 1188 511 1156 c 132,-1,33
 511 1124 511 1124 491 1124 c 132,-1,30
 471 1124 471 1124 471 1156 c 132,-1,31
827 2252 m 132,-1,35
 827 2264 827 2264 837 2264 c 132,-1,36
 847 2264 847 2264 847 2252 c 132,-1,37
 847 2240 847 2240 837 2240 c 132,-1,34
 827 2240 827 2240 827 2252 c 132,-1,35
1854.23136649 1156 m 5,38,39
 1854.23136649 1156 1854.23136649 1156 1569.38984833 1238.36416328 c 5,40,41
 1544.54798421 1238.36416328 1544.54798421 1238.36416328 1544.54798421 1221.71897859 c 4,42,43
 1544.54798421 1166.05015512 1544.54798421 1166.05015512 1595.64810525 1166.05015512 c 5,44,45
 1595.64810525 1166.05015512 1595.64810525 1166.05015512 1623.32405263 1166.80291588 c 132,-1,46
 1651 1167.55567664 1651 1167.55567664 1651 1137.77783832 c 132,-1,47
 1651 1108 1651 1108 1603.93807718 1101.5087003 c 4,48,49
 1535 1092 1535 1092 1523.03354289 1020.20125736 c 4,50,51
 1519 996 1519 996 1507 986 c 132,-1,52
 1495 976 1495 976 1415.44485635 976 c 132,-1,53
 1335.88971269 976 1335.88971269 976 1335.88971269 957.869614456 c 4,54,55
 1335.88971269 924.360967392 1335.88971269 924.360967392 1541.44485635 858.180483696 c 132,-1,56
 1747 792 1747 792 1775 788 c 5,57,58
 1775 788 1775 788 1761.03551996 846.363111728 c 5,59,60
 1761.03551996 858.622337654 1761.03551996 858.622337654 1790.01775998 858.622337654 c 132,-1,61
 1819 858.622337654 1819 858.622337654 1819 835.311168827 c 132,-1,62
 1819 812 1819 812 1915 604 c 5,63,-1
 1899 498 l 5,64,65
 1899 456 1899 456 1807.5 456 c 132,-1,66
 1716 456 1716 456 1703.71004692 462.643217882 c 132,-1,67
 1691.42009384 469.286435764 1691.42009384 469.286435764 1683.25192402 469.286435764 c 132,-1,68
 1675.0837542 469.286435764 1675.0837542 469.286435764 1662.50733785 447.726864876 c 132,-1,69
 1649.93092149 426.167293987 1649.93092149 426.167293987 1609.72661052 426.167293987 c 132,-1,70
 1569.52229955 426.167293987 1569.52229955 426.167293987 1540.26114977 469.083646993 c 132,-1,71
 1511 512 1511 512 1477 512 c 132,-1,72
 1443 512 1443 512 1443 517.133916218 c 4,73,74
 1443 530 1443 530 1335 630 c 5,75,76
 1335 660.546883837 1335 660.546883837 1290.91303111 660.546883837 c 132,-1,77
 1246.82606223 660.546883837 1246.82606223 660.546883837 1181.91303111 648.773441918 c 132,-1,78
 1117 637 1117 637 1100 620.5 c 132,-1,79
 1083 604 1083 604 1083 582 c 132,-1,80
 1083 560 1083 560 1056.04717882 548.901779514 c 132,-1,81
 1029.09435764 537.803559027 1029.09435764 537.803559027 1021.4943401 537.803559027 c 132,-1,82
 1013.89432257 537.803559027 1013.89432257 537.803559027 980.119919691 542.43549133 c 132,-1,83
 946.345516813 547.067423633 946.345516813 547.067423633 922.266021066 530.070132518 c 132,-1,84
 898.186525319 513.072841402 898.186525319 513.072841402 898.186525319 506.370109144 c 132,-1,85
 898.186525319 499.667376885 898.186525319 499.667376885 902.224983011 485.756033531 c 5,86,87
 902.224983011 468 902.224983011 468 802.612491505 468 c 132,-1,88
 703 468 703 468 676.856198266 422.886375002 c 4,89,90
 668.405799372 408.304405224 668.405799372 408.304405224 653.214785574 408.304405224 c 132,-1,91
 638.023771776 408.304405224 638.023771776 408.304405224 608.391724668 439.985464742 c 132,-1,92
 578.75967756 471.666524261 578.75967756 471.666524261 553.902836832 471.666524261 c 132,-1,93
 529.045996104 471.666524261 529.045996104 471.666524261 512.623013362 456.840220397 c 132,-1,94
 496.20003062 442.013916532 496.20003062 442.013916532 484.593057044 442.013916532 c 4,95,96
 455 442.013916532 455 442.013916532 455 469.006958266 c 132,-1,97
 455 496 455 496 397 544 c 132,-1,98
 339 592 339 592 279 626 c 132,-1,99
 219 660 219 660 175 712 c 132,-1,100
 131 764 131 764 131 782 c 132,-1,101
 131 800 131 800 101 924 c 132,-1,102
 71 1048 71 1048 49.3117953749 1068.13904715 c 132,-1,103
 27.6235907498 1088.2780943 27.6235907498 1088.2780943 27.6235907498 1099.12808756 c 132,-1,104
 27.6235907498 1109.97808083 27.6235907498 1109.97808083 62.0191132624 1247.47053603 c 5,105,106
 62.0191132624 1276.94971237 62.0191132624 1276.94971237 60.5095566312 1336.47485619 c 132,-1,107
 59 1396 59 1396 107 1484 c 132,-1,108
 155 1572 155 1572 203 1590 c 132,-1,109
 251 1608 251 1608 259 1656 c 132,-1,110
 267 1704 267 1704 307.324984451 1704 c 4,111,112
 360.895675967 1704 360.895675967 1704 360.895675967 1781.37839575 c 132,-1,113
 360.895675967 1858.7567915 360.895675967 1858.7567915 306.215277005 1883.45116522 c 132,-1,114
 251.534878043 1908.14553895 251.534878043 1908.14553895 251.534878043 1939.89667393 c 5,115,116
 251.534878043 1939.89667393 251.534878043 1939.89667393 253.389476952 1972.47036408 c 132,-1,117
 255.244075861 2005.04405423 255.244075861 2005.04405423 223.936810196 2057.69718285 c 132,-1,118
 192.629544531 2110.35031147 192.629544531 2110.35031147 192.629544531 2132.02565642 c 132,-1,119
 192.629544531 2153.70100137 192.629544531 2153.70100137 202.47482566 2199.63945123 c 132,-1,120
 212.320106789 2245.5779011 212.320106789 2245.5779011 207.926084118 2311.05498128 c 132,-1,121
 203.532061447 2376.53206145 203.532061447 2376.53206145 237.119928461 2410.11992847 c 132,-1,122
 270.707795476 2443.70779548 270.707795476 2443.70779548 270.707795476 2465.15693714 c 132,-1,123
 270.707795476 2486.60607879 270.707795476 2486.60607879 249.63019046 2576.67105872 c 5,124,125
 249.63019046 2589.42851138 249.63019046 2589.42851138 255.886793999 2589.42851138 c 4,126,127
 273.316397302 2589.42851138 273.316397302 2589.42851138 290.658198651 2574.71425569 c 132,-1,128
 308 2560 308 2560 330.698392281 2560 c 4,129,130
 383.573690205 2560 383.573690205 2560 383.573690205 2651.34643042 c 6,131,132
 383.573690205 2651.34643042 383.573690205 2651.34643042 383.566809129 2654.30862469 c 4,133,134
 383.566809129 2776 383.566809129 2776 476.853392102 2776 c 4,135,136
 531 2776 531 2776 531 2735.00188041 c 4,137,138
 531 2708 531 2708 554.487208226 2708 c 4,139,140
 591 2708 591 2708 593 2788 c 132,-1,141
 595 2868 595 2868 672.941294702 2906.97064735 c 4,142,143
 689.467541849 2915.23377092 689.467541849 2915.23377092 698.035176048 2915.23377092 c 132,-1,144
 706.602810246 2915.23377092 706.602810246 2915.23377092 706.602810246 2910.79208763 c 132,-1,145
 706.602810246 2906.35040435 706.602810246 2906.35040435 703.980811588 2868.49267634 c 132,-1,146
 701.358812929 2830.63494833 701.358812929 2830.63494833 729.1956754 2773.22141949 c 132,-1,147
 757.032537872 2715.80789064 757.032537872 2715.80789064 769.444227925 2715.80789064 c 132,-1,148
 781.855917979 2715.80789064 781.855917979 2715.80789064 804.427958989 2745.90394532 c 132,-1,149
 827 2776 827 2776 827 2782.96049227 c 132,-1,150
 827 2789.92098454 827 2789.92098454 834.726288974 2789.92098454 c 132,-1,151
 842.452577949 2789.92098454 842.452577949 2789.92098454 924.726288974 2714.96049227 c 132,-1,152
 1007 2640 1007 2640 1061.90309883 2640 c 4,153,154
 1131 2640 1131 2640 1162.96627664 2478.03753167 c 4,155,156
 1176 2412 1176 2412 1187.47053895 2397.19930458 c 132,-1,157
 1198.9410779 2382.39860916 1198.9410779 2382.39860916 1198.9410779 2376.52566424 c 132,-1,158
 1198.9410779 2370.65271932 1198.9410779 2370.65271932 1181.67642385 2315.65076591 c 5,159,160
 1181.67642385 2288.39108658 1181.67642385 2288.39108658 1227.21809067 2269.83707417 c 132,-1,161
 1272.75975748 2251.28306177 1272.75975748 2251.28306177 1272.75975748 2201.90341168 c 132,-1,162
 1272.75975748 2152.5237616 1272.75975748 2152.5237616 1215.87987874 2064.2618808 c 132,-1,163
 1159 1976 1159 1976 1159 1971.39440234 c 132,-1,164
 1159 1966.78880468 1159 1966.78880468 1159.69799734 1900.80780462 c 132,-1,165
 1160.39599469 1834.82680456 1160.39599469 1834.82680456 1139.69799734 1819.41340228 c 132,-1,166
 1119 1804 1119 1804 1055 1798 c 132,-1,167
 991 1792 991 1792 958.275672535 1746.80926207 c 132,-1,168
 925.55134507 1701.61852414 925.55134507 1701.61852414 925.55134507 1676.25982276 c 132,-1,169
 925.55134507 1650.90112138 925.55134507 1650.90112138 950.275672535 1617.45056069 c 132,-1,170
 975 1584 975 1584 975 1460 c 132,-1,171
 975 1336 975 1336 1049.24069923 1336 c 4,172,173
 1095 1336 1095 1336 1129.61272995 1287.13496948 c 132,-1,174
 1164.2254599 1238.26993896 1164.2254599 1238.26993896 1191.87005202 1238.26993896 c 132,-1,175
 1219.51464414 1238.26993896 1219.51464414 1238.26993896 1219.51464414 1308.70118298 c 6,176,177
 1219.51464414 1308.70118298 1219.51464414 1308.70118298 1219.50030554 1313.02836562 c 4,178,179
 1219.50030554 1388 1219.50030554 1388 1254.39840857 1388 c 4,180,181
 1299 1388 1299 1388 1361.53273606 1510.45994144 c 4,182,183
 1481 1744 1481 1744 1643 1744 c 5,184,-1
 1715 1760 l 6,185,186
 1727.53298977 1762.78510884 1727.53298977 1762.78510884 1763.87394047 1762.78510884 c 132,-1,187
 1800.21489116 1762.78510884 1800.21489116 1762.78510884 1851.60744558 1711.39255442 c 132,-1,188
 1903 1660 1903 1660 1903 1640 c 132,-1,189
 1903 1620 1903 1620 1925.66612552 1546.66841744 c 132,-1,190
 1948.33225104 1473.33683487 1948.33225104 1473.33683487 1948.33225104 1426.75127726 c 132,-1,191
 1948.33225104 1380.16571966 1948.33225104 1380.16571966 1927.66612552 1362.08285983 c 132,-1,192
 1907 1344 1907 1344 1903.5 1250 c 132,-1,193
 1900 1156 1900 1156 1854.23136649 1156 c 5,38,39
501.742078316 2246.01001823 m 5,194,195
 501.742078316 2223.65038998 501.742078316 2223.65038998 472.371039158 2195.82519499 c 132,-1,196
 443 2168 443 2168 443 2132 c 132,-1,197
 443 2096 443 2096 473 2094 c 132,-1,198
 503 2092 503 2092 541 2054 c 132,-1,199
 579 2016 579 2016 631 2008 c 132,-1,200
 683 2000 683 2000 712.281357003 1986.45737238 c 132,-1,201
 741.562714005 1972.91474477 741.562714005 1972.91474477 752.281357003 1972.91474477 c 132,-1,202
 763 1972.91474477 763 1972.91474477 763 1977.37693412 c 132,-1,203
 763 1981.83912347 763 1981.83912347 761.261021418 2004.72508204 c 5,204,205
 761.261021418 2076.25929191 761.261021418 2076.25929191 862.130510709 2118.12964595 c 132,-1,206
 963 2160 963 2160 963 2252 c 132,-1,207
 963 2344 963 2344 897 2380 c 132,-1,208
 831 2416 831 2416 808.536048556 2475.22314471 c 132,-1,209
 786.072097113 2534.44628943 786.072097113 2534.44628943 767.127998356 2534.44628943 c 132,-1,210
 748.1838996 2534.44628943 748.1838996 2534.44628943 706.0919498 2511.22314471 c 132,-1,211
 664 2488 664 2488 624.580380545 2488 c 4,212,213
 564 2488 564 2488 555.5 2428 c 132,-1,214
 547 2368 547 2368 513.339520415 2343.95680029 c 132,-1,215
 479.67904083 2319.91360059 479.67904083 2319.91360059 479.67904083 2310.05353959 c 132,-1,216
 479.67904083 2300.19347858 479.67904083 2300.19347858 501.742078316 2246.01001823 c 5,194,195
767 1934 m 132,-1,218
 767 1944 767 1944 757 1944 c 132,-1,219
 747 1944 747 1944 747 1934 c 132,-1,220
 747 1924 747 1924 757 1924 c 132,-1,217
 767 1924 767 1924 767 1934 c 132,-1,218
551 1514 m 132,-1,222
 551 1524 551 1524 541 1524 c 132,-1,223
 531 1524 531 1524 531 1514 c 132,-1,224
 531 1504 531 1504 541 1504 c 132,-1,221
 551 1504 551 1504 551 1514 c 132,-1,222
429.84039116 1344.59998042 m 132,-1,226
 384.60965402 1348 384.60965402 1348 384.60965402 1338.41185718 c 132,-1,227
 384.60965402 1328.82371437 384.60965402 1328.82371437 418.530976154 1239.80054396 c 5,228,229
 418.530976154 1219.53097615 418.530976154 1219.53097615 396.674105585 1197.67410559 c 132,-1,230
 374.817235016 1175.81723502 374.817235016 1175.81723502 374.817235016 1138.88827769 c 132,-1,231
 374.817235016 1101.95932036 374.817235016 1101.95932036 378.908617508 1018.97966018 c 132,-1,232
 383 936 383 936 443.650980267 875.349019733 c 132,-1,233
 504.301960533 814.698039467 504.301960533 814.698039467 587.925666094 814.698039467 c 4,234,235
 619 814.698039467 619 814.698039467 619 869.349019733 c 132,-1,236
 619 924 619 924 666.744850375 924 c 4,237,238
 695 924 695 924 724.173046434 898.47358437 c 132,-1,239
 753.346092868 872.94716874 753.346092868 872.94716874 781.733418258 872.94716874 c 4,240,241
 908.803860262 872.94716874 908.803860262 872.94716874 966.227770164 983.257550739 c 4,242,243
 986.372411758 1021.95507435 986.372411758 1021.95507435 986.372411758 1047.82523017 c 4,244,245
 986.372411758 1100 986.372411758 1100 906.686205879 1100 c 132,-1,246
 827 1100 827 1100 827 1146.59823176 c 4,247,248
 827 1176 827 1176 786.5 1212.5 c 132,-1,249
 746 1249 746 1249 727 1344 c 5,250,251
 687.830815264 1236.28474198 687.830815264 1236.28474198 658.191083852 1236.28474198 c 132,-1,252
 628.55135244 1236.28474198 628.55135244 1236.28474198 628.55135244 1289.05594954 c 5,253,254
 628.55135244 1289.05594954 628.55135244 1289.05594954 659 1380 c 5,255,256
 659 1396 659 1396 609 1396 c 132,-1,257
 559 1396 559 1396 535.024982869 1368.59998042 c 132,-1,258
 511.049965738 1341.19996084 511.049965738 1341.19996084 493.060547019 1341.19996084 c 132,-1,225
 475.0711283 1341.19996084 475.0711283 1341.19996084 429.84039116 1344.59998042 c 132,-1,226
EndSplineSet
EndChar

StartChar: quotesingle
Encoding: 39 39 10
AltUni2: 00201a.ffffffff.0 002019.ffffffff.0 002018.ffffffff.0 00201a.ffffffff.0 002019.ffffffff.0 002018.ffffffff.0
Width: 2000
GlyphClass: 1
Flags: W
LayerCount: 2
Fore
SplineSet
1387 2195 m 5,0,1
 1387 2180.5209534 1387 2180.5209534 1381.7887472 2180.5209534 c 132,-1,2
 1376.57749439 2180.5209534 1376.57749439 2180.5209534 1308.52567889 2206.77282022 c 5,3,4
 1275.05457162 2206.77282022 1275.05457162 2206.77282022 1260.51397848 2155.11544988 c 4,5,6
 1256.0249849 2139.16770953 1256.0249849 2139.16770953 1256.0249849 2127.83447242 c 4,7,8
 1256.0249849 2100 1256.0249849 2100 1283.10238878 2100 c 4,9,10
 1326 2100 1326 2100 1326 2035.5 c 132,-1,11
 1326 1971 1326 1971 1295.25957571 1969.14816721 c 4,12,13
 1243 1966 1243 1966 1243 1789 c 132,-1,14
 1243 1612 1243 1612 1183.03606233 1612 c 4,15,16
 1163 1612 1163 1612 1163 1590.5 c 132,-1,17
 1163 1569 1163 1569 1138.59460982 1569 c 4,18,19
 1102 1569 1102 1569 1102 1520.93600054 c 132,-1,20
 1102 1472.87200108 1102 1472.87200108 1076.73541998 1472.87200108 c 4,21,22
 1066.99387168 1472.87200108 1066.99387168 1472.87200108 1056.3890056 1490.05919783 c 132,-1,23
 1045.78413951 1507.24639458 1045.78413951 1507.24639458 1032.5313844 1507.24639458 c 132,-1,24
 1019.2786293 1507.24639458 1019.2786293 1507.24639458 974.976877683 1504.27640212 c 132,-1,25
 930.675126066 1501.30640965 930.675126066 1501.30640965 895.337563033 1544.15320483 c 132,-1,26
 860 1587 860 1587 808.001658924 1587 c 4,27,28
 741 1587 741 1587 741 1661.48526126 c 5,29,30
 741 1661.48526126 741 1661.48526126 760.145924202 1758.80268152 c 5,31,32
 760.145924202 1805.28932662 760.145924202 1805.28932662 734.882820397 1856.68667574 c 132,-1,33
 709.619716592 1908.08402486 709.619716592 1908.08402486 709.619716592 1928.04201243 c 132,-1,34
 709.619716592 1948 709.619716592 1948 732.309858296 1948 c 132,-1,35
 755 1948 755 1948 755 1982.5 c 132,-1,36
 755 2017 755 2017 733.781241915 2042.31360614 c 132,-1,37
 712.56248383 2067.62721227 712.56248383 2067.62721227 712.56248383 2087.8096112 c 132,-1,38
 712.56248383 2107.99201013 712.56248383 2107.99201013 719.781241915 2153.49600506 c 132,-1,39
 727 2199 727 2199 707 2299 c 132,-1,40
 687 2399 687 2399 653.866298015 2430.75313107 c 132,-1,41
 620.732596031 2462.50626214 620.732596031 2462.50626214 620.732596031 2502.46371352 c 132,-1,42
 620.732596031 2542.42116489 620.732596031 2542.42116489 665.942300765 2602.9563988 c 132,-1,43
 711.152005499 2663.4916327 711.152005499 2663.4916327 711.152005499 2672.54765514 c 132,-1,44
 711.152005499 2681.60367758 711.152005499 2681.60367758 709.239454128 2692.162382 c 132,-1,45
 707.326902757 2702.72108642 707.326902757 2702.72108642 710.008715053 2711.61982722 c 4,46,47
 727 2768 727 2768 782.5 2769.5 c 132,-1,48
 838 2771 838 2771 842 2786 c 5,49,-1
 903 2840 l 5,50,51
 944.634487409 2870.79217298 944.634487409 2870.79217298 987.818317725 2870.79217298 c 132,-1,52
 1031.00214804 2870.79217298 1031.00214804 2870.79217298 1070.79392672 2820.79737412 c 132,-1,53
 1110.5857054 2770.80257527 1110.5857054 2770.80257527 1150.59777117 2770.80257527 c 5,54,55
 1150.59777117 2770.80257527 1150.59777117 2770.80257527 1177.23043723 2771.76988243 c 132,-1,56
 1203.8631033 2772.73718958 1203.8631033 2772.73718958 1237.93155165 2735.86859479 c 132,-1,57
 1272 2699 1272 2699 1272 2619.5 c 132,-1,58
 1272 2540 1272 2540 1308 2540 c 132,-1,59
 1344 2540 1344 2540 1359.61856242 2502.82782145 c 132,-1,60
 1375.23712484 2465.65564289 1375.23712484 2465.65564289 1375.23712484 2433.28803737 c 132,-1,61
 1375.23712484 2400.92043184 1375.23712484 2400.92043184 1356.11856242 2380.46021592 c 132,-1,62
 1337 2360 1337 2360 1337 2356 c 132,-1,63
 1337 2352 1337 2352 1387 2195 c 5,0,1
1243 1999 m 5,64,65
 1261.74344161 1989.34428766 1261.74344161 1989.34428766 1277.15565803 1989.34428766 c 132,-1,66
 1292.56787446 1989.34428766 1292.56787446 1989.34428766 1292.56787446 1996.47798483 c 132,-1,67
 1292.56787446 2003.61168201 1292.56787446 2003.61168201 1286 2006 c 5,68,-1
 1268 2006 l 5,69,-1
 1243 1999 l 5,64,65
EndSplineSet
EndChar

StartChar: parenleft
Encoding: 40 40 11
Width: 2000
GlyphClass: 1
Flags: W
LayerCount: 2
Fore
SplineSet
1052.4976187 174.489965336 m 4,0,1
 1048 174.489965336 1048 174.489965336 1048 193.244982668 c 132,-1,2
 1048 212 1048 212 1057.10500893 212 c 132,-1,3
 1066.21001786 212 1066.21001786 212 1066.21001786 193.244982668 c 132,-1,4
 1066.21001786 174.489965336 1066.21001786 174.489965336 1052.4976187 174.489965336 c 4,0,1
1275.26892898 781.214766001 m 132,-1,6
 1314.53785795 781.214766001 1314.53785795 781.214766001 1314.53785795 750.607383001 c 132,-1,7
 1314.53785795 720 1314.53785795 720 1275.26892898 720 c 132,-1,8
 1236 720 1236 720 1236 750.607383001 c 132,-1,5
 1236 781.214766001 1236 781.214766001 1275.26892898 781.214766001 c 132,-1,6
1128 1268 m 5,9,10
 1128 1249.57888121 1128 1249.57888121 1108 1249.57888121 c 132,-1,11
 1088 1249.57888121 1088 1249.57888121 1088 1279.55459283 c 132,-1,12
 1088 1309.53030446 1088 1309.53030446 1097.61742388 1309.53030446 c 132,-1,13
 1107.23484777 1309.53030446 1107.23484777 1309.53030446 1128 1268 c 5,9,10
737.913161363 2901.47622663 m 132,-1,15
 708 2901.47622663 708 2901.47622663 708 2940.73811332 c 132,-1,16
 708 2980 708 2980 737.913161363 2980 c 132,-1,17
 767.826322727 2980 767.826322727 2980 767.826322727 2940.73811332 c 132,-1,14
 767.826322727 2901.47622663 767.826322727 2901.47622663 737.913161363 2901.47622663 c 132,-1,15
958.939356136 2977.74972893 m 4,18,19
 958.939356136 2941.85292583 958.939356136 2941.85292583 936.72046321 2941.85292583 c 4,20,21
 930.735370825 2941.85292583 930.735370825 2941.85292583 922.617988258 2943.47640235 c 4,22,23
 860 2956 860 2956 860 3020 c 132,-1,24
 860 3084 860 3084 899.773381015 3084 c 4,25,26
 958.939356136 3084 958.939356136 3084 958.939356136 2977.74972893 c 4,18,19
1003.18188051 1372.81972433 m 5,27,28
 1003.18188051 1372.81972433 1003.18188051 1372.81972433 996 1265.84549566 c 5,29,30
 996 910.588235294 996 910.588235294 1135.37193773 885.802528173 c 4,31,32
 1179.92910705 877.878544574 1179.92910705 877.878544574 1179.92910705 841.568442387 c 4,33,34
 1179.92910705 819.858214095 1179.92910705 819.858214095 1164 788 c 5,35,-1
 1164 784 l 5,36,37
 1159.04439515 779.04439515 1159.04439515 779.04439515 1159.04439515 761.969626 c 132,-1,38
 1159.04439515 744.894856849 1159.04439515 744.894856849 1205.52219758 692.447428425 c 132,-1,39
 1252 640 1252 640 1271 640 c 132,-1,40
 1290 640 1290 640 1448 516 c 5,41,-1
 1456 516 l 5,42,-1
 1464 520 l 5,43,44
 1548 520 1548 520 1548 440.482431632 c 4,45,46
 1548 152 1548 152 1503 152 c 132,-1,47
 1458 152 1458 152 1286 44 c 5,48,-1
 1173 140 l 6,49,50
 960 320.955752212 960 320.955752212 960 407.671322205 c 4,51,52
 960 425.118555486 960 425.118555486 951.450293596 425.118555486 c 4,53,54
 925.782031706 425.118555486 925.782031706 425.118555486 912.030955151 401.054171514 c 132,-1,55
 898.279878595 376.989787542 898.279878595 376.989787542 883.931346738 376.989787542 c 4,56,57
 847.85213961 376.989787542 847.85213961 376.989787542 803.926069805 522.494893771 c 132,-1,58
 760 668 760 668 700.923509774 668 c 4,59,60
 680 668 680 668 680 686 c 132,-1,61
 680 704 680 704 661.752181469 776.991274124 c 4,62,63
 579.202797203 1107.18881119 579.202797203 1107.18881119 480.833413098 1144.89715246 c 4,64,65
 444.787501423 1158.71478028 444.787501423 1158.71478028 444.787501423 1186.42557455 c 132,-1,66
 444.787501423 1214.13636881 444.787501423 1214.13636881 454.393750711 1249.06818441 c 132,-1,67
 464 1284 464 1284 464 1400 c 132,-1,68
 464 1516 464 1516 450.934932165 1551.27568316 c 132,-1,69
 437.869864331 1586.55136631 437.869864331 1586.55136631 437.869864331 1612.87108505 c 132,-1,70
 437.869864331 1639.19080379 437.869864331 1639.19080379 463.47826765 1667.23810267 c 132,-1,71
 489.086670969 1695.28540154 489.086670969 1695.28540154 489.086670969 1720.91885114 c 132,-1,72
 489.086670969 1746.55230074 489.086670969 1746.55230074 471.53361727 1774.90723364 c 132,-1,73
 453.980563571 1803.26216654 453.980563571 1803.26216654 453.980563571 1844.16431192 c 132,-1,74
 453.980563571 1885.06645731 453.980563571 1885.06645731 474.411721822 1896.06785021 c 132,-1,75
 494.842880072 1907.06924312 494.842880072 1907.06924312 494.842880072 1923.9307285 c 132,-1,76
 494.842880072 1940.79221389 494.842880072 1940.79221389 490.567765565 1996.45463716 c 132,-1,77
 486.292651057 2052.11706042 486.292651057 2052.11706042 510.980820825 2061.99232833 c 4,78,79
 556 2080 556 2080 584 2230 c 132,-1,80
 612 2380 612 2380 683.002264959 2446.42147367 c 4,81,82
 714.624398632 2476.00346969 714.624398632 2476.00346969 714.624398632 2489.32730488 c 132,-1,83
 714.624398632 2502.65114007 714.624398632 2502.65114007 688.259569402 2563.33480525 c 5,84,85
 688.259569402 2600 688.259569402 2600 754.590359153 2600 c 132,-1,86
 820.921148904 2600 820.921148904 2600 820.921148904 2610.72473959 c 132,-1,87
 820.921148904 2621.44947919 820.921148904 2621.44947919 795.194984904 2639.5373009 c 132,-1,88
 769.468820905 2657.62512261 769.468820905 2657.62512261 769.468820905 2687.51244733 c 132,-1,89
 769.468820905 2717.39977205 769.468820905 2717.39977205 839.234410453 2756.19988603 c 132,-1,90
 909 2795 909 2795 924.5 2829.5 c 132,-1,91
 940 2864 940 2864 978 2906 c 132,-1,92
 1016 2948 1016 2948 1040 3072 c 132,-1,93
 1064 3196 1064 3196 1096 3196 c 132,-1,94
 1128 3196 1128 3196 1128 3142 c 132,-1,95
 1128 3088 1128 3088 1131 3088 c 132,-1,96
 1134 3088 1134 3088 1152.3171772 3102.26811698 c 4,97,98
 1262.54571503 3188.13034645 1262.54571503 3188.13034645 1333.16423548 3188.13034645 c 4,99,100
 1507.11094327 3188.13034645 1507.11094327 3188.13034645 1547.95755012 3013.68129636 c 4,101,102
 1554.79284304 2984.4888995 1554.79284304 2984.4888995 1554.79284304 2944.68791529 c 132,-1,103
 1554.79284304 2904.88693108 1554.79284304 2904.88693108 1525.39642152 2894.44346554 c 132,-1,104
 1496 2884 1496 2884 1488.32224581 2873.25114413 c 132,-1,105
 1480.64449162 2862.50228827 1480.64449162 2862.50228827 1480.64449162 2850.74070886 c 132,-1,106
 1480.64449162 2838.97912946 1480.64449162 2838.97912946 1483.13348581 2794.7102928 c 132,-1,107
 1485.62248 2750.44145614 1485.62248 2750.44145614 1474.95352778 2750.44145614 c 132,-1,108
 1464.28457556 2750.44145614 1464.28457556 2750.44145614 1431.5851193 2754.6635596 c 132,-1,109
 1398.88566305 2758.88566305 1398.88566305 2758.88566305 1391.44283152 2751.44283152 c 132,-1,110
 1384 2744 1384 2744 1381.42033892 2711.75423655 c 4,111,112
 1373.32533733 2610.56671664 1373.32533733 2610.56671664 1291.27340636 2598.41087502 c 4,113,114
 1244.73437942 2591.51620436 1244.73437942 2591.51620436 1244.73437942 2559.34954218 c 5,115,116
 1244.73437942 2559.34954218 1244.73437942 2559.34954218 1266.80027837 2489.94616088 c 5,117,118
 1266.80027837 2475.22354579 1266.80027837 2475.22354579 1249.30990768 2474.19470045 c 4,119,120
 1212 2472 1212 2472 1178 2406 c 132,-1,121
 1144 2340 1144 2340 1106.11790713 2324.70146249 c 4,122,123
 1040 2298 1040 2298 1018 2153 c 132,-1,124
 996 2008 996 2008 963.535916921 1984.38975776 c 132,-1,125
 931.071833842 1960.77951552 931.071833842 1960.77951552 931.071833842 1933.43789424 c 132,-1,126
 931.071833842 1906.09627297 931.071833842 1906.09627297 947.535916921 1879.04813648 c 132,-1,127
 964 1852 964 1852 964 1846 c 132,-1,128
 964 1840 964 1840 860 1712 c 5,129,-1
 972 1620 l 5,130,131
 972 1592 972 1592 940 1552 c 5,132,-1
 892 1500 l 5,133,-1
 948 1456 l 6,134,135
 1003.18188051 1413.55239961 1003.18188051 1413.55239961 1003.18188051 1372.81972433 c 5,27,28
EndSplineSet
EndChar

StartChar: parenright
Encoding: 41 41 12
Width: 2000
GlyphClass: 1
Flags: W
LayerCount: 2
Fore
SplineSet
850.079474825 3190.03124781 m 4,0,1
 875.214075954 3190.03124781 875.214075954 3190.03124781 875.214075954 3152.91240647 c 132,-1,2
 875.214075954 3115.79356513 875.214075954 3115.79356513 844.607037977 3115.79356513 c 132,-1,3
 814 3115.79356513 814 3115.79356513 814 3152.91240647 c 132,-1,4
 814 3190.03124781 814 3190.03124781 850.079474825 3190.03124781 c 4,0,1
716.403322192 2684.76216437 m 5,5,6
 716.403322192 2684.76216437 716.403322192 2684.76216437 720.498559627 2715.5760383 c 132,-1,7
 724.593797062 2746.38991223 724.593797062 2746.38991223 695.296898531 2767.19495611 c 132,-1,8
 666 2788 666 2788 600 2788 c 132,-1,9
 534 2788 534 2788 534 2841.70405765 c 5,10,11
 534 2841.70405765 534 2841.70405765 544.023283205 2874.62586832 c 5,12,13
 544.023283205 2894.22669415 544.023283205 2894.22669415 514.261877283 2948.59849343 c 132,-1,14
 484.500471362 3002.9702927 484.500471362 3002.9702927 484.500471362 3067.11026419 c 132,-1,15
 484.500471362 3131.25023568 484.500471362 3131.25023568 567.106404614 3172.55320231 c 4,16,17
 598 3188 598 3188 628 3188 c 132,-1,18
 658 3188 658 3188 712 3134 c 132,-1,19
 766 3080 766 3080 848 3056 c 132,-1,20
 930 3032 930 3032 952 2972 c 132,-1,21
 974 2912 974 2912 1044.13918991 2882.77533754 c 132,-1,22
 1114.27837983 2853.55067507 1114.27837983 2853.55067507 1114.27837983 2838.25746246 c 5,23,24
 1114.27837983 2838.25746246 1114.27837983 2838.25746246 1110.18701 2818.62462266 c 132,-1,25
 1106.09564017 2798.99178286 1106.09564017 2798.99178286 1134.73861193 2749.24346349 c 132,-1,26
 1163.38158369 2699.49514412 1163.38158369 2699.49514412 1210.2756879 2699.49514412 c 5,27,28
 1210.2756879 2699.49514412 1210.2756879 2699.49514412 1234.42957819 2701.27564032 c 132,-1,29
 1258.58346849 2703.05613651 1258.58346849 2703.05613651 1258.58346849 2684.72417849 c 132,-1,30
 1258.58346849 2666.39222047 1258.58346849 2666.39222047 1236.86882942 2656.17356679 c 132,-1,31
 1215.12966221 2645.94337045 1215.12966221 2645.94337045 1215.12966221 2629.98426088 c 132,-1,32
 1215.12966221 2614.0251513 1215.12966221 2614.0251513 1254.5648311 2573.01257565 c 132,-1,33
 1294 2532 1294 2532 1330 2394 c 132,-1,34
 1366 2256 1366 2256 1392 2200 c 132,-1,35
 1418 2144 1418 2144 1418 2126 c 132,-1,36
 1418 2108 1418 2108 1383.20411095 2050.68912391 c 132,-1,37
 1348.40822189 1993.37824782 1348.40822189 1993.37824782 1348.40822189 1980.61829385 c 132,-1,38
 1348.40822189 1967.85833989 1348.40822189 1967.85833989 1413.29935714 1964.04121429 c 132,-1,39
 1478.19049239 1960.22408868 1478.19049239 1960.22408868 1478.19049239 1929.02416426 c 132,-1,40
 1478.19049239 1897.82423985 1478.19049239 1897.82423985 1502 1838.85890049 c 5,41,42
 1502 1812 1502 1812 1446 1672 c 5,43,44
 1466.59122381 1672 1466.59122381 1672 1466.59122381 1649.29824872 c 5,45,46
 1466.59122381 1649.29824872 1466.59122381 1649.29824872 1463.59273262 1606.0582864 c 132,-1,47
 1460.59424144 1562.81832408 1460.59424144 1562.81832408 1485.29712072 1541.40916204 c 132,-1,48
 1510 1520 1510 1520 1510 1509 c 132,-1,49
 1510 1498 1510 1498 1464.74256281 1420.30806617 c 132,-1,50
 1419.48512563 1342.61613234 1419.48512563 1342.61613234 1419.48512563 1317.30806617 c 132,-1,51
 1419.48512563 1292 1419.48512563 1292 1434.74256281 1292 c 132,-1,52
 1450 1292 1450 1292 1450 1276 c 132,-1,53
 1450 1260 1450 1260 1431.37426953 1235.55372876 c 132,-1,54
 1412.74853905 1211.10745751 1412.74853905 1211.10745751 1412.74853905 1177.05879634 c 132,-1,55
 1412.74853905 1143.01013517 1412.74853905 1143.01013517 1446 1102 c 5,56,-1
 1322 966 l 5,57,58
 1322 838.181818182 1322 838.181818182 1240 771.090909091 c 132,-1,59
 1158 704 1158 704 1142 630 c 132,-1,60
 1126 556 1126 556 1109.43668007 537.780348078 c 132,-1,61
 1092.87336014 519.560696156 1092.87336014 519.560696156 1092.87336014 501.475436993 c 132,-1,62
 1092.87336014 483.39017783 1092.87336014 483.39017783 1098 426.257440018 c 5,63,64
 1098 360 1098 360 1000 328 c 132,-1,65
 902 296 902 296 859.782032778 239.709377037 c 132,-1,66
 817.564065555 183.418754073 817.564065555 183.418754073 776.466252669 183.418754073 c 5,67,68
 776.466252669 183.418754073 776.466252669 183.418754073 744.369824516 187.891641279 c 132,-1,69
 712.273396363 192.364528484 712.273396363 192.364528484 697.136698181 172.182264242 c 132,-1,70
 682 152 682 152 622.505673024 152 c 4,71,72
 490 152 490 152 490 282 c 5,73,-1
 492 383 l 6,74,75
 495.43451972 556.443245852 495.43451972 556.443245852 586.34458935 556.443245852 c 6,76,77
 586.34458935 556.443245852 586.34458935 556.443245852 616.969678393 556.115409258 c 132,-1,78
 647.594767437 555.787572664 647.594767437 555.787572664 662.797383718 591.893786332 c 132,-1,79
 678 628 678 628 710.187838339 651.717354565 c 132,-1,80
 742.375676677 675.43470913 742.375676677 675.43470913 742.375676677 693.890270988 c 132,-1,81
 742.375676677 712.345832847 742.375676677 712.345832847 738.942126863 747.984073957 c 132,-1,82
 735.50857705 783.622315067 735.50857705 783.622315067 772.754288525 797.811157534 c 132,-1,83
 810 812 810 812 870 894 c 132,-1,84
 930 976 930 976 930 983.390190955 c 132,-1,85
 930 990.780381911 930 990.780381911 909.110052186 1125.37576346 c 5,86,87
 909.110052186 1209.11682331 909.110052186 1209.11682331 968.897297292 1209.11682331 c 6,88,89
 968.897297292 1209.11682331 968.897297292 1209.11682331 974.46099253 1209.02914148 c 4,90,91
 1090 1209.02914148 1090 1209.02914148 1090 1512 c 6,92,-1
 1090 1568 l 5,93,94
 1090 1568 1090 1568 1102.97306752 1732.59747657 c 5,95,96
 1102.97306752 1791.62148768 1102.97306752 1791.62148768 1084.48653376 1817.81074384 c 132,-1,97
 1066 1844 1066 1844 1066 1897 c 132,-1,98
 1066 1950 1066 1950 1017.76851681 2091.75350547 c 4,99,100
 902 2432 902 2432 759.543950483 2465.79190012 c 4,101,102
 718.883751655 2475.43687751 718.883751655 2475.43687751 718.883751655 2498.16821568 c 132,-1,103
 718.883751655 2520.89955385 718.883751655 2520.89955385 745.104265427 2552.06733437 c 132,-1,104
 771.324779199 2583.2351149 771.324779199 2583.2351149 771.324779199 2607.41869018 c 132,-1,105
 771.324779199 2631.60226546 771.324779199 2631.60226546 743.864050696 2646.9028653 c 132,-1,106
 716.403322192 2662.20346515 716.403322192 2662.20346515 716.403322192 2684.76216437 c 5,5,6
1154 1810 m 132,-1,108
 1154 1820 1154 1820 1142 1820 c 132,-1,109
 1130 1820 1130 1820 1130 1810 c 132,-1,110
 1130 1800 1130 1800 1142 1800 c 132,-1,107
 1154 1800 1154 1800 1154 1810 c 132,-1,108
EndSplineSet
EndChar

StartChar: asterisk
Encoding: 42 42 13
Width: 1950
GlyphClass: 2
Flags: W
LayerCount: 2
Fore
SplineSet
799.958531921 2670.91733771 m 132,-1,1
 777.917063841 2694.83467541 777.917063841 2694.83467541 777.917063841 2706.00547745 c 132,-1,2
 777.917063841 2717.17627949 777.917063841 2717.17627949 837.487353947 2833.64133549 c 5,3,4
 837.487353947 2833.64133549 837.487353947 2833.64133549 834 2847.67078992 c 5,5,6
 834 2892 834 2892 884.236643302 2893.35774712 c 4,7,8
 908 2894 908 2894 911 2904 c 5,9,-1
 946 2940 l 6,10,11
 965 2960 965 2960 992 2960 c 132,-1,12
 1019 2960 1019 2960 1040.83883822 2928.15169427 c 132,-1,13
 1062.67767643 2896.30338855 1062.67767643 2896.30338855 1079.60269345 2896.30338855 c 5,14,15
 1079.60269345 2896.30338855 1079.60269345 2896.30338855 1096.84733949 2897.79315063 c 132,-1,16
 1114.09198552 2899.28291271 1114.09198552 2899.28291271 1134.05075622 2872.95432158 c 132,-1,17
 1154.00952691 2846.62573045 1154.00952691 2846.62573045 1154.00952691 2839.49898116 c 4,18,19
 1154.00952691 2740 1154.00952691 2740 1189.89100172 2740 c 4,20,21
 1216 2740 1216 2740 1216 2704 c 132,-1,22
 1216 2668 1216 2668 1219 2503 c 5,23,24
 1219 2503 1219 2503 1182.05086708 2509.33590988 c 5,25,26
 1147.27796402 2509.33590988 1147.27796402 2509.33590988 1147.27796402 2467.23454385 c 4,27,28
 1147.27796402 2447 1147.27796402 2447 1157.63898201 2447 c 132,-1,29
 1168 2447 1168 2447 1181 2415 c 5,30,31
 1198 2435 1198 2435 1236.5 2437.5 c 132,-1,32
 1275 2440 1275 2440 1303.5 2462.5 c 132,-1,33
 1332 2485 1332 2485 1362 2494.5 c 132,-1,34
 1392 2504 1392 2504 1409.5 2535.5 c 132,-1,35
 1427 2567 1427 2567 1442.71184171 2567 c 132,-1,36
 1458.42368342 2567 1458.42368342 2567 1510.82269191 2558.64909492 c 132,-1,37
 1563.2217004 2550.29818984 1563.2217004 2550.29818984 1577.72834797 2553.85057263 c 132,-1,38
 1592.23499555 2557.40295543 1592.23499555 2557.40295543 1594.75406939 2557.26193687 c 132,-1,39
 1597.27314323 2557.1209183 1597.27314323 2557.1209183 1609.64513473 2557.22141343 c 132,-1,40
 1622.01712624 2557.32190856 1622.01712624 2557.32190856 1642.30292377 2528.94857783 c 132,-1,41
 1662.58872131 2500.5752471 1662.58872131 2500.5752471 1678.76004121 2500.5752471 c 6,42,43
 1678.76004121 2500.5752471 1678.76004121 2500.5752471 1685.17991523 2500.5876938 c 132,-1,44
 1691.59978925 2500.6001405 1691.59978925 2500.6001405 1720.18882151 2481.54078566 c 132,-1,45
 1748.77785378 2462.48143081 1748.77785378 2462.48143081 1748.77785378 2436.90893235 c 132,-1,46
 1748.77785378 2411.3364339 1748.77785378 2411.3364339 1730.71847524 2388.15209659 c 132,-1,47
 1712.57450753 2364.85916507 1712.57450753 2364.85916507 1712.57450753 2354.33197845 c 132,-1,48
 1712.57450753 2343.80479184 1712.57450753 2343.80479184 1726.27362192 2297.31879784 c 5,49,50
 1726.27362192 2262.1944792 1726.27362192 2262.1944792 1656.64868805 2241.62347601 c 132,-1,51
 1587.02375417 2221.05247282 1587.02375417 2221.05247282 1587.02375417 2202.56315239 c 5,52,53
 1587.02375417 2202.56315239 1587.02375417 2202.56315239 1588.86582864 2187.96708266 c 132,-1,54
 1590.70790311 2173.37101293 1590.70790311 2173.37101293 1565.85395156 2154.18550646 c 132,-1,55
 1541 2135 1541 2135 1529.5 2135 c 132,-1,56
 1518 2135 1518 2135 1478 2144 c 5,57,58
 1458.65853659 2083 1458.65853659 2083 1394.31708608 2083 c 4,59,60
 1376 2083 1376 2083 1376 2087 c 132,-1,61
 1376 2091 1376 2091 1379.5 2117.84139852 c 132,-1,62
 1383 2144.68279704 1383 2144.68279704 1360.88652823 2144.68279704 c 6,63,64
 1360.88652823 2144.68279704 1360.88652823 2144.68279704 1332.49186834 2144.34139852 c 132,-1,65
 1304.09720845 2144 1304.09720845 2144 1304.09720845 2129.54812344 c 132,-1,66
 1304.09720845 2115.09624688 1304.09720845 2115.09624688 1311.54860422 2106.04812344 c 132,-1,67
 1319 2097 1319 2097 1332.5 2062 c 132,-1,68
 1346 2027 1346 2027 1377 2007 c 132,-1,69
 1408 1987 1408 1987 1426.5 1961.5 c 132,-1,70
 1445 1936 1445 1936 1475 1930 c 132,-1,71
 1505 1924 1505 1924 1517 1908.5 c 132,-1,72
 1529 1893 1529 1893 1533 1835.5 c 132,-1,73
 1537 1778 1537 1778 1549.82116845 1772.08253764 c 132,-1,74
 1562.6423369 1766.16507528 1562.6423369 1766.16507528 1562.6423369 1742.33071326 c 132,-1,75
 1562.6423369 1718.49635124 1562.6423369 1718.49635124 1542.53672714 1702.96019824 c 132,-1,76
 1522.43111737 1687.42404524 1522.43111737 1687.42404524 1522.43111737 1683.12720415 c 132,-1,77
 1522.43111737 1678.83036306 1522.43111737 1678.83036306 1524 1677 c 5,78,-1
 1517 1627 l 5,79,80
 1505 1575 1505 1575 1464 1575 c 5,81,-1
 1401 1588 l 5,82,-1
 1349.5 1577.5 l 6,83,84
 1341.67620359 1575.90485704 1341.67620359 1575.90485704 1316.93039337 1575.90485704 c 132,-1,85
 1292.18458316 1575.90485704 1292.18458316 1575.90485704 1266.02759958 1615.95773814 c 132,-1,86
 1239.870616 1656.01061925 1239.870616 1656.01061925 1224.17955262 1656.01061925 c 5,87,88
 1224.17955262 1656.01061925 1224.17955262 1656.01061925 1204.42625704 1652.99346915 c 132,-1,89
 1184.67296146 1649.97631906 1184.67296146 1649.97631906 1156.83648073 1667.98815953 c 132,-1,90
 1129 1686 1129 1686 1129 1695.5 c 6,91,-1
 1129 1713.25 l 5,92,93
 1129 1713.25 1129 1713.25 1129.42084893 1742.1226792 c 5,94,95
 1129.42084893 1742.1226792 1129.42084893 1742.1226792 1116.34187953 1740.99921606 c 132,-1,96
 1103.26291014 1739.87575293 1103.26291014 1739.87575293 1071.83499145 1776.61543252 c 132,-1,97
 1040.40707277 1813.35511211 1040.40707277 1813.35511211 1040.40707277 1822.42680179 c 132,-1,98
 1040.40707277 1831.49849147 1040.40707277 1831.49849147 1043.28634656 1831.49849147 c 132,-1,99
 1046.16562035 1831.49849147 1046.16562035 1831.49849147 1070.08281017 1830.02900827 c 132,-1,100
 1094 1828.55952507 1094 1828.55952507 1094 1850.20981045 c 4,101,102
 1094 1854 1094 1854 1091.28089971 1860.55783011 c 4,103,104
 1069.69482396 1912.61836574 1069.69482396 1912.61836574 1003.64200027 1912.61836574 c 5,105,106
 1003.64200027 1912.61836574 1003.64200027 1912.61836574 986.023770771 1905.42828747 c 132,-1,107
 968.405541272 1898.2382092 968.405541272 1898.2382092 933.498007201 1903 c 5,108,109
 907 1903 907 1903 907 1864 c 132,-1,110
 907 1825 907 1825 940.030531132 1825 c 4,111,112
 962 1825 962 1825 962 1822.46162084 c 132,-1,113
 962 1820 962 1820 917 1775.75 c 132,-1,114
 872 1731.5 872 1731.5 872 1708.75 c 132,-1,115
 872 1686 872 1686 844.89124324 1667.9274955 c 132,-1,116
 817.782486481 1649.85499099 817.782486481 1649.85499099 806.924039255 1649.85499099 c 132,-1,117
 796.065592028 1649.85499099 796.065592028 1649.85499099 788.532796014 1650.4274955 c 132,-1,118
 781 1651 781 1651 735.587672403 1617.09212873 c 132,-1,119
 690.175344807 1583.18425746 690.175344807 1583.18425746 652.941919172 1583.18425746 c 132,-1,120
 615.708493537 1583.18425746 615.708493537 1583.18425746 600 1588 c 5,121,-1
 538 1575 l 5,122,123
 496 1575 496 1575 484 1627 c 5,124,-1
 477 1677 l 5,125,-1
 470.5 1727.5 l 6,126,127
 466.360930619 1759.65738519 466.360930619 1759.65738519 466.360930619 1822.68679362 c 132,-1,128
 466.360930619 1885.71620205 466.360930619 1885.71620205 481.180465309 1904.85810102 c 132,-1,129
 496 1924 496 1924 526.5 1930 c 132,-1,130
 557 1936 557 1936 581.5 1970.5 c 132,-1,131
 606 2005 606 2005 614.5 2006 c 132,-1,132
 623 2007 623 2007 676.5 2058.5 c 132,-1,133
 730 2110 730 2110 730 2129.5 c 132,-1,134
 730 2149 730 2149 690.477984141 2149 c 132,-1,135
 650.955968282 2149 650.955968282 2149 650.955968282 2127.31912099 c 5,136,137
 650.955968282 2127.31912099 650.955968282 2127.31912099 655.580042741 2092 c 5,138,139
 654 2092 654 2092 553 2153 c 5,140,-1
 513 2144 l 5,141,142
 437.240567065 2144 437.240567065 2144 437.240567065 2184.07186676 c 4,143,144
 437.240567065 2210.09253175 437.240567065 2210.09253175 379.177910655 2264.64333394 c 132,-1,145
 321.115254244 2319.19413613 321.115254244 2319.19413613 321.115254244 2345.97652363 c 132,-1,146
 321.115254244 2372.75891114 321.115254244 2372.75891114 302.374740955 2397.17836785 c 132,-1,147
 283.634227666 2421.59782456 283.634227666 2421.59782456 283.634227666 2447.1010266 c 132,-1,148
 283.634227666 2472.60422864 283.634227666 2472.60422864 310.495053881 2491.05082014 c 132,-1,149
 337.355880096 2509.49741163 337.355880096 2509.49741163 349.024209558 2509.49741163 c 132,-1,150
 360.69253902 2509.49741163 360.69253902 2509.49741163 364.975539642 2509.24870581 c 132,-1,151
 369.258540263 2509 369.258540263 2509 434.843381225 2566 c 5,152,153
 434.843381225 2566 434.843381225 2566 522.359399219 2567.11212451 c 132,-1,154
 609.875417213 2568.22424902 609.875417213 2568.22424902 624.937708606 2541.11212451 c 132,-1,155
 640 2514 640 2514 669.5 2504.5 c 132,-1,156
 699 2495 699 2495 735.707552783 2465.70454922 c 132,-1,157
 772.415105566 2436.40909844 772.415105566 2436.40909844 796.700378525 2436.40909844 c 4,158,159
 845 2436.40909844 845 2436.40909844 845 2485.89013358 c 4,160,161
 845 2497 845 2497 833.5 2572 c 132,-1,0
 822 2647 822 2647 799.958531921 2670.91733771 c 132,-1,1
EndSplineSet
EndChar

StartChar: plus
Encoding: 43 43 14
Width: 2000
GlyphClass: 1
Flags: W
LayerCount: 2
Fore
SplineSet
703.499193488 1490 m 4,0,1
 734.849680163 1490 734.849680163 1490 734.849680163 1568.90522388 c 132,-1,2
 734.849680163 1647.81044777 734.849680163 1647.81044777 726.924840081 1658.90522388 c 132,-1,3
 719 1670 719 1670 678.679070669 1678.4886167 c 132,-1,4
 638.358141338 1686.9772334 638.358141338 1686.9772334 638.358141338 1688.66536098 c 132,-1,5
 638.358141338 1690.35348856 638.358141338 1690.35348856 648.425408891 1691.41320094 c 4,6,7
 711 1698 711 1698 711 1756.88438162 c 4,8,9
 711 1794 711 1794 730.54872743 1813.54872743 c 132,-1,10
 750.09745486 1833.09745486 750.09745486 1833.09745486 750.09745486 1842.98917168 c 132,-1,11
 750.09745486 1852.8808885 750.09745486 1852.8808885 736.54872743 1869.44044425 c 132,-1,12
 723 1886 723 1886 723 1999.85353545 c 4,13,14
 723 2286 723 2286 859 2286 c 5,15,-1
 1017 2222 l 5,16,17
 1175 2222 1175 2222 1175 1980 c 5,18,-1
 1187 1800 l 5,19,-1
 1169 1687 l 6,20,21
 1165.84100563 1667.16853532 1165.84100563 1667.16853532 1165.84100563 1649.35891506 c 4,22,23
 1165.84100563 1565.68903685 1165.84100563 1565.68903685 1235.56428525 1526.64400026 c 4,24,25
 1251 1518 1251 1518 1258.32283054 1518 c 4,26,27
 1351.10526316 1518 1351.10526316 1518 1581 1630 c 5,28,29
 1611 1630 1611 1630 1678.80689138 1577.02586611 c 132,-1,30
 1746.61378276 1524.05173222 1746.61378276 1524.05173222 1759.12652189 1524.05173222 c 132,-1,31
 1771.63926102 1524.05173222 1771.63926102 1524.05173222 1789.67510218 1563.12938805 c 132,-1,32
 1807.71094333 1602.20704388 1807.71094333 1602.20704388 1821.93752162 1602.20704388 c 4,33,34
 1860.8880627 1602.20704388 1860.8880627 1602.20704388 1879 1326 c 5,35,36
 1879 1248.11111111 1879 1248.11111111 1764.74756446 1206.85328717 c 4,37,38
 1707 1186 1707 1186 1691 1164 c 132,-1,39
 1675 1142 1675 1142 1632.51722508 1109.1724012 c 132,-1,40
 1590.03445016 1076.3448024 1590.03445016 1076.3448024 1579.26600495 1076.3448024 c 132,-1,41
 1568.49755973 1076.3448024 1568.49755973 1076.3448024 1529.74877987 1119.1724012 c 132,-1,42
 1491 1162 1491 1162 1436.84092441 1162 c 5,43,44
 1436.84092441 1162 1436.84092441 1162 1381.22577158 1157.72621759 c 132,-1,45
 1325.61061874 1153.45243518 1325.61061874 1153.45243518 1312.30530937 1181.72621759 c 132,-1,46
 1299 1210 1299 1210 1259 1212 c 132,-1,47
 1219 1214 1219 1214 1203.13232419 1240.97504888 c 132,-1,48
 1187.26464837 1267.95009777 1187.26464837 1267.95009777 1182.69326474 1267.95009777 c 132,-1,49
 1178.12188111 1267.95009777 1178.12188111 1267.95009777 1176.56094055 1242.97504888 c 132,-1,50
 1175 1218 1175 1218 1144.78950196 1206.25147298 c 132,-1,51
 1114.57900391 1194.50294596 1114.57900391 1194.50294596 1114.57900391 1155.03324614 c 132,-1,52
 1114.57900391 1115.56354632 1114.57900391 1115.56354632 1122.78950196 1062.78177316 c 132,-1,53
 1131 1010 1131 1010 1139 754 c 6,54,-1
 1147 514 l 5,55,-1
 1091 494 l 6,56,57
 1067.29874487 485.535266026 1067.29874487 485.535266026 1042.9098967 485.535266026 c 132,-1,58
 1018.52104853 485.535266026 1018.52104853 485.535266026 991.850564639 504.204604751 c 132,-1,59
 965.180080748 522.873943476 965.180080748 522.873943476 938.574130449 522.873943476 c 132,-1,60
 911.968180149 522.873943476 911.968180149 522.873943476 853.484090075 520.659944627 c 132,-1,61
 795 518.445945778 795 518.445945778 795 539.222972889 c 132,-1,62
 795 560 795 560 761.020019037 614.934302557 c 132,-1,63
 727.040038074 669.868605114 727.040038074 669.868605114 727.040038074 787.281336195 c 132,-1,64
 727.040038074 904.694067277 727.040038074 904.694067277 771 1160 c 5,65,66
 771 1198 771 1198 649 1198 c 132,-1,67
 527 1198 527 1198 493.861382475 1148.29207371 c 4,68,69
 479 1126 479 1126 451 1126 c 132,-1,70
 423 1126 423 1126 383.806311663 1155.78720314 c 132,-1,71
 344.612623327 1185.57440627 344.612623327 1185.57440627 327.85314119 1185.57440627 c 132,-1,72
 311.093659053 1185.57440627 311.093659053 1185.57440627 244.250447564 1168.15728456 c 5,73,74
 223.955091454 1168.15728456 223.955091454 1168.15728456 201.505448014 1180.13042773 c 4,75,76
 121.048710415 1223.04068778 121.048710415 1223.04068778 121.048710415 1362.90793775 c 132,-1,77
 121.048710415 1502.77518772 121.048710415 1502.77518772 212.630078776 1537.42759737 c 4,78,79
 234.024123855 1545.52264146 234.024123855 1545.52264146 259.870080834 1545.52264146 c 132,-1,80
 285.716037812 1545.52264146 285.716037812 1545.52264146 309.906133455 1529.39591103 c 132,-1,81
 334.096229097 1513.2691806 334.096229097 1513.2691806 350.680685838 1513.2691806 c 132,-1,82
 367.265142579 1513.2691806 367.265142579 1513.2691806 399.13257129 1553.6345903 c 132,-1,83
 431 1594 431 1594 477 1594 c 132,-1,84
 523 1594 523 1594 523 1560.07186018 c 132,-1,85
 523 1526.14372037 523 1526.14372037 548.71677832 1526.14372037 c 5,86,87
 548.71677832 1526.14372037 548.71677832 1526.14372037 620.103552025 1541.0397339 c 5,88,89
 658.971952541 1541.0397339 658.971952541 1541.0397339 676.985976271 1515.51986695 c 132,-1,90
 695 1490 695 1490 703.499193488 1490 c 4,0,1
924.86783002 653.70797646 m 4,91,92
 924.86783002 628.659363332 924.86783002 628.659363332 954.494829576 628.659363332 c 4,93,94
 963 628.659363332 963 628.659363332 963 640.425927851 c 4,95,96
 963 666.003167192 963 666.003167192 935.274705918 666.003167192 c 4,97,98
 924.86783002 666.003167192 924.86783002 666.003167192 924.86783002 653.70797646 c 4,91,92
1047 2298 m 132,-1,100
 1047 2330 1047 2330 1079 2330 c 132,-1,101
 1111 2330 1111 2330 1111 2298 c 132,-1,102
 1111 2266 1111 2266 1079 2266 c 132,-1,99
 1047 2266 1047 2266 1047 2298 c 132,-1,100
EndSplineSet
EndChar

StartChar: comma
Encoding: 44 44 15
Width: 2000
GlyphClass: 1
Flags: W
LayerCount: 2
Fore
SplineSet
817.594491132 -228.372232091 m 132,-1,1
 817.594491132 -200.996640804 817.594491132 -200.996640804 843.230340755 -200.996640804 c 132,-1,2
 868.866190378 -200.996640804 868.866190378 -200.996640804 868.866190378 -228.372232091 c 132,-1,3
 868.866190378 -255.747823377 868.866190378 -255.747823377 843.230340755 -255.747823377 c 132,-1,0
 817.594491132 -255.747823377 817.594491132 -255.747823377 817.594491132 -228.372232091 c 132,-1,1
1220.30208873 -67.8602941176 m 132,-1,5
 1204.82978723 -67.8602941176 1204.82978723 -67.8602941176 1204.82978723 -46.091016624 c 132,-1,6
 1204.82978723 -24.3217391304 1204.82978723 -24.3217391304 1209.61706753 -24.3217391304 c 132,-1,7
 1214.40434783 -24.3217391304 1214.40434783 -24.3217391304 1225.08936903 -37.7401378579 c 132,-1,8
 1235.77439024 -51.1585365854 1235.77439024 -51.1585365854 1235.77439024 -59.5094153515 c 132,-1,4
 1235.77439024 -67.8602941176 1235.77439024 -67.8602941176 1220.30208873 -67.8602941176 c 132,-1,5
621.0178547 559.877355604 m 132,-1,10
 591.035709399 633.254711208 591.035709399 633.254711208 591.035709399 652.183749892 c 132,-1,11
 591.035709399 671.112788576 591.035709399 671.112788576 596.582869912 788.620162459 c 132,-1,12
 602.130030426 906.127536343 602.130030426 906.127536343 687.471991957 1008.06376817 c 132,-1,13
 772.813953488 1110 772.813953488 1110 834.705024077 1110 c 4,14,15
 856 1110 856 1110 898.479278577 1125.89715333 c 132,-1,16
 940.958557153 1141.79430666 940.958557153 1141.79430666 1015.06667404 1141.79430666 c 132,-1,17
 1089.17479093 1141.79430666 1089.17479093 1141.79430666 1192 1099 c 5,18,19
 1297 1099 1297 1099 1297 1018.52431785 c 4,20,21
 1297 969 1297 969 1339.87732175 955.154198185 c 132,-1,22
 1382.7546435 941.30839637 1382.7546435 941.30839637 1382.7546435 875.063626758 c 5,23,24
 1382.7546435 875.063626758 1382.7546435 875.063626758 1380.39417352 810.158317307 c 132,-1,25
 1378.03370354 745.253007856 1378.03370354 745.253007856 1401.71066165 717.085592179 c 132,-1,26
 1425.38761975 688.918176502 1425.38761975 688.918176502 1425.38761975 676.731180741 c 132,-1,27
 1425.38761975 664.544184979 1425.38761975 664.544184979 1392.7184716 629.732797601 c 132,-1,28
 1360.04932344 594.921410223 1360.04932344 594.921410223 1360.04932344 583.801219481 c 132,-1,29
 1360.04932344 572.68102874 1360.04932344 572.68102874 1388.94300018 539.98555243 c 132,-1,30
 1417.83667692 507.29007612 1417.83667692 507.29007612 1417.83667692 489.14503806 c 132,-1,31
 1417.83667692 471 1417.83667692 471 1392.83961752 471 c 4,32,33
 1337 471 1337 471 1337 373.5 c 4,34,35
 1337 183.455882354 1337 183.455882354 1230.05312407 137.846185264 c 4,36,37
 1208.74398814 128.758465531 1208.74398814 128.758465531 1208.74398814 117.882369387 c 132,-1,38
 1208.74398814 107.006273244 1208.74398814 107.006273244 1232.42549119 82.2951396334 c 132,-1,39
 1256.10699423 57.5840060227 1256.10699423 57.5840060227 1256.10699423 37.5419643963 c 132,-1,40
 1256.10699423 17.4999227698 1256.10699423 17.4999227698 1227.82455473 17.4999227698 c 6,41,42
 1227.82455473 17.4999227698 1227.82455473 17.4999227698 1205.04004669 17.9090972907 c 132,-1,43
 1182.25553865 18.3182718116 1182.25553865 18.3182718116 1158.12776932 -22.8408640942 c 132,-1,44
 1134 -64 1134 -64 1134 -78 c 132,-1,45
 1134 -92 1134 -92 1138 -127 c 5,46,47
 1138 -168 1138 -168 1035 -168 c 132,-1,48
 932 -168 932 -168 799 -121 c 5,49,-1
 683 -82 l 5,50,-1
 698 19 l 6,51,52
 712 117 712 117 739 131.5 c 132,-1,53
 766 146 766 146 800.5 205.5 c 132,-1,54
 835 265 835 265 873 285 c 132,-1,55
 911 305 911 305 911 330 c 132,-1,56
 911 355 911 355 871.808559951 355 c 4,57,58
 820 355 820 355 820 401.242569072 c 4,59,60
 820 435.485030915 820 435.485030915 764.825320686 435.485030915 c 5,61,62
 764.825320686 435.485030915 764.825320686 435.485030915 707.912660343 433.859233897 c 132,-1,63
 651 432.233436879 651 432.233436879 651 466.273978769 c 4,64,9
 651 486.5 651 486.5 621.0178547 559.877355604 c 132,-1,10
1031.5 30 m 132,-1,66
 1015 30 1015 30 1015 24 c 132,-1,67
 1015 18.0000000001 1015 18.0000000001 1026 6.00000000012 c 132,-1,68
 1037 -6 1037 -6 1042.5 -6 c 132,-1,69
 1048 -6 1048 -6 1048 12 c 132,-1,65
 1048 30 1048 30 1031.5 30 c 132,-1,66
EndSplineSet
EndChar

StartChar: hyphen
Encoding: 45 45 16
Width: 2000
GlyphClass: 1
Flags: W
LayerCount: 2
Fore
SplineSet
1909.125 1359.25 m 132,-1,1
 1915 1359.25 1915 1359.25 1915 1341.625 c 132,-1,2
 1915 1324 1915 1324 1891.5 1324 c 4,3,4
 1879.75 1324 1879.75 1324 1879.75 1329.875 c 132,-1,5
 1879.75 1335.75 1879.75 1335.75 1891.5 1347.5 c 132,-1,0
 1903.25 1359.25 1903.25 1359.25 1909.125 1359.25 c 132,-1,1
1089.5 1645 m 132,-1,7
 1095 1645 1095 1645 1095 1627 c 132,-1,8
 1095 1609 1095 1609 1078.84374896 1609 c 132,-1,9
 1062.68749791 1609 1062.68749791 1609 1062.68749791 1615.04667059 c 132,-1,10
 1062.68749791 1621.02343515 1062.68749791 1621.02343515 1073.34374896 1633.01171758 c 132,-1,6
 1084 1645 1084 1645 1089.5 1645 c 132,-1,7
1612.75212422 1590.65825497 m 4,11,12
 1651 1590.65825497 1651 1590.65825497 1651 1542.32912748 c 132,-1,13
 1651 1494 1651 1494 1712.5 1474.73493976 c 132,-1,14
 1774 1455.46987952 1774 1455.46987952 1774 1361.69509028 c 4,15,16
 1774 1241 1774 1241 1891.24124067 1241 c 4,17,18
 1965 1241 1965 1241 1965 1192.5 c 132,-1,19
 1965 1144 1965 1144 1893 1144 c 132,-1,20
 1821 1144 1821 1144 1821 1176.5 c 132,-1,21
 1821 1209 1821 1209 1770.25577299 1209 c 4,22,23
 1686.63998233 1209 1686.63998233 1209 1686.63998233 1126.43424269 c 6,24,25
 1686.63998233 1126.43424269 1686.63998233 1126.43424269 1686.64486694 1102.70414918 c 132,-1,26
 1686.64975155 1078.97405567 1686.64975155 1078.97405567 1659.82487578 1076.98702783 c 132,-1,27
 1633 1075 1633 1075 1577 1021 c 132,-1,28
 1521 967 1521 967 1488.5 920 c 132,-1,29
 1456 873 1456 873 1431 873 c 132,-1,30
 1406 873 1406 873 1385.07614453 927.634511497 c 132,-1,31
 1364.15228907 982.269022994 1364.15228907 982.269022994 1326.43782636 982.269022994 c 4,32,33
 1314.61031548 982.269022994 1314.61031548 982.269022994 1305.58337451 970.483850056 c 132,-1,34
 1296.55643354 958.698677119 1296.55643354 958.698677119 1274.72416957 958.698677119 c 132,-1,35
 1252.89190559 958.698677119 1252.89190559 958.698677119 1193.9459528 993.349338559 c 132,-1,36
 1135 1028 1135 1028 1035.5 1028 c 132,-1,37
 936 1028 936 1028 936 963 c 6,38,-1
 936 956 l 5,39,40
 944 941 944 941 944 926.532751762 c 4,41,42
 944 894 944 894 902.5 894 c 132,-1,43
 861 894 861 894 861 929.985054316 c 5,44,45
 861 929.985054316 861 929.985054316 866.499654646 973.492527158 c 132,-1,46
 871.999309293 1017 871.999309293 1017 857.249654646 1017 c 132,-1,47
 842.5 1017 842.5 1017 798.215369812 1002.12313205 c 132,-1,48
 753.930739624 987.246264092 753.930739624 987.246264092 716.810869856 987.246264092 c 132,-1,49
 679.691000088 987.246264092 679.691000088 987.246264092 505.842370169 1002.55282843 c 5,50,51
 449.901291623 1002.55282843 449.901291623 1002.55282843 422.971323047 987.941888034 c 132,-1,52
 396.04135447 973.330947638 396.04135447 973.330947638 386.306179508 973.330947638 c 132,-1,53
 376.571004545 973.330947638 376.571004545 973.330947638 302.938583404 993.081805105 c 5,54,55
 278.432734202 993.081805105 278.432734202 993.081805105 253.329997976 976.509124877 c 132,-1,56
 228.22726175 959.93644465 228.22726175 959.93644465 201.305151246 959.93644465 c 132,-1,57
 174.383040742 959.93644465 174.383040742 959.93644465 146.639990255 989.455050369 c 4,58,59
 70 1071 70 1071 56.7177530843 1335.94587269 c 4,60,61
 51 1450 51 1450 42.2328461534 1466.07311539 c 132,-1,62
 33.4656923069 1482.14623077 33.4656923069 1482.14623077 33.4656923069 1488.07311539 c 132,-1,63
 33.4656923069 1494 33.4656923069 1494 62.7328461534 1494 c 132,-1,64
 92 1494 92 1494 154.637907353 1556.63790735 c 132,-1,65
 217.275814705 1619.2758147 217.275814705 1619.2758147 248.75587446 1619.2758147 c 132,-1,66
 280.235934215 1619.2758147 280.235934215 1619.2758147 289.742145647 1583.56329067 c 132,-1,67
 299.248357079 1547.85076665 299.248357079 1547.85076665 310.6808175 1547.85076665 c 132,-1,68
 322.113277922 1547.85076665 322.113277922 1547.85076665 338.885149286 1564.37956742 c 132,-1,69
 355.657020651 1580.90836818 355.657020651 1580.90836818 373.937372304 1580.90836818 c 132,-1,70
 392.217723957 1580.90836818 392.217723957 1580.90836818 500.764448914 1557.75294935 c 5,71,72
 523.963454181 1557.75294935 523.963454181 1557.75294935 524.481727091 1583.37647468 c 132,-1,73
 525 1609 525 1609 582.5 1609 c 132,-1,74
 640 1609 640 1609 647.710942887 1579.77958485 c 132,-1,75
 655.421885774 1550.5591697 655.421885774 1550.5591697 680.495271822 1550.5591697 c 5,76,77
 680.495271822 1550.5591697 680.495271822 1550.5591697 765.334887788 1568.38209003 c 5,78,79
 791.797649323 1568.38209003 791.797649323 1568.38209003 809.735861668 1556.67242364 c 132,-1,80
 827.674074014 1544.96275724 827.674074014 1544.96275724 842.436625503 1544.96275724 c 132,-1,81
 857.199176992 1544.96275724 857.199176992 1544.96275724 877.061925864 1566.17978444 c 132,-1,82
 896.924674736 1587.39681165 896.924674736 1587.39681165 928.394196423 1587.39681165 c 132,-1,83
 959.863718111 1587.39681165 959.863718111 1587.39681165 966.787563557 1574.01071045 c 132,-1,84
 973.711409004 1560.62460926 973.711409004 1560.62460926 1053.88283721 1560.62460926 c 132,-1,85
 1134.05426541 1560.62460926 1134.05426541 1560.62460926 1179.5271327 1584.81230463 c 132,-1,86
 1225 1609 1225 1609 1283 1609 c 132,-1,87
 1341 1609 1341 1609 1358.87595533 1566.54460609 c 4,88,89
 1364.98947849 1552.02498859 1364.98947849 1552.02498859 1374.20706488 1552.02498859 c 132,-1,90
 1383.42465128 1552.02498859 1383.42465128 1552.02498859 1395.5969037 1574.23934925 c 132,-1,91
 1407.76915611 1596.4537099 1407.76915611 1596.4537099 1407.76915611 1602.29192416 c 132,-1,92
 1407.76915611 1608.13013842 1407.76915611 1608.13013842 1405.38916976 1620.50931328 c 132,-1,93
 1403.00918341 1632.88848813 1403.00918341 1632.88848813 1413.49119684 1648.28394536 c 132,-1,94
 1423.97321027 1663.67940258 1423.97321027 1663.67940258 1437.80720256 1663.67940258 c 4,95,96
 1485.39520301 1663.67940258 1485.39520301 1663.67940258 1495.3613553 1612.03661343 c 4,97,98
 1500 1588 1500 1588 1518 1566 c 132,-1,99
 1536 1544 1536 1544 1555.58501356 1544 c 132,-1,100
 1575 1544 1575 1544 1583.69124358 1567.32912748 c 132,-1,101
 1592.38248715 1590.65825497 1592.38248715 1590.65825497 1612.75212422 1590.65825497 c 4,11,12
EndSplineSet
EndChar

StartChar: period
Encoding: 46 46 17
Width: 2000
GlyphClass: 1
Flags: W
LayerCount: 2
Fore
SplineSet
1295 468 m 5,0,1
 1289.560895 462.016984502 1289.560895 462.016984502 1273.14243106 462.016984502 c 132,-1,2
 1256.72396711 462.016984502 1256.72396711 462.016984502 1256.72396711 472.618587802 c 132,-1,3
 1256.72396711 483.220191102 1256.72396711 483.220191102 1272.60051404 483.220191102 c 132,-1,4
 1288.47706096 483.220191102 1288.47706096 483.220191102 1295 468 c 5,0,1
941.126183977 1160.56531125 m 5,5,6
 941.126183977 1160.56531125 941.126183977 1160.56531125 979.817142023 1157.71963723 c 132,-1,7
 1018.50810007 1154.87396321 1018.50810007 1154.87396321 1041.25405004 1170.43698161 c 132,-1,8
 1064 1186 1064 1186 1085.75 1186 c 132,-1,9
 1107.5 1186 1107.5 1186 1280 1053 c 5,10,11
 1356.70702899 1053 1356.70702899 1053 1356.70702899 960.273466533 c 4,12,13
 1356.70702899 922.804685994 1356.70702899 922.804685994 1346.04724999 915.698166657 c 132,-1,14
 1335.38747098 908.59164732 1335.38747098 908.59164732 1335.38747098 893.183599963 c 132,-1,15
 1335.38747098 877.775552606 1335.38747098 877.775552606 1355.02958959 837.7159686 c 132,-1,16
 1374.6717082 797.656384595 1374.6717082 797.656384595 1374.6717082 761.514094089 c 132,-1,17
 1374.6717082 725.371803584 1374.6717082 725.371803584 1338.8358541 696.185901792 c 132,-1,18
 1303 667 1303 667 1303 587.950426217 c 132,-1,19
 1303 508.900852434 1303 508.900852434 1276.52826997 508.900852434 c 5,20,21
 1276.52826997 508.900852434 1276.52826997 508.900852434 1220.65795509 533 c 5,22,23
 1198 533 1198 533 1183.47159547 466.849392135 c 4,24,25
 1157.14874918 346.996432439 1157.14874918 346.996432439 1082.7697108 346.996432439 c 5,26,27
 1082.7697108 346.996432439 1082.7697108 346.996432439 998.160409852 361.193960398 c 5,28,29
 998.160409852 361.193960398 998.160409852 361.193960398 911.477078316 342 c 5,30,31
 876 342 876 342 758 457 c 5,32,-1
 620 587 l 5,33,-1
 635 681 l 5,34,-1
 667 858 l 5,35,36
 687.066666667 1024.26666667 687.066666667 1024.26666667 815.577948648 1031.03041835 c 4,37,38
 902 1035.57894737 902 1035.57894737 902 1110.29335271 c 4,39,40
 902 1160.56531125 902 1160.56531125 941.126183977 1160.56531125 c 5,5,6
EndSplineSet
EndChar

StartChar: slash
Encoding: 47 47 18
Width: 2000
GlyphClass: 1
Flags: W
LayerCount: 2
Fore
SplineSet
919 1934 m 132,-1,1
 919 1944 919 1944 929 1944 c 132,-1,2
 939 1944 939 1944 939 1934 c 132,-1,3
 939 1924 939 1924 929 1924 c 132,-1,0
 919 1924 919 1924 919 1934 c 132,-1,1
1109.16774231 2114.22067804 m 4,4,5
 1131.87481256 2114.22067804 1131.87481256 2114.22067804 1178.19037212 2231.7909446 c 132,-1,6
 1224.50593167 2349.36121117 1224.50593167 2349.36121117 1224.50593167 2365.42012875 c 132,-1,7
 1224.50593167 2381.47904634 1224.50593167 2381.47904634 1222.25321807 2398.91048866 c 132,-1,8
 1220.00050448 2416.34193098 1220.00050448 2416.34193098 1297.50025224 2488.17096549 c 132,-1,9
 1375 2560 1375 2560 1405 2670 c 132,-1,10
 1435 2780 1435 2780 1491.50198237 2786.90100548 c 4,11,12
 1566 2796 1566 2796 1598.5 2984 c 132,-1,13
 1631 3172 1631 3172 1737 3172 c 5,14,-1
 1961 3272 l 5,15,16
 2051 3272 2051 3272 2051 3138 c 5,17,-1
 2043 2987 l 6,18,19
 2035 2836 2035 2836 1985.93410828 2836 c 4,20,21
 1955 2836 1955 2836 1949 2768 c 132,-1,22
 1943 2700 1943 2700 1901 2690 c 132,-1,23
 1859 2680 1859 2680 1831 2638 c 132,-1,24
 1803 2596 1803 2596 1803 2534.36363636 c 132,-1,25
 1803 2472.72727272 1803 2472.72727272 1761.24925003 2461.34070455 c 132,-1,26
 1719.49850006 2449.95413638 1719.49850006 2449.95413638 1719.49850006 2410.11993191 c 4,27,28
 1719.49850006 2390.87537498 1719.49850006 2390.87537498 1741.24925003 2385.43768749 c 132,-1,29
 1763 2380 1763 2380 1763 2348 c 132,-1,30
 1763 2316 1763 2316 1721.67809813 2297.47638882 c 4,31,32
 1647 2264 1647 2264 1579.55685563 2127.13008937 c 132,-1,33
 1512.11371126 1990.26017873 1512.11371126 1990.26017873 1475.52026071 1990.26017873 c 5,34,35
 1475.52026071 1990.26017873 1475.52026071 1990.26017873 1472.85311454 1990.3435375 c 4,36,37
 1446.6866152 1990.3435375 1446.6866152 1990.3435375 1432.8433076 1917.17176875 c 132,-1,38
 1419 1844 1419 1844 1367.5 1768 c 132,-1,39
 1316 1692 1316 1692 1286 1692 c 132,-1,40
 1256 1692 1256 1692 1255.5 1662 c 132,-1,41
 1255 1632 1255 1632 1225 1578 c 132,-1,42
 1195 1524 1195 1524 1195 1513 c 132,-1,43
 1195 1502 1195 1502 1168.4639477 1432.75748854 c 4,44,45
 1067 1168 1067 1168 971 1072 c 132,-1,46
 875 976 875 976 875 880.903922781 c 132,-1,47
 875 785.807845561 875 785.807845561 832.592095216 785.807845561 c 6,48,49
 832.592095216 785.807845561 832.592095216 785.807845561 828.574061484 785.892150547 c 4,50,51
 778.280246528 785.892150547 778.280246528 785.892150547 750.640123264 704.946075274 c 132,-1,52
 723 624 723 624 691 578 c 132,-1,53
 659 532 659 532 659 502 c 132,-1,54
 659 472 659 472 647 456 c 132,-1,55
 635 440 635 440 577 410 c 132,-1,56
 519 380 519 380 519 350 c 132,-1,57
 519 320 519 320 453 226 c 132,-1,58
 387 132 387 132 367 132 c 132,-1,59
 347 132 347 132 347 76 c 132,-1,60
 347 20 347 20 315 -40 c 132,-1,61
 283 -100 283 -100 203 -102 c 132,-1,62
 123 -104 123 -104 95.0194591302 -123.586378609 c 132,-1,63
 67.0389182605 -143.172757218 67.0389182605 -143.172757218 42.1185729971 -143.172757218 c 132,-1,64
 17.1982277337 -143.172757218 17.1982277337 -143.172757218 -17.3316225815 -120.653289621 c 132,-1,65
 -51.8614728967 -98.1338220239 -51.8614728967 -98.1338220239 -51.8614728967 -67.9435390469 c 132,-1,66
 -51.8614728967 -37.7532560699 -51.8614728967 -37.7532560699 -40.4307364484 65.123371965 c 132,-1,67
 -29 168 -29 168 -3 194 c 132,-1,68
 23 220 23 220 57 310 c 132,-1,69
 91 400 91 400 91 440 c 132,-1,70
 91 480 91 480 157 514 c 132,-1,71
 223 548 223 548 237 568 c 132,-1,72
 251 588 251 588 271 692 c 132,-1,73
 291 796 291 796 339 818 c 132,-1,74
 387 840 387 840 427.01358687 914.02513571 c 132,-1,75
 467 988 467 988 481 1060 c 132,-1,76
 495 1132 495 1132 513 1138 c 132,-1,77
 531 1144 531 1144 587 1256 c 132,-1,78
 643 1368 643 1368 643 1394 c 132,-1,79
 643 1420 643 1420 713.930458889 1461.4876269 c 4,80,81
 855 1544 855 1544 855 1638 c 132,-1,82
 855 1732 855 1732 911 1762 c 132,-1,83
 967 1792 967 1792 967 1826.77333265 c 5,84,85
 967 1826.77333265 967 1826.77333265 947.080218063 1889.90777883 c 5,86,87
 947.080218063 1904.97420744 947.080218063 1904.97420744 975.040109031 1916.48710372 c 132,-1,88
 1003 1928 1003 1928 1046.60072625 2021.14700608 c 132,-1,89
 1090.2014525 2114.29401216 1090.2014525 2114.29401216 1107.68371997 2114.29401216 c 6,90,91
 1107.68371997 2114.29401216 1107.68371997 2114.29401216 1109.16774231 2114.22067804 c 4,4,5
EndSplineSet
EndChar

StartChar: zero
Encoding: 48 48 19
Width: 2000
GlyphClass: 1
Flags: W
LayerCount: 2
Fore
SplineSet
1236.37147659 451.457832587 m 132,-1,1
 1223.355131 451.457832587 1223.355131 451.457832587 1223.355131 457.317699044 c 132,-1,2
 1223.355131 463.177565501 1223.355131 463.177565501 1236.37147659 465.588782751 c 132,-1,3
 1249.38782219 468 1249.38782219 468 1249.38782219 459.728916293 c 132,-1,0
 1249.38782219 451.457832587 1249.38782219 451.457832587 1236.37147659 451.457832587 c 132,-1,1
853 1070 m 132,-1,5
 853 1080 853 1080 863 1080 c 132,-1,6
 873 1080 873 1080 873 1070 c 132,-1,7
 873 1060 873 1060 863 1060 c 132,-1,4
 853 1060 853 1060 853 1070 c 132,-1,5
1169 1120.5 m 4,8,9
 1169 1163.70127321 1169 1163.70127321 1190.90016986 1163.70127321 c 132,-1,10
 1212.80033972 1163.70127321 1212.80033972 1163.70127321 1254.90016986 1127.85063661 c 132,-1,11
 1297 1092 1297 1092 1297 1066 c 132,-1,12
 1297 1040 1297 1040 1250.61628316 1040 c 4,13,14
 1169 1040 1169 1040 1169 1120.5 c 4,8,9
1041 1260 m 5,15,16
 1077 1260 1077 1260 1077 1202 c 132,-1,17
 1077 1144 1077 1144 1049.86617586 1144 c 132,-1,18
 1022.73235172 1144 1022.73235172 1144 1022.73235172 1192.86617586 c 132,-1,19
 1022.73235172 1241.73235172 1022.73235172 1241.73235172 1041 1260 c 5,15,16
1189 1314 m 132,-1,21
 1189 1336 1189 1336 1221 1336 c 132,-1,22
 1253 1336 1253 1336 1253 1314 c 132,-1,23
 1253 1292 1253 1292 1221 1292 c 132,-1,20
 1189 1292 1189 1292 1189 1314 c 132,-1,21
869 1348 m 132,-1,25
 869 1320 869 1320 854.504962682 1310.33664179 c 132,-1,26
 840.009925364 1300.67328358 840.009925364 1300.67328358 830.504962682 1300.67328358 c 132,-1,27
 821 1300.67328358 821 1300.67328358 821 1338.33664179 c 132,-1,28
 821 1376 821 1376 845 1376 c 132,-1,24
 869 1376 869 1376 869 1348 c 132,-1,25
1410.34319902 1451.70753842 m 4,29,30
 1441 1451.70753842 1441 1451.70753842 1441 1413.85376921 c 132,-1,31
 1441 1376 1441 1376 1409.75989561 1376 c 132,-1,32
 1378.51979122 1376 1378.51979122 1376 1378.51979122 1414.25521488 c 4,33,34
 1378.51979122 1429.51979122 1378.51979122 1429.51979122 1389.61366482 1440.61366482 c 132,-1,35
 1400.70753842 1451.70753842 1400.70753842 1451.70753842 1410.34319902 1451.70753842 c 4,29,30
1021 1439.05842198 m 132,-1,37
 1021 1462.11684397 1021 1462.11684397 1053 1462.11684397 c 132,-1,38
 1085 1462.11684397 1085 1462.11684397 1085 1439.05842198 c 132,-1,39
 1085 1416 1085 1416 1053 1416 c 132,-1,36
 1021 1416 1021 1416 1021 1439.05842198 c 132,-1,37
664.5 1524 m 4,40,41
 721 1524 721 1524 721 1430 c 132,-1,42
 721 1336 721 1336 687 1336 c 132,-1,43
 653 1336 653 1336 639.247380964 1393.45538619 c 132,-1,44
 625.494761927 1450.91077239 625.494761927 1450.91077239 625.494761927 1473.54225268 c 4,45,46
 625.494761927 1524 625.494761927 1524 664.5 1524 c 4,40,41
1235 1506.65727366 m 132,-1,48
 1213 1506.65727366 1213 1506.65727366 1213 1534.1651826 c 132,-1,49
 1213 1561.67309153 1213 1561.67309153 1235 1561.67309153 c 132,-1,50
 1257 1561.67309153 1257 1561.67309153 1257 1534.1651826 c 132,-1,47
 1257 1506.65727366 1257 1506.65727366 1235 1506.65727366 c 132,-1,48
909.420798253 1525.52031979 m 4,51,52
 909.420798253 1505.35308245 909.420798253 1505.35308245 899.918820428 1505.35308245 c 132,-1,53
 890.416842602 1505.35308245 890.416842602 1505.35308245 860.269200577 1521.14470446 c 132,-1,54
 830.121558552 1536.93632647 830.121558552 1536.93632647 830.121558552 1555.66913733 c 132,-1,55
 830.121558552 1574.40194819 830.121558552 1574.40194819 841.494730706 1588.61841338 c 132,-1,56
 852.867902861 1602.83487858 852.867902861 1602.83487858 866.591253031 1602.83487858 c 4,57,58
 909.420798253 1602.83487858 909.420798253 1602.83487858 909.420798253 1525.52031979 c 4,51,52
1381 1622.72063143 m 4,59,60
 1381 1649.14398425 1381 1649.14398425 1421.12270554 1649.14398425 c 132,-1,61
 1461.24541108 1649.14398425 1461.24541108 1649.14398425 1461.24541108 1610.07650248 c 4,62,63
 1461.24541108 1588 1461.24541108 1588 1421.12270554 1588 c 132,-1,64
 1381 1588 1381 1588 1381 1622.72063143 c 4,59,60
1241 1756 m 132,-1,66
 1269 1756 1269 1756 1269 1726 c 132,-1,67
 1269 1696 1269 1696 1241 1696 c 132,-1,68
 1213 1696 1213 1696 1213 1726 c 132,-1,65
 1213 1756 1213 1756 1241 1756 c 132,-1,66
1257 1932 m 5,69,70
 1247 1928 1247 1928 1235 1928 c 132,-1,71
 1223 1928 1223 1928 1209 1932 c 5,72,73
 1217 1936 1217 1936 1233 1940 c 5,74,-1
 1261 1936 l 5,75,-1
 1257 1932 l 5,69,70
873 2170 m 132,-1,77
 873 2180 873 2180 883 2180 c 132,-1,78
 893 2180 893 2180 893 2170 c 132,-1,79
 893 2160 893 2160 883 2160 c 132,-1,76
 873 2160 873 2160 873 2170 c 132,-1,77
1264.5 2210 m 132,-1,81
 1273 2210 1273 2210 1273 2195 c 132,-1,82
 1273 2180 1273 2180 1247.5 2180 c 132,-1,83
 1222 2180 1222 2180 1222 2185 c 132,-1,84
 1222 2190 1222 2190 1239 2200 c 132,-1,80
 1256 2210 1256 2210 1264.5 2210 c 132,-1,81
1041 2318 m 132,-1,86
 1041 2328 1041 2328 1051 2328 c 132,-1,87
 1061 2328 1061 2328 1061 2318 c 132,-1,88
 1061 2308 1061 2308 1051 2308 c 132,-1,85
 1041 2308 1041 2308 1041 2318 c 132,-1,86
862.916832358 2370.06098961 m 132,-1,90
 844.204861128 2383.78310184 844.204861128 2383.78310184 844.204861128 2410.73415669 c 132,-1,91
 844.204861128 2437.68521155 844.204861128 2437.68521155 864.795888553 2437.68521155 c 132,-1,92
 885.386915978 2437.68521155 885.386915978 2437.68521155 904.276561307 2416.57325501 c 132,-1,93
 923.166206635 2395.46129847 923.166206635 2395.46129847 923.166206635 2375.90008792 c 132,-1,94
 923.166206635 2356.33887737 923.166206635 2356.33887737 902.397505112 2356.33887737 c 132,-1,89
 881.628803589 2356.33887737 881.628803589 2356.33887737 862.916832358 2370.06098961 c 132,-1,90
82.0350218928 1705.18676852 m 132,-1,96
 55.0700437856 1726.37353703 55.0700437856 1726.37353703 55.0700437856 1729.3677075 c 132,-1,97
 55.0700437856 1732.36187798 55.0700437856 1732.36187798 127.976380915 1872.80982055 c 5,98,99
 127.976380915 1887.60625068 127.976380915 1887.60625068 125.570472376 1913.79120493 c 132,-1,100
 123.164563838 1939.97615918 123.164563838 1939.97615918 172.225183384 2047.5321328 c 132,-1,101
 221.285802931 2155.08810643 221.285802931 2155.08810643 221.285802931 2169.27377133 c 132,-1,102
 221.285802931 2183.45943624 221.285802931 2183.45943624 219.550000343 2198.86247053 c 132,-1,103
 217.814197755 2214.26550483 217.814197755 2214.26550483 244.712852593 2226.92369534 c 132,-1,104
 271.61150743 2239.58188585 271.61150743 2239.58188585 271.61150743 2264.68231822 c 132,-1,105
 271.61150743 2289.78275058 271.61150743 2289.78275058 269.41919272 2327.30399981 c 132,-1,106
 267.226878009 2364.82524905 267.226878009 2364.82524905 300.21831125 2364.82524905 c 5,107,108
 300.21831125 2364.82524905 300.21831125 2364.82524905 328.36474576 2363.91741607 c 132,-1,109
 356.511180269 2363.00958309 356.511180269 2363.00958309 368.755590135 2373.50479154 c 132,-1,110
 381 2384 381 2384 397 2438 c 132,-1,111
 413 2492 413 2492 453 2526 c 132,-1,112
 493 2560 493 2560 493 2590 c 132,-1,113
 493 2620 493 2620 553.407551093 2620 c 4,114,115
 685 2620 685 2620 685 2783.98468294 c 4,116,117
 685 2817.71663518 685 2817.71663518 689.78826912 2817.71663518 c 132,-1,118
 694.57653824 2817.71663518 694.57653824 2817.71663518 701.470612147 2800.23523348 c 4,119,120
 727.873024878 2733.28625834 727.873024878 2733.28625834 786.663924162 2733.28625834 c 5,121,122
 786.663924162 2733.28625834 786.663924162 2733.28625834 906.411301594 2764 c 5,123,124
 929 2764 929 2764 945.982279935 2749.63037852 c 132,-1,125
 962.96455987 2735.26075703 962.96455987 2735.26075703 979.612658452 2735.26075703 c 132,-1,126
 996.260757033 2735.26075703 996.260757033 2735.26075703 1009.28528592 2748.28528592 c 132,-1,127
 1022.30981481 2761.30981481 1022.30981481 2761.30981481 1022.30981481 2764.6549074 c 132,-1,128
 1022.30981481 2768 1022.30981481 2768 1015.10885724 2768 c 132,-1,129
 1007.90789967 2768 1007.90789967 2768 1007.90789967 2775.38070636 c 132,-1,130
 1007.90789967 2782.76141272 1007.90789967 2782.76141272 1014.95364032 2795.91346193 c 4,131,132
 1046.5538324 2854.90048715 1046.5538324 2854.90048715 1120.56983606 2854.90048715 c 4,133,134
 1146.28276499 2854.90048715 1146.28276499 2854.90048715 1159.6413825 2843.45024358 c 132,-1,135
 1173 2832 1173 2832 1181.66969971 2775.6469519 c 132,-1,136
 1190.33939941 2719.29390381 1190.33939941 2719.29390381 1207.54380972 2719.29390381 c 5,137,138
 1207.54380972 2719.29390381 1207.54380972 2719.29390381 1271.33486312 2736.54025839 c 5,139,140
 1318.03287178 2736.54025839 1318.03287178 2736.54025839 1355.26793288 2695.0088441 c 132,-1,141
 1392.50299397 2653.4774298 1392.50299397 2653.4774298 1401.23421242 2653.4774298 c 132,-1,142
 1409.96543087 2653.4774298 1409.96543087 2653.4774298 1435.48271544 2656.7387149 c 132,-1,143
 1461 2660 1461 2660 1509 2622 c 132,-1,144
 1557 2584 1557 2584 1599 2522 c 132,-1,145
 1641 2460 1641 2460 1679 2442 c 132,-1,146
 1717 2424 1717 2424 1735 2392 c 132,-1,147
 1753 2360 1753 2360 1781 2246 c 132,-1,148
 1809 2132 1809 2132 1831 2112 c 132,-1,149
 1853 2092 1853 2092 1875 2008 c 132,-1,150
 1897 1924 1897 1924 1908.47868649 1894.66557898 c 132,-1,151
 1919.95737298 1865.33115795 1919.95737298 1865.33115795 1919.95737298 1851.0508883 c 132,-1,152
 1919.95737298 1836.77061865 1919.95737298 1836.77061865 1896.22632646 1745.58716314 c 5,153,154
 1896.22632646 1718.87038273 1896.22632646 1718.87038273 1920.61316323 1691.43519137 c 132,-1,155
 1945 1664 1945 1664 1945 1628 c 132,-1,156
 1945 1592 1945 1592 1927.4894918 1590.72650849 c 4,157,158
 1890 1588 1890 1588 1889.5 1416 c 132,-1,159
 1889 1244 1889 1244 1835 1148 c 132,-1,160
 1781 1052 1781 1052 1757 942 c 132,-1,161
 1733 832 1733 832 1715 812 c 132,-1,162
 1697 792 1697 792 1639 774 c 132,-1,163
 1581 756 1581 756 1529 696 c 132,-1,164
 1477 636 1477 636 1477 590 c 132,-1,165
 1477 544 1477 544 1450.00259711 529.151428414 c 132,-1,166
 1423.00519423 514.302856827 1423.00519423 514.302856827 1405.23497817 514.302856827 c 132,-1,167
 1387.46476212 514.302856827 1387.46476212 514.302856827 1372.48196994 536.777045092 c 132,-1,168
 1357.49917776 559.251233357 1357.49917776 559.251233357 1337.22678144 559.251233357 c 132,-1,169
 1316.95438512 559.251233357 1316.95438512 559.251233357 1287.87846846 525.850797222 c 132,-1,170
 1258.80255181 492.450361088 1258.80255181 492.450361088 1239.03702157 492.450361088 c 132,-1,171
 1219.27149134 492.450361088 1219.27149134 492.450361088 1203.93009379 506.889323488 c 132,-1,172
 1188.58869624 521.328285888 1188.58869624 521.328285888 1174.84229877 521.328285888 c 132,-1,173
 1161.09590129 521.328285888 1161.09590129 521.328285888 1046.31753265 495.049448694 c 5,174,175
 1046.31753265 495.049448694 1046.31753265 495.049448694 981.016799942 511.550996924 c 5,176,177
 949.981345018 511.550996924 949.981345018 511.550996924 915.490672509 473.775498462 c 132,-1,178
 881 436 881 436 851 436 c 132,-1,179
 821 436 821 436 821 466 c 132,-1,180
 821 496 821 496 749 544 c 132,-1,181
 677 592 677 592 658 592 c 132,-1,182
 639 592 639 592 594.710014567 607.210702068 c 4,183,184
 334.774407584 696.481516587 334.774407584 696.481516587 318.129207268 879.578720047 c 4,185,186
 313 936 313 936 289 956 c 132,-1,187
 265 976 265 976 263 1028 c 132,-1,188
 261 1080 261 1080 215 1104 c 132,-1,189
 169 1128 169 1128 169 1166 c 132,-1,190
 169 1204 169 1204 179.393394075 1216.7030372 c 132,-1,191
 189.786788149 1229.4060744 189.786788149 1229.4060744 189.786788149 1247.34690757 c 132,-1,192
 189.786788149 1265.28774074 189.786788149 1265.28774074 158.53608705 1300.79990108 c 132,-1,193
 127.285385952 1336.31206142 127.285385952 1336.31206142 127.285385952 1356.12721776 c 132,-1,194
 127.285385952 1375.94237411 127.285385952 1375.94237411 130.116167225 1411.13488586 c 132,-1,195
 132.946948498 1446.32739761 132.946948498 1446.32739761 107.851316412 1466.04539425 c 132,-1,196
 82.7556843265 1485.76339089 82.7556843265 1485.76339089 82.7556843265 1502.22317233 c 132,-1,197
 82.7556843265 1518.68295377 82.7556843265 1518.68295377 109 1656.26335067 c 5,198,95
 109 1684 109 1684 82.0350218928 1705.18676852 c 132,-1,96
1151.42997198 1045.51458224 m 4,199,200
 1151.42997198 1022.60196077 1151.42997198 1022.60196077 1123.92862724 984.100078134 c 132,-1,201
 1096.4272825 945.598195498 1096.4272825 945.598195498 1096.4272825 921.6590344 c 132,-1,202
 1096.4272825 897.719873302 1096.4272825 897.719873302 1114.20946088 897.719873302 c 132,-1,203
 1131.99163927 897.719873302 1131.99163927 897.719873302 1148.03765761 949.853587046 c 132,-1,204
 1164.08367595 1001.98730079 1164.08367595 1001.98730079 1205.86531101 1001.98730079 c 4,205,206
 1228.22031873 1001.98730079 1228.22031873 1001.98730079 1257 984 c 5,207,208
 1349 984 1349 984 1349 1167.32925904 c 4,209,210
 1349 1232 1349 1232 1359 1244 c 132,-1,211
 1369 1256 1369 1256 1411 1262 c 132,-1,212
 1453 1268 1453 1268 1469 1288 c 132,-1,213
 1485 1308 1485 1308 1503 1364 c 132,-1,214
 1521 1420 1521 1420 1521 1436.5 c 132,-1,215
 1521 1453 1521 1453 1497 1594 c 5,216,-1
 1505 1686 l 5,217,218
 1505 1808 1505 1808 1453.28603142 1808 c 5,219,220
 1453.28603142 1808 1453.28603142 1808 1401.09603899 1785.92489697 c 5,221,222
 1390.08261333 1785.92489697 1390.08261333 1785.92489697 1377.69411869 1797.18716483 c 132,-1,223
 1365.30562405 1808.44943269 1365.30562405 1808.44943269 1365.30562405 1824.88027841 c 4,224,225
 1365.30562405 1876.51515206 1365.30562405 1876.51515206 1416.85577069 1876.51515206 c 5,226,227
 1416.85577069 1876.51515206 1416.85577069 1876.51515206 1449.56356911 1872.60758751 c 132,-1,228
 1482.27136752 1868.70002295 1482.27136752 1868.70002295 1482.27136752 1883.44445591 c 4,229,230
 1482.27136752 1973.1959707 1482.27136752 1973.1959707 1405.74251796 2038.79212746 c 4,231,232
 1381 2060 1381 2060 1381 2070 c 132,-1,233
 1381 2080 1381 2080 1405.68498554 2106.13704352 c 132,-1,234
 1430.36997108 2132.27408703 1430.36997108 2132.27408703 1430.36997108 2173.74658697 c 132,-1,235
 1430.36997108 2215.2190869 1430.36997108 2215.2190869 1351.68498554 2281.60954345 c 132,-1,236
 1273 2348 1273 2348 1239 2354 c 132,-1,237
 1205 2360 1205 2360 1187 2412 c 132,-1,238
 1169 2464 1169 2464 1142.7512401 2464 c 5,239,240
 1142.7512401 2464 1142.7512401 2464 1067.80006716 2435.525712 c 5,241,242
 1050.04067388 2435.525712 1050.04067388 2435.525712 1031.52033694 2461.762856 c 132,-1,243
 1013 2488 1013 2488 919 2488 c 132,-1,244
 825 2488 825 2488 787 2456 c 132,-1,245
 749 2424 749 2424 747 2392 c 132,-1,246
 745 2360 745 2360 713 2326 c 132,-1,247
 681 2292 681 2292 647 2280 c 132,-1,248
 613 2268 613 2268 581 2212 c 132,-1,249
 549 2156 549 2156 534.448939912 2146.29929328 c 132,-1,250
 519.897879823 2136.59858655 519.897879823 2136.59858655 519.897879823 2124.47387367 c 132,-1,251
 519.897879823 2112.34916078 519.897879823 2112.34916078 523.342524414 2063.70646683 c 132,-1,252
 526.787169005 2015.06377288 526.787169005 2015.06377288 503.869358595 1995.01068877 c 132,-1,253
 480.951548186 1974.95760466 480.951548186 1974.95760466 480.951548186 1967.5865612 c 132,-1,254
 480.951548186 1960.21551774 480.951548186 1960.21551774 487.418934657 1937.58934906 c 5,255,256
 487.418934657 1924 487.418934657 1924 458.209467329 1924 c 132,-1,257
 429 1924 429 1924 429 1915.64846225 c 4,258,259
 429 1897 429 1897 557 1774 c 5,260,-1
 505 1703 l 6,261,262
 472.80952381 1659.04761905 472.80952381 1659.04761905 472.80952381 1645.52380953 c 132,-1,263
 472.80952381 1632 472.80952381 1632 486.904761905 1636 c 132,-1,264
 501 1640 501 1640 509.435236022 1640 c 4,265,266
 549 1640 549 1640 557 1464 c 5,267,-1
 557 1376 l 6,268,269
 557 1306.66666667 557 1306.66666667 502.078753148 1294.46194514 c 4,270,271
 474.784679077 1288.39659535 474.784679077 1288.39659535 474.784679077 1268.19829768 c 132,-1,272
 474.784679077 1248 474.784679077 1248 513.892339538 1248 c 132,-1,273
 553 1248 553 1248 565.381457067 1226.77464503 c 132,-1,274
 577.762914135 1205.54929005 577.762914135 1205.54929005 589.78637592 1205.54929005 c 4,275,276
 638.273727839 1205.54929005 638.273727839 1205.54929005 649.179203095 1247.35361186 c 132,-1,277
 660.08467835 1289.15793368 660.08467835 1289.15793368 678.019750799 1289.15793368 c 132,-1,278
 695.954823248 1289.15793368 695.954823248 1289.15793368 718.901826479 1275.19019258 c 132,-1,279
 741.84882971 1261.22245148 741.84882971 1261.22245148 741.84882971 1250.18055847 c 132,-1,280
 741.84882971 1239.13866546 741.84882971 1239.13866546 722.715841757 1173.81366997 c 5,281,282
 722.715841757 1137.62998556 722.715841757 1137.62998556 750.100886902 1090.68419389 c 132,-1,283
 777.485932047 1043.73840221 777.485932047 1043.73840221 777.485932047 1027.4645228 c 132,-1,284
 777.485932047 1011.1906434 777.485932047 1011.1906434 773.501358173 984.840379194 c 132,-1,285
 769.5167843 958.490114989 769.5167843 958.490114989 786.594187666 958.490114989 c 132,-1,286
 803.671591031 958.490114989 803.671591031 958.490114989 842.654644466 960.085633019 c 132,-1,287
 881.637697901 961.681151049 881.637697901 961.681151049 891.318848951 956.840575525 c 132,-1,288
 901 952 901 952 907 912 c 132,-1,289
 913 872 913 872 939 872 c 132,-1,290
 965 872 965 872 965 939.11213758 c 4,291,292
 965 1080 965 1080 1089.72363986 1080 c 4,293,294
 1151.42997198 1080 1151.42997198 1080 1151.42997198 1045.51458224 c 4,199,200
EndSplineSet
EndChar

StartChar: one
Encoding: 49 49 20
Width: 2000
GlyphClass: 1
Flags: W
LayerCount: 2
Fore
SplineSet
1279 976 m 132,-1,1
 1279 996 1279 996 1311 996 c 132,-1,2
 1343 996 1343 996 1343 976 c 132,-1,3
 1343 956 1343 956 1311 956 c 132,-1,0
 1279 956 1279 956 1279 976 c 132,-1,1
724.7859053 2338.62397209 m 132,-1,5
 697.766361778 2338.62397209 697.766361778 2338.62397209 697.766361778 2349.25965203 c 132,-1,6
 697.766361778 2359.89533197 697.766361778 2359.89533197 713.999498114 2371.79963195 c 132,-1,7
 730.232634449 2383.70393193 730.232634449 2383.70393193 741.019041636 2383.70393193 c 132,-1,8
 751.805448823 2383.70393193 751.805448823 2383.70393193 751.805448823 2361.16395201 c 132,-1,4
 751.805448823 2338.62397209 751.805448823 2338.62397209 724.7859053 2338.62397209 c 132,-1,5
1735 968 m 5,9,10
 1787 916 1787 916 1851.12102341 901.572769731 c 132,-1,11
 1915.24204683 887.145539462 1915.24204683 887.145539462 1915.24204683 870.455354293 c 132,-1,12
 1915.24204683 853.765169124 1915.24204683 853.765169124 1892.39952082 834.895256336 c 132,-1,13
 1869.55699482 816.025343548 1869.55699482 816.025343548 1869.55699482 803.265204061 c 132,-1,14
 1869.55699482 790.505064574 1869.55699482 790.505064574 1887 723.594688105 c 5,15,16
 1887 688 1887 688 1855 610 c 132,-1,17
 1823 532 1823 532 1805 532 c 132,-1,18
 1787 532 1787 532 1743 488 c 5,19,-1
 1703 440 l 5,20,-1
 1631 508 l 6,21,22
 1571 564 1571 564 1564 564 c 132,-1,23
 1557 564 1557 564 1462 548 c 132,-1,24
 1367 532 1367 532 1354.16956178 510.004963056 c 132,-1,25
 1341.33912356 488.009926111 1341.33912356 488.009926111 1301.57957482 488.009926111 c 132,-1,26
 1261.82002608 488.009926111 1261.82002608 488.009926111 1248.41001304 526.004963055 c 132,-1,27
 1235 564 1235 564 1175.67978289 586.500772008 c 132,-1,28
 1116.35956578 609.001544016 1116.35956578 609.001544016 1093.84739312 609.001544016 c 132,-1,29
 1071.33522046 609.001544016 1071.33522046 609.001544016 1007.16761023 556.500772008 c 132,-1,30
 943 504 943 504 936.565419789 496.278503747 c 132,-1,31
 930.130839578 488.557007493 930.130839578 488.557007493 924.901557221 488.557007493 c 132,-1,32
 919.672274864 488.557007493 919.672274864 488.557007493 915.058776737 500.420288389 c 4,33,34
 895 552 895 552 797 552 c 132,-1,35
 699 552 699 552 680.898291071 570.101708929 c 132,-1,36
 662.796582141 588.203417859 662.796582141 588.203417859 651.10170893 588.203417859 c 4,37,38
 607.596626213 588.203417859 607.596626213 588.203417859 607.596626213 557.224974862 c 5,39,40
 607.596626213 557.224974862 607.596626213 557.224974862 611.412779603 535.212645616 c 132,-1,41
 615.228932994 513.20031637 615.228932994 513.20031637 598.009322232 498.133156953 c 132,-1,42
 580.789711469 483.065997536 580.789711469 483.065997536 551.950387465 483.065997536 c 132,-1,43
 523.111063462 483.065997536 523.111063462 483.065997536 484.335542843 503.665492865 c 132,-1,44
 445.560022225 524.264988193 445.560022225 524.264988193 432.944957888 524.264988193 c 132,-1,45
 420.329893551 524.264988193 420.329893551 524.264988193 383.946506806 521.110231642 c 132,-1,46
 347.56312006 517.955475091 347.56312006 517.955475091 294.666846721 545.048688265 c 132,-1,47
 241.770573381 572.141901439 241.770573381 572.141901439 222.38528669 572.141901439 c 132,-1,48
 203 572.141901439 203 572.141901439 203 552.024705492 c 132,-1,49
 203 531.907509545 203 531.907509545 171.682081743 531.907509545 c 132,-1,50
 140.364163485 531.907509545 140.364163485 531.907509545 133.682081743 551.953754773 c 132,-1,51
 127 572 127 572 105 609.5 c 132,-1,52
 83 647 83 647 83 671.5 c 132,-1,53
 83 696 83 696 99 712 c 132,-1,54
 115 728 115 728 116.29265156 773.242804614 c 4,55,56
 119 868 119 868 201.391468244 868 c 4,57,58
 259 868 259 868 298.069072476 911.18160642 c 132,-1,59
 337.138144951 954.363212841 337.138144951 954.363212841 372.778346911 954.363212841 c 132,-1,60
 408.418548871 954.363212841 408.418548871 954.363212841 433.709274435 925.18160642 c 132,-1,61
 459 896 459 896 551 896 c 132,-1,62
 643 896 643 896 644.716845385 913.168453853 c 132,-1,63
 646.433690771 930.336907705 646.433690771 930.336907705 670.784987639 930.336907705 c 132,-1,64
 695.136284507 930.336907705 695.136284507 930.336907705 715 928 c 6,65,-1
 783 920 l 5,66,-1
 787 1104 l 5,67,-1
 787 1160 l 5,68,-1
 775 1249 l 6,69,70
 765.50564482 1319.41646759 765.50564482 1319.41646759 765.50564482 1344.36238261 c 132,-1,71
 765.50564482 1369.30829763 765.50564482 1369.30829763 766.099985428 1424.81975166 c 132,-1,72
 766.694326036 1480.33120569 766.694326036 1480.33120569 731.544247174 1483.03505791 c 4,73,74
 717.129672783 1484.14387132 717.129672783 1484.14387132 717.129672783 1494.33320605 c 132,-1,75
 717.129672783 1504.52254078 717.129672783 1504.52254078 725.723032038 1519.59613817 c 4,76,77
 767 1592 767 1592 767 1774 c 132,-1,78
 767 1956 767 1956 742.090603385 1964.30313221 c 4,79,80
 731 1968 731 1968 731 2006 c 132,-1,81
 731 2044 731 2044 760.758355569 2071.66269672 c 132,-1,82
 790.516711137 2099.32539345 790.516711137 2099.32539345 790.516711137 2183.51461359 c 132,-1,83
 790.516711137 2267.70383372 790.516711137 2267.70383372 787 2316 c 6,84,-1
 775 2528 l 5,85,-1
 703 2536 l 6,86,87
 695.211218445 2536.86542017 695.211218445 2536.86542017 687.849422734 2536.86542017 c 4,88,89
 627.15830317 2536.86542017 627.15830317 2536.86542017 600.617665969 2487.57566537 c 132,-1,90
 574.077028768 2438.28591057 574.077028768 2438.28591057 542.424218856 2438.28591057 c 132,-1,91
 510.771408943 2438.28591057 510.771408943 2438.28591057 504.885704471 2497.14295528 c 132,-1,92
 499 2556 499 2556 490 2556 c 132,-1,93
 481 2556 481 2556 450.468463062 2550.72836772 c 4,94,95
 203 2508 203 2508 203 2455.81716185 c 4,96,97
 203 2435.46578266 203 2435.46578266 178.113979019 2435.46578266 c 4,98,99
 124.75959708 2435.46578266 124.75959708 2435.46578266 124.75959708 2481.03907673 c 4,100,101
 124.75959708 2497.37562394 124.75959708 2497.37562394 142.631056903 2514.05565311 c 132,-1,102
 160.502516725 2530.73568228 160.502516725 2530.73568228 160.502516725 2546.74511349 c 132,-1,103
 160.502516725 2562.7545447 160.502516725 2562.7545447 146.522947897 2617.55078863 c 132,-1,104
 132.54337907 2672.34703256 132.54337907 2672.34703256 133.771689535 2682.17351628 c 132,-1,105
 135 2692 135 2692 165 2710 c 132,-1,106
 195 2728 195 2728 231 2728 c 132,-1,107
 267 2728 267 2728 312.070271076 2766.92432502 c 132,-1,108
 357.140542152 2805.84865004 357.140542152 2805.84865004 373.145946055 2805.84865004 c 132,-1,109
 389.151349958 2805.84865004 389.151349958 2805.84865004 416.075674979 2778.92432502 c 132,-1,110
 443 2752 443 2752 449 2752 c 132,-1,111
 455 2752 455 2752 490.738683656 2768.14005069 c 132,-1,112
 526.477367312 2784.28010137 526.477367312 2784.28010137 563.350465601 2784.28010137 c 132,-1,113
 600.084354341 2784.28010137 600.084354341 2784.28010137 618.217735555 2763.88004751 c 132,-1,114
 636.351116769 2743.47999364 636.351116769 2743.47999364 655.744571067 2743.47999364 c 4,115,116
 701.785705214 2743.47999364 701.785705214 2743.47999364 701.785705214 2784.88121679 c 5,117,118
 701.785705214 2784.88121679 701.785705214 2784.88121679 695.924211554 2824.05121703 c 5,119,120
 695.924211554 2856 695.924211554 2856 737.539204313 2856 c 4,121,122
 790 2856 790 2856 790.634650216 2805.22798273 c 4,123,124
 791.069891686 2770.40866515 791.069891686 2770.40866515 818.013492036 2770.40866515 c 4,125,126
 822.661644687 2770.40866515 822.661644687 2770.40866515 912.811029668 2776.00982143 c 132,-1,127
 1002.96041465 2781.6109777 1002.96041465 2781.6109777 1024.8810197 2770.76852789 c 4,128,129
 1079 2744 1079 2744 1079 2640 c 132,-1,130
 1079 2536 1079 2536 1067.59268388 2516.98780647 c 132,-1,131
 1056.18536776 2497.97561294 1056.18536776 2497.97561294 1056.18536776 2479.49612024 c 132,-1,132
 1056.18536776 2461.01662754 1056.18536776 2461.01662754 1085.05783008 2428.20701126 c 132,-1,133
 1113.93029241 2395.39739499 1113.93029241 2395.39739499 1113.93029241 2377.56545365 c 132,-1,134
 1113.93029241 2359.73351231 1113.93029241 2359.73351231 1095.02073282 2279.87001231 c 5,135,136
 1095.02073282 2253.56129874 1095.02073282 2253.56129874 1120.02435875 2206.88786367 c 132,-1,137
 1145.02798468 2160.2144286 1145.02798468 2160.2144286 1145.02798468 2023.03903933 c 132,-1,138
 1145.02798468 1885.86365006 1145.02798468 1885.86365006 1109.69730172 1847.58874353 c 4,139,140
 1099 1836 1099 1836 1099 1824 c 5,141,-1
 1120 1654 l 5,142,-1
 1157.5 1557 l 6,143,144
 1176.27329617 1508.43974058 1176.27329617 1508.43974058 1176.27329617 1472.60891354 c 132,-1,145
 1176.27329617 1436.86701291 1176.27329617 1436.86701291 1158.76310276 1415.236774 c 132,-1,146
 1141.25290936 1393.60653509 1141.25290936 1393.60653509 1141.25290936 1379.93252379 c 132,-1,147
 1141.25290936 1366.25851248 1141.25290936 1366.25851248 1165.51954322 1263.58865581 c 5,148,149
 1165.51954322 1231.66085403 1165.51954322 1231.66085403 1139.29706521 1213.15086955 c 132,-1,150
 1113.07458719 1194.64088508 1113.07458719 1194.64088508 1113.07458719 1160.66530974 c 132,-1,151
 1113.07458719 1126.68973441 1113.07458719 1126.68973441 1143.18053211 1107.67545341 c 132,-1,152
 1173.28647702 1088.66117241 1173.28647702 1088.66117241 1173.28647702 1076.17456619 c 132,-1,153
 1173.28647702 1063.68795996 1173.28647702 1063.68795996 1158.56029398 1003.63087026 c 5,154,155
 1158.56029398 970.494669268 1158.56029398 970.494669268 1198.78014699 925.247334634 c 132,-1,156
 1239 880 1239 880 1321 880 c 132,-1,157
 1403 880 1403 880 1423 938 c 132,-1,158
 1443 996 1443 996 1487 996 c 132,-1,159
 1531 996 1531 996 1548.27386811 974.739854625 c 132,-1,160
 1565.54773623 953.47970925 1565.54773623 953.47970925 1585.01372274 953.47970925 c 132,-1,161
 1604.47970925 953.47970925 1604.47970925 953.47970925 1631 980 c 5,162,-1
 1683 1024 l 5,163,-1
 1735 968 l 5,9,10
EndSplineSet
EndChar

StartChar: two
Encoding: 50 50 21
Width: 2000
GlyphClass: 1
Flags: W
LayerCount: 2
Fore
SplineSet
834 986 m 132,-1,1
 834 1016 834 1016 854 1016 c 132,-1,2
 874 1016 874 1016 874 986 c 132,-1,3
 874 956 874 956 854 956 c 132,-1,0
 834 956 834 956 834 986 c 132,-1,1
690.497618698 1106.48996534 m 4,4,5
 686 1106.48996534 686 1106.48996534 686 1125.24498267 c 132,-1,6
 686 1144 686 1144 695.105008929 1144 c 132,-1,7
 704.210017859 1144 704.210017859 1144 704.210017859 1125.24498267 c 132,-1,8
 704.210017859 1106.48996534 704.210017859 1106.48996534 690.497618698 1106.48996534 c 4,4,5
853.073123132 1250.48046499 m 4,9,10
 894 1250.48046499 894 1250.48046499 894 1219.24023249 c 132,-1,11
 894 1188 894 1188 855.823809628 1188 c 132,-1,12
 817.647619257 1188 817.647619257 1188 817.647619257 1219.7220159 c 4,13,14
 817.647619257 1228.60357166 817.647619257 1228.60357166 827.370682956 1239.54201832 c 132,-1,15
 837.093746654 1250.48046499 837.093746654 1250.48046499 853.073123132 1250.48046499 c 4,9,10
1602 1568 m 5,16,17
 1606.49860311 1585.99441244 1606.49860311 1585.99441244 1630.24930155 1585.99441244 c 132,-1,18
 1654 1585.99441244 1654 1585.99441244 1654 1564.99720622 c 132,-1,19
 1654 1544 1654 1544 1632 1544 c 132,-1,20
 1610 1544 1610 1544 1602 1568 c 5,16,17
701.410238196 1818.02015733 m 4,21,22
 726 1818.02015733 726 1818.02015733 726 1777.01007867 c 132,-1,23
 726 1736 726 1736 685.588003864 1736 c 132,-1,24
 645.176007727 1736 645.176007727 1736 645.176007727 1777.01007867 c 132,-1,25
 645.176007727 1818.02015733 645.176007727 1818.02015733 701.410238196 1818.02015733 c 4,21,22
914 1865.84725436 m 132,-1,27
 914 1827.69450872 914 1827.69450872 886.626643655 1827.69450872 c 132,-1,28
 859.253287311 1827.69450872 859.253287311 1827.69450872 859.253287311 1865.84725436 c 132,-1,29
 859.253287311 1904 859.253287311 1904 886.626643655 1904 c 132,-1,26
 914 1904 914 1904 914 1865.84725436 c 132,-1,27
742 2176 m 5,30,31
 726.340724418 2129.02217325 726.340724418 2129.02217325 710.502844003 2129.02217325 c 132,-1,32
 694.664963587 2129.02217325 694.664963587 2129.02217325 694.664963587 2169.32470504 c 132,-1,33
 694.664963587 2209.62723682 694.664963587 2209.62723682 714.007034429 2209.62723682 c 132,-1,34
 733.349105272 2209.62723682 733.349105272 2209.62723682 742 2188 c 5,35,-1
 742 2176 l 5,30,31
1198 524 m 5,36,37
 1138 572 1138 572 1113.5 572 c 132,-1,38
 1089 572 1089 572 867.570493463 547.27035201 c 5,39,40
 811.723613165 547.27035201 811.723613165 547.27035201 712.171532902 547.903081992 c 132,-1,41
 612.61945264 548.535811974 612.61945264 548.535811974 588.811933787 533.207683397 c 132,-1,42
 565.004414934 517.87955482 565.004414934 517.87955482 526.390031885 517.87955482 c 132,-1,43
 487.775648837 517.87955482 487.775648837 517.87955482 421.309142174 532.839252901 c 4,44,45
 194 584 194 584 154.632251157 702.103246528 c 4,46,47
 142 740 142 740 110 776 c 132,-1,48
 78 812 78 812 78 832 c 132,-1,49
 78 852 78 852 118 906 c 132,-1,50
 158 960 158 960 180.823474026 982.823474025 c 132,-1,51
 203.646948052 1005.64694805 203.646948052 1005.64694805 203.646948052 1021.35065442 c 132,-1,52
 203.646948052 1037.05436078 203.646948052 1037.05436078 189.942339696 1097.4025414 c 5,53,54
 189.942339696 1139.63303149 189.942339696 1139.63303149 251.971169848 1175.81651574 c 132,-1,55
 314 1212 314 1212 318 1262 c 132,-1,56
 322 1312 322 1312 368 1408 c 132,-1,57
 414 1504 414 1504 423 1504 c 132,-1,58
 432 1504 432 1504 563 1588 c 132,-1,59
 694 1672 694 1672 784 1724 c 132,-1,60
 874 1776 874 1776 1078 1860 c 5,61,62
 1090.04263832 1853.97868084 1090.04263832 1853.97868084 1114.68230072 1853.97868084 c 132,-1,63
 1139.32196311 1853.97868084 1139.32196311 1853.97868084 1168.66098156 1908.98934042 c 132,-1,64
 1198 1964 1198 1964 1256 1966 c 132,-1,65
 1314 1968 1314 1968 1366.78516682 2014.38696478 c 132,-1,66
 1419.57033364 2060.77392957 1419.57033364 2060.77392957 1419.57033364 2072.38696478 c 132,-1,67
 1419.57033364 2084 1419.57033364 2084 1400.36075902 2084 c 4,68,69
 1354.48066901 2084 1354.48066901 2084 1354.48066901 2142 c 132,-1,70
 1354.48066901 2200 1354.48066901 2200 1420.27120515 2200 c 132,-1,71
 1486.0617413 2200 1486.0617413 2200 1486.0617413 2219.20227325 c 132,-1,72
 1486.0617413 2238.40454649 1486.0617413 2238.40454649 1444.03087065 2277.20227325 c 132,-1,73
 1402 2316 1402 2316 1402 2352 c 132,-1,74
 1402 2388 1402 2388 1320 2424 c 132,-1,75
 1238 2460 1238 2460 1220.7610878 2523.20934472 c 4,76,77
 1211.56529732 2556.92724315 1211.56529732 2556.92724315 1178.77745565 2556.92724315 c 5,78,79
 1178.77745565 2556.92724315 1178.77745565 2556.92724315 1109.99093378 2553.60175166 c 132,-1,80
 1041.20441192 2550.27626018 1041.20441192 2550.27626018 1029.60220596 2575.13813009 c 132,-1,81
 1018 2600 1018 2600 990.518050588 2600 c 4,82,83
 942 2600 942 2600 939.083887506 2536.42874763 c 4,84,85
 937.633049577 2504.80048079 937.633049577 2504.80048079 931.628193526 2504.80048079 c 132,-1,86
 925.623337475 2504.80048079 925.623337475 2504.80048079 881.887808762 2521.93869085 c 5,87,88
 852.871222058 2521.93869085 852.871222058 2521.93869085 801.435611029 2484.96934543 c 132,-1,89
 750 2448 750 2448 748.518778799 2413.93191237 c 132,-1,90
 747.037557597 2379.86382474 747.037557597 2379.86382474 737.569844523 2379.86382474 c 132,-1,91
 728.102131448 2379.86382474 728.102131448 2379.86382474 702.742259883 2413.67698682 c 132,-1,92
 677.382388317 2447.49014891 677.382388317 2447.49014891 665.296662657 2447.49014891 c 132,-1,93
 653.210936998 2447.49014891 653.210936998 2447.49014891 605.605468499 2395.74507445 c 132,-1,94
 558 2344 558 2344 558 2304 c 132,-1,95
 558 2264 558 2264 549 2264 c 132,-1,96
 540 2264 540 2264 423 2316 c 132,-1,97
 306 2368 306 2368 306 2386.53371441 c 4,98,99
 306 2392 306 2392 319.61952179 2427.67017612 c 4,100,101
 390 2612 390 2612 456.989433577 2641.47535077 c 4,102,103
 490 2656 490 2656 492.392312221 2699.06161999 c 132,-1,104
 494.784624443 2742.12323997 494.784624443 2742.12323997 535.487412964 2742.12323997 c 5,105,106
 535.487412964 2742.12323997 535.487412964 2742.12323997 594.836874444 2719.31643702 c 5,107,108
 624.875042807 2719.31643702 624.875042807 2719.31643702 667.754536455 2750.13607308 c 132,-1,109
 710.634030103 2780.95570914 710.634030103 2780.95570914 727.446185069 2780.95570914 c 132,-1,110
 744.258340035 2780.95570914 744.258340035 2780.95570914 777.359666374 2777.34784456 c 132,-1,111
 810.460992714 2773.73997998 810.460992714 2773.73997998 838.057451019 2805.50799594 c 132,-1,112
 865.653909325 2837.2760119 865.653909325 2837.2760119 900.91767368 2837.2760119 c 132,-1,113
 936.181438034 2837.2760119 936.181438034 2837.2760119 971.090719017 2818.63800595 c 132,-1,114
 1006 2800 1006 2800 1035.2099793 2800 c 4,115,116
 1078 2800 1078 2800 1078 2839.82920514 c 5,117,118
 1078 2839.82920514 1078 2839.82920514 1075.00355908 2856.00403497 c 132,-1,119
 1072.00711816 2872.17886481 1072.00711816 2872.17886481 1091.5244118 2885.75611256 c 132,-1,120
 1111.04170544 2899.3333603 1111.04170544 2899.3333603 1130.01488902 2899.3333603 c 132,-1,121
 1148.9880726 2899.3333603 1148.9880726 2899.3333603 1162.02219578 2883.80334119 c 132,-1,122
 1175.05631897 2868.27332208 1175.05631897 2868.27332208 1175.05631897 2863.47354178 c 132,-1,123
 1175.05631897 2858.67376149 1175.05631897 2858.67376149 1165.10257757 2832.95051126 c 5,124,125
 1165.10257757 2816.34229355 1165.10257757 2816.34229355 1191.5772916 2788.54384382 c 132,-1,126
 1218.05200562 2760.7453941 1218.05200562 2760.7453941 1229.86264052 2760.7453941 c 132,-1,127
 1241.67327542 2760.7453941 1241.67327542 2760.7453941 1295.19801525 2780.28555845 c 5,128,129
 1320.26212553 2780.28555845 1320.26212553 2780.28555845 1343.13106277 2764.14277922 c 132,-1,130
 1366 2748 1366 2748 1391.36903327 2732.33089121 c 4,131,132
 1570 2622 1570 2622 1570 2569.50209173 c 4,133,134
 1570 2540 1570 2540 1642 2506 c 4,135,136
 1786 2438 1786 2438 1786 2105 c 132,-1,137
 1786 1772 1786 1772 1615.4948893 1685.19739819 c 4,138,139
 1566 1660 1566 1660 1516 1600 c 132,-1,140
 1466 1540 1466 1540 1466 1498.49658559 c 132,-1,141
 1466 1456.99317117 1466 1456.99317117 1452.00329668 1456.99317117 c 132,-1,142
 1438.00659336 1456.99317117 1438.00659336 1456.99317117 1396.00329668 1500.49658559 c 132,-1,143
 1354 1544 1354 1544 1307.51205848 1544 c 132,-1,144
 1261.02411696 1544 1261.02411696 1544 1261.02411696 1507.71554089 c 4,145,146
 1261.02411696 1488.24094191 1261.02411696 1488.24094191 1286.28355803 1461.2975381 c 132,-1,147
 1311.54299911 1434.35413428 1311.54299911 1434.35413428 1311.54299911 1403.55408842 c 4,148,149
 1311.54299911 1356 1311.54299911 1356 1240.77149955 1356 c 132,-1,150
 1170 1356 1170 1356 1170 1394 c 132,-1,151
 1170 1432 1170 1432 1208.91312478 1461.18484358 c 132,-1,152
 1247.82624956 1490.36968717 1247.82624956 1490.36968717 1247.82624956 1497.18484358 c 132,-1,153
 1247.82624956 1504 1247.82624956 1504 1214.91312478 1504 c 132,-1,154
 1182 1504 1182 1504 1035 1438 c 132,-1,155
 888 1372 888 1372 752 1316 c 5,156,157
 707.818181818 1316 707.818181818 1316 707.818181818 1278.51239669 c 4,158,159
 707.818181818 1270.18181818 707.818181818 1270.18181818 710 1260 c 5,160,-1
 710 1252 l 5,161,-1
 714 1244 l 5,162,-1
 678 1169 l 6,163,164
 642 1094 642 1094 518 920 c 5,165,166
 518 868 518 868 536 868 c 132,-1,167
 554 868 554 868 610 924 c 132,-1,168
 666 980 666 980 666 1004.26697055 c 132,-1,169
 666 1028.5339411 666 1028.5339411 673.180670203 1028.5339411 c 132,-1,170
 680.361340406 1028.5339411 680.361340406 1028.5339411 699.180670203 1008.26697055 c 132,-1,171
 718 988 718 988 725.939906358 972.120187284 c 4,172,173
 750.559327458 922.881345084 750.559327458 922.881345084 843.770126102 922.881345084 c 132,-1,174
 936.980924745 922.881345084 936.980924745 922.881345084 958.457302192 954.119712279 c 132,-1,175
 979.933679638 985.358079474 979.933679638 985.358079474 1004.24491446 985.358079474 c 132,-1,176
 1028.55614929 985.358079474 1028.55614929 985.358079474 1091.78583475 977.329815748 c 132,-1,177
 1155.01552022 969.301552022 1155.01552022 969.301552022 1157.53511125 969.553511125 c 4,178,179
 1182 972 1182 972 1192 1006 c 132,-1,180
 1202 1040 1202 1040 1238.99940919 1040 c 4,181,182
 1286 1040 1286 1040 1286 979.076349925 c 5,183,184
 1286 979.076349925 1286 979.076349925 1278.90852825 913.918209706 c 5,185,186
 1284.79738915 913.918209706 1284.79738915 913.918209706 1326.70504654 942.654889057 c 132,-1,187
 1368.61270393 971.391568409 1368.61270393 971.391568409 1401.54671029 971.391568409 c 132,-1,188
 1434.48071664 971.391568409 1434.48071664 971.391568409 1491.793752 968.003212612 c 132,-1,189
 1549.10678736 964.614856815 1549.10678736 964.614856815 1559.55339368 1000.30742841 c 132,-1,190
 1570 1036 1570 1036 1614 1036 c 132,-1,191
 1658 1036 1658 1036 1692 986 c 132,-1,192
 1726 936 1726 936 1801.81339764 932.967464095 c 4,193,194
 1922 928.16 1922 928.16 1922 792 c 5,195,-1
 1882 644 l 5,196,-1
 1882 636 l 6,197,198
 1882 599 1882 599 1808 577.5 c 132,-1,199
 1734 556 1734 556 1692 536 c 132,-1,200
 1650 516 1650 516 1642 516 c 132,-1,201
 1634 516 1634 516 1548.042211 534.585467892 c 132,-1,202
 1462.08442199 553.170935785 1462.08442199 553.170935785 1389.72334014 553.170935785 c 132,-1,203
 1317.3622583 553.170935785 1317.3622583 553.170935785 1298 528 c 5,204,-1
 1258 480 l 5,205,-1
 1198 524 l 5,36,37
EndSplineSet
EndChar

StartChar: three
Encoding: 51 51 22
Width: 2000
GlyphClass: 1
Flags: W
LayerCount: 2
Fore
SplineSet
144.590730132 86.9931842465 m 128,-1,1
 157.181460263 86.9931842465 157.181460263 86.9931842465 157.181460263 65.9589702353 c 128,-1,2
 157.181460263 44.9247562241 157.181460263 44.9247562241 137.0998607 44.9247562241 c 0,3,4
 132 44.9247562241 132 44.9247562241 132 65.9589702353 c 132,-1,0
 132 86.9931842465 132 86.9931842465 144.590730132 86.9931842465 c 128,-1,1
780.597254947 736.29225759 m 0,5,6
 780.597254947 692 780.597254947 692 744 692 c 132,-1,7
 707.402745053 692 707.402745053 692 707.402745053 736.29225759 c 0,8,9
 707.402745053 764 707.402745053 764 744 764 c 132,-1,10
 780.597254947 764 780.597254947 764 780.597254947 736.29225759 c 0,5,6
1000 852.954916465 m 4,11,12
 1000 792 1000 792 949.411351785 792 c 4,13,14
 916 792 916 792 897.156612661 810.843387339 c 132,-1,15
 878.313225323 829.686774677 878.313225323 829.686774677 878.313225323 837.71674792 c 128,-1,16
 878.313225323 845.746721162 878.313225323 845.746721162 904.787111888 865.737206936 c 132,-1,17
 931.260998453 885.727692709 931.260998453 885.727692709 965.630499226 885.727692709 c 128,-1,18
 1000 885.727692709 1000 885.727692709 1000 852.954916465 c 4,11,12
1676 1862 m 132,-1,20
 1676 1884 1676 1884 1706 1884 c 132,-1,21
 1736 1884 1736 1884 1736 1862 c 132,-1,22
 1736 1840 1736 1840 1706 1840 c 132,-1,19
 1676 1840 1676 1840 1676 1862 c 132,-1,20
1514 2032 m 4,23,24
 1536.61203875 2032 1536.61203875 2032 1536.61203875 1999.38796125 c 0,25,26
 1536.61203875 1992 1536.61203875 1992 1520.30601938 1992 c 132,-1,27
 1504 1992 1504 1992 1504 2012 c 132,-1,28
 1504 2032 1504 2032 1514 2032 c 4,23,24
784 2052 m 132,-1,30
 784 2012 784 2012 754 2012 c 132,-1,31
 724 2012 724 2012 724 2052 c 132,-1,32
 724 2092 724 2092 754 2092 c 132,-1,29
 784 2092 784 2092 784 2052 c 132,-1,30
938.12 2349.12 m 0,33,34
 959 2349.12 959 2349.12 959 2326.44461538 c 128,-1,35
 959 2303.76923077 959 2303.76923077 937.884615385 2303.76923077 c 0,36,37
 932 2303.76923077 932 2303.76923077 932 2326.44461538 c 132,-1,38
 932 2349.12 932 2349.12 938.12 2349.12 c 0,33,34
463.92370955 58.8730679428 m 132,-1,40
 437.566998601 72.600521562 437.566998601 72.600521562 421.320548849 72.600521562 c 128,-1,41
 405.074099097 72.600521562 405.074099097 72.600521562 296 48 c 5,42,43
 276 48 276 48 202 106 c 132,-1,44
 128 164 128 164 108 186 c 132,-1,45
 88 208 88 208 88 252 c 132,-1,46
 88 296 88 296 126 358 c 132,-1,47
 164 420 164 420 184 420 c 5,48,49
 200 412 200 412 216 412 c 132,-1,50
 232 412 232 412 290 456 c 132,-1,51
 348 500 348 500 348 526 c 132,-1,52
 348 552 348 552 365.72573649 552 c 132,-1,53
 383.451472979 552 383.451472979 552 383.451472979 526.443369266 c 1,54,55
 383.451472979 526.443369266 383.451472979 526.443369266 379.616256358 481.221684633 c 128,-1,56
 375.781039737 436 375.781039737 436 405.326122851 436 c 4,57,58
 444 436 444 436 480.707294382 483.503557436 c 132,-1,59
 517.414588765 531.007114872 517.414588765 531.007114872 535.832670576 531.007114872 c 1,60,61
 535.832670576 531.007114872 535.832670576 531.007114872 612.726573389 500.820726025 c 1,62,63
 637.460042707 500.820726025 637.460042707 500.820726025 639.902509583 542.342662905 c 4,64,65
 643.764705882 608 643.764705882 608 705.608533378 608 c 4,66,67
 748 608 748 608 808.52988736 644.397056452 c 132,-1,68
 869.05977472 680.794112903 869.05977472 680.794112903 926.18535971 680.794112903 c 128,-1,69
 983.310944701 680.794112903 983.310944701 680.794112903 1021 672 c 5,70,71
 1059.09566751 672 1059.09566751 672 1059.09566751 686.237828307 c 128,-1,72
 1059.09566751 700.475656615 1059.09566751 700.475656615 1043.01676313 720.465645843 c 132,-1,73
 1026.93785875 740.455635071 1026.93785875 740.455635071 1026.93785875 759.802961036 c 128,-1,74
 1026.93785875 779.150287 1026.93785875 779.150287 1047.46892937 795.5751435 c 132,-1,75
 1068 812 1068 812 1106 814 c 132,-1,76
 1144 816 1144 816 1154 846 c 132,-1,77
 1164 876 1164 876 1215.15152374 920.963839416 c 132,-1,78
 1266.30304748 965.927678831 1266.30304748 965.927678831 1274.70081483 965.927678831 c 128,-1,79
 1283.09858219 965.927678831 1283.09858219 965.927678831 1299.14675744 949.474784686 c 1,80,81
 1312.41570683 949.474784686 1312.41570683 949.474784686 1360.3946058 1000.5490965 c 132,-1,82
 1408.37350478 1051.62340832 1408.37350478 1051.62340832 1408.37350478 1068.55342612 c 128,-1,83
 1408.37350478 1085.48344392 1408.37350478 1085.48344392 1406.12420985 1113.56590614 c 128,-1,84
 1403.87491491 1141.64836837 1403.87491491 1141.64836837 1463.26481955 1189.90266589 c 132,-1,85
 1522.65472419 1238.15696341 1522.65472419 1238.15696341 1522.65472419 1249.70551645 c 128,-1,86
 1522.65472419 1261.2540695 1522.65472419 1261.2540695 1495.19328188 1333.9901912 c 1,87,88
 1495.19328188 1351.93757862 1495.19328188 1351.93757862 1515.59664094 1367.96878931 c 132,-1,89
 1536 1384 1536 1384 1536 1432 c 132,-1,90
 1536 1480 1536 1480 1508 1482 c 132,-1,91
 1480 1484 1480 1484 1432.21894385 1537.40235687 c 4,92,93
 1336.84210526 1644 1336.84210526 1644 1232 1644 c 5,94,-1
 1228 1640 l 5,95,-1
 1224 1640 l 5,96,97
 1212 1632 1212 1632 1190.06378591 1582.37381075 c 132,-1,98
 1168.12757182 1532.7476215 1168.12757182 1532.7476215 1145.82862157 1532.7476215 c 128,-1,99
 1123.52967133 1532.7476215 1123.52967133 1532.7476215 1095.91639223 1571.69687833 c 132,-1,100
 1068.30311312 1610.64613517 1068.30311312 1610.64613517 1008.68289197 1610.64613517 c 0,101,102
 828 1610.64613517 828 1610.64613517 828 1560.57339458 c 4,103,104
 828 1525.40645114 828 1525.40645114 756.056116257 1525.40645114 c 128,-1,105
 684.112232514 1525.40645114 684.112232514 1525.40645114 624.056116257 1591.20322557 c 132,-1,106
 564 1657 564 1657 564 1734.10038805 c 4,107,108
 564 1860 564 1860 714 1932 c 132,-1,109
 864 2004 864 2004 864 2095.79675393 c 5,110,111
 864 2095.79675393 864 2095.79675393 859.262471576 2144.84073581 c 1,112,113
 859.262471576 2208 859.262471576 2208 938 2208 c 5,114,-1
 1028 2182 l 6,115,116
 1031.17340855 2181.68265914 1031.17340855 2181.68265914 1043.74486273 2181.68265914 c 128,-1,117
 1056.3163169 2181.68265914 1056.3163169 2181.68265914 1056.3163169 2191.64301927 c 128,-1,118
 1056.3163169 2201.6033794 1056.3163169 2201.6033794 1050.83930379 2240.56309935 c 128,-1,119
 1045.36229069 2279.5228193 1045.36229069 2279.5228193 1071.47192228 2311.65775049 c 132,-1,120
 1097.58155387 2343.79268168 1097.58155387 2343.79268168 1097.58155387 2426.93649539 c 128,-1,121
 1097.58155387 2510.08030909 1097.58155387 2510.08030909 1085.3911633 2510.08030909 c 128,-1,122
 1073.20077273 2510.08030909 1073.20077273 2510.08030909 1060.60038636 2505.04015454 c 132,-1,123
 1048 2500 1048 2500 1009.02273554 2494.49473666 c 4,124,125
 871 2475 871 2475 843.433767912 2416.3334035 c 4,126,127
 832 2392 832 2392 806 2392 c 132,-1,128
 780 2392 780 2392 738.953468019 2443.30816498 c 132,-1,129
 697.906936039 2494.61632995 697.906936039 2494.61632995 658.513209368 2494.61632995 c 128,-1,130
 619.119482696 2494.61632995 619.119482696 2494.61632995 607.894553144 2476.97715494 c 132,-1,131
 596.669623591 2459.33797993 596.669623591 2459.33797993 581.951720887 2459.33797993 c 128,-1,132
 567.233818182 2459.33797993 567.233818182 2459.33797993 519.616909091 2462.28210556 c 128,-1,133
 472 2465.22623119 472 2465.22623119 472 2426.6131156 c 132,-1,134
 472 2388 472 2388 434 2388 c 132,-1,135
 396 2388 396 2388 336.803309964 2443.11415969 c 132,-1,136
 277.606619928 2498.22831938 277.606619928 2498.22831938 277.606619928 2592.2744963 c 128,-1,137
 277.606619928 2686.32067323 277.606619928 2686.32067323 312.803309964 2737.16033662 c 132,-1,138
 348 2788 348 2788 394 2788 c 132,-1,139
 440 2788 440 2788 469.35549001 2761.73456157 c 132,-1,140
 498.71098002 2735.46912314 498.71098002 2735.46912314 511.701706009 2735.46912314 c 128,-1,141
 524.692431997 2735.46912314 524.692431997 2735.46912314 594.559673509 2756.16751668 c 1,142,143
 594.559673509 2756.16751668 594.559673509 2756.16751668 673.824417715 2730.61218695 c 1,144,145
 694.612186948 2730.61218695 694.612186948 2730.61218695 713.306093474 2749.30609347 c 132,-1,146
 732 2768 732 2768 760 2768 c 132,-1,147
 788 2768 788 2768 815.929619375 2745.6563045 c 132,-1,148
 843.859238749 2723.312609 843.859238749 2723.312609 871.379706573 2723.312609 c 128,-1,149
 898.900174397 2723.312609 898.900174397 2723.312609 924.37132074 2739.23207546 c 132,-1,150
 949.842467083 2755.15154193 949.842467083 2755.15154193 975.042433948 2755.15154193 c 128,-1,151
 1000.24240081 2755.15154193 1000.24240081 2755.15154193 1024 2728 c 6,152,-1
 1068 2680 l 5,153,-1
 1096 2724 l 5,154,155
 1124.38662263 2763.15396224 1124.38662263 2763.15396224 1158.59517925 2763.15396224 c 128,-1,156
 1192.80373587 2763.15396224 1192.80373587 2763.15396224 1230.40186794 2723.57698112 c 132,-1,157
 1268 2684 1268 2684 1288 2684 c 132,-1,158
 1308 2684 1308 2684 1308 2689.66817159 c 132,-1,159
 1308 2695.33634318 1308 2695.33634318 1294.89137133 2761.95480915 c 1,160,161
 1294.89137133 2804 1294.89137133 2804 1338.60326927 2804 c 4,162,163
 1360 2804 1360 2804 1387 2793 c 132,-1,164
 1414 2782 1414 2782 1497 2765 c 132,-1,165
 1580 2748 1580 2748 1608 2726 c 132,-1,166
 1636 2704 1636 2704 1681.30249935 2621.27369684 c 132,-1,167
 1726.6049987 2538.54739368 1726.6049987 2538.54739368 1757.76697559 2538.54739368 c 1,168,169
 1757.76697559 2538.54739368 1757.76697559 2538.54739368 1766.97157527 2532.98190247 c 1,170,171
 1766.97157527 2525.55452044 1766.97157527 2525.55452044 1751.48578764 2500.77726022 c 132,-1,172
 1736 2476 1736 2476 1708 2464 c 132,-1,173
 1680 2452 1680 2452 1628 2368 c 132,-1,174
 1576 2284 1576 2284 1576 2211.13507169 c 132,-1,175
 1576 2138.27014337 1576 2138.27014337 1540 2138.27014337 c 128,-1,176
 1504 2138.27014337 1504 2138.27014337 1504 2173.1483773 c 132,-1,177
 1504 2208 1504 2208 1480.89110467 2221.86533719 c 132,-1,178
 1457.78220935 2235.73067439 1457.78220935 2235.73067439 1448.14241254 2235.73067439 c 0,179,180
 1423.85357562 2235.73067439 1423.85357562 2235.73067439 1423.85357562 2187.10653063 c 1,181,182
 1423.85357562 2187.10653063 1423.85357562 2187.10653063 1430.28015863 2126.80888334 c 128,-1,183
 1436.70674164 2066.51123606 1436.70674164 2066.51123606 1432.35337082 2059.25561803 c 132,-1,184
 1428 2052 1428 2052 1340 2052 c 132,-1,185
 1252 2052 1252 2052 1252 2014.02159154 c 4,186,187
 1252 1992 1252 1992 1302 1992 c 132,-1,188
 1352 1992 1352 1992 1400.32965976 1940.09036545 c 132,-1,189
 1448.65931952 1888.18073089 1448.65931952 1888.18073089 1490.28232574 1888.18073089 c 1,190,191
 1490.28232574 1888.18073089 1490.28232574 1888.18073089 1536.08095399 1891.40760363 c 128,-1,192
 1581.87958223 1894.63447637 1581.87958223 1894.63447637 1628.93979112 1849.31723818 c 132,-1,193
 1676 1804 1676 1804 1676 1782 c 132,-1,194
 1676 1760 1676 1760 1722 1744 c 132,-1,195
 1768 1728 1768 1728 1786 1702 c 132,-1,196
 1804 1676 1804 1676 1844 1544 c 132,-1,197
 1884 1412 1884 1412 1898 1368 c 132,-1,198
 1912 1324 1912 1324 1912 1298 c 132,-1,199
 1912 1272 1912 1272 1890 1246 c 132,-1,200
 1868 1220 1868 1220 1840 1078 c 132,-1,201
 1812 936 1812 936 1760.4156687 933.420783435 c 4,202,203
 1739.77945301 932.38897265 1739.77945301 932.38897265 1739.77945301 905.270671648 c 1,204,205
 1739.77945301 905.270671648 1739.77945301 905.270671648 1748 822.764467672 c 5,206,207
 1748 720 1748 720 1697.4455582 720 c 4,208,209
 1660 720 1660 720 1616.48628816 661.981717541 c 132,-1,210
 1572.97257631 603.963435082 1572.97257631 603.963435082 1531.04815269 603.963435082 c 1,211,212
 1531.04815269 603.963435082 1531.04815269 603.963435082 1498.43075305 608.685808512 c 1,213,214
 1436.28083234 608.685808512 1436.28083234 608.685808512 1390.57581872 484.10931121 c 132,-1,215
 1344.8708051 359.532813908 1344.8708051 359.532813908 1312.13283556 359.532813908 c 0,216,217
 1299.46878953 359.532813908 1299.46878953 359.532813908 1285.73439476 377.766406954 c 132,-1,218
 1272 396 1272 396 1249.7393981 396 c 4,219,220
 1212 396 1212 396 1198 328 c 132,-1,221
 1184 260 1184 260 1122.53301595 260 c 4,222,223
 1080 260 1080 260 1080 223.489493696 c 4,224,225
 1080 164 1080 164 967.079962567 164 c 5,226,227
 967.079962567 164 967.079962567 164 881.384508114 174.377148706 c 1,228,229
 818.459291867 174.377148706 818.459291867 174.377148706 736 96 c 5,230,231
 708 96 708 96 695.448070203 135.967986986 c 132,-1,232
 682.896140405 175.935973973 682.896140405 175.935973973 664.571709734 175.935973973 c 128,-1,233
 646.247279063 175.935973973 646.247279063 175.935973973 608.420655439 110.540794148 c 132,-1,234
 570.594031815 45.1456143235 570.594031815 45.1456143235 530.437226157 45.1456143235 c 128,-1,39
 490.280420499 45.1456143235 490.280420499 45.1456143235 463.92370955 58.8730679428 c 132,-1,40
1207.93396845 2425.88205713 m 128,-1,236
 1207.93396845 2411.83014581 1207.93396845 2411.83014581 1225.79713004 2411.83014581 c 128,-1,237
 1243.66029163 2411.83014581 1243.66029163 2411.83014581 1267.83014581 2423.91507291 c 132,-1,238
 1292 2436 1292 2436 1292 2454 c 132,-1,239
 1292 2472 1292 2472 1266 2472 c 132,-1,240
 1240 2472 1240 2472 1223.96698423 2455.96698423 c 132,-1,235
 1207.93396845 2439.93396845 1207.93396845 2439.93396845 1207.93396845 2425.88205713 c 128,-1,236
1252 1936 m 5,241,242
 1252 1944 1252 1944 1230 1944 c 132,-1,243
 1208 1944 1208 1944 1208 1926.68723446 c 132,-1,244
 1208 1909.37446891 1208 1909.37446891 1221.12482297 1909.37446891 c 128,-1,245
 1234.24964594 1909.37446891 1234.24964594 1909.37446891 1252 1936 c 5,241,242
952 2866 m 132,-1,247
 952 2876 952 2876 964 2876 c 132,-1,248
 976 2876 976 2876 976 2866 c 132,-1,249
 976 2856 976 2856 964 2856 c 132,-1,246
 952 2856 952 2856 952 2866 c 132,-1,247
EndSplineSet
EndChar

StartChar: four
Encoding: 52 52 23
Width: 2000
GlyphClass: 1
Flags: W
LayerCount: 2
Fore
SplineSet
760.988793077 1736.20595146 m 4,0,1
 771.645517267 1736.20595146 771.645517267 1736.20595146 797.559989382 1725.88815238 c 132,-1,2
 823.474461498 1715.57035329 823.474461498 1715.57035329 823.474461498 1696.6545372 c 132,-1,3
 823.474461498 1677.7387211 823.474461498 1677.7387211 809.49587333 1658.73657781 c 132,-1,4
 795.517285162 1639.73443452 795.517285162 1639.73443452 781.022683258 1639.73443452 c 132,-1,5
 766.528081354 1639.73443452 766.528081354 1639.73443452 751.764040677 1659.86721726 c 132,-1,6
 737 1680 737 1680 737 1708.10297573 c 132,-1,7
 737 1736.20595146 737 1736.20595146 760.988793077 1736.20595146 c 4,0,1
811.075403755 1924 m 4,8,9
 785 1924 785 1924 785 1996.89314105 c 132,-1,10
 785 2069.7862821 785 2069.7862821 816.118226153 2069.7862821 c 132,-1,11
 847.236452306 2069.7862821 847.236452306 2069.7862821 847.236452306 1996.89314105 c 132,-1,12
 847.236452306 1924 847.236452306 1924 811.075403755 1924 c 4,8,9
635 1936 m 132,-1,14
 625 1904 625 1904 625 1893 c 132,-1,15
 625 1882 625 1882 667.618771038 1755.78634587 c 5,16,17
 667.618771038 1720 667.618771038 1720 620 1720 c 5,18,-1
 569 1728 l 5,19,20
 533 1728 533 1728 519 1638 c 132,-1,21
 505 1548 505 1548 497.497909229 1522.49289137 c 132,-1,22
 489.995818457 1496.98578275 489.995818457 1496.98578275 489.995818457 1483.9321835 c 132,-1,23
 489.995818457 1470.87858425 489.995818457 1470.87858425 497.757707965 1470.87858425 c 132,-1,24
 505.519597473 1470.87858425 505.519597473 1470.87858425 556.610869927 1474.83156924 c 132,-1,25
 607.702142381 1478.78455423 607.702142381 1478.78455423 620.900097216 1460.63736633 c 132,-1,26
 634.098052051 1442.49017843 634.098052051 1442.49017843 672.319795539 1442.49017843 c 132,-1,27
 710.541539028 1442.49017843 710.541539028 1442.49017843 735.770769514 1483.24508922 c 132,-1,28
 761 1524 761 1524 777 1524 c 132,-1,29
 793 1524 793 1524 831.182247366 1501.37348304 c 132,-1,30
 869.364494732 1478.74696608 869.364494732 1478.74696608 892.798202338 1478.74696608 c 132,-1,31
 916.231909944 1478.74696608 916.231909944 1478.74696608 926.132114368 1490.93183306 c 132,-1,32
 936.032318792 1503.11670005 936.032318792 1503.11670005 955.411794152 1503.11670005 c 132,-1,33
 974.791269512 1503.11670005 974.791269512 1503.11670005 1006.43176929 1472.79455444 c 132,-1,34
 1038.07226906 1442.47240882 1038.07226906 1442.47240882 1043.53613453 1442.47240882 c 132,-1,35
 1049 1442.47240882 1049 1442.47240882 1049 1445.05983279 c 132,-1,36
 1049 1447.64725676 1049 1447.64725676 1045.67438639 1482.90887515 c 132,-1,37
 1042.34877277 1518.17049354 1042.34877277 1518.17049354 1078.74199751 1545.89866477 c 132,-1,38
 1115.13522224 1573.62683599 1115.13522224 1573.62683599 1115.13522224 1590.92683279 c 132,-1,39
 1115.13522224 1608.22682958 1115.13522224 1608.22682958 1086.06761112 1674.11341479 c 132,-1,40
 1057 1740 1057 1740 1025 1740 c 6,41,-1
 1005 1740 l 6,42,43
 999.823498988 1739.60180761 999.823498988 1739.60180761 995.162308798 1739.60180761 c 4,44,45
 953 1739.60180761 953 1739.60180761 953 1772.18158202 c 4,46,47
 953 1792.67061491 953 1792.67061491 961.337602053 1792.67061491 c 132,-1,48
 969.675204106 1792.67061491 969.675204106 1792.67061491 1025.52399909 1778.57476512 c 5,49,50
 1085 1778.57476512 1085 1778.57476512 1085 1912 c 6,51,-1
 1085 1976 l 5,52,-1
 1085 2032 l 6,53,54
 1085 2240 1085 2240 1158.9495703 2240 c 5,55,56
 1158.9495703 2240 1158.9495703 2240 1355.71360829 2261.69364761 c 5,57,58
 1406.28447008 2261.69364761 1406.28447008 2261.69364761 1425.64223504 2240.8468238 c 132,-1,59
 1445 2220 1445 2220 1455 2024 c 132,-1,60
 1465 1828 1465 1828 1479.96254583 1789.9135197 c 132,-1,61
 1494.92509166 1751.82703941 1494.92509166 1751.82703941 1494.92509166 1726.46209764 c 132,-1,62
 1494.92509166 1701.09715587 1494.92509166 1701.09715587 1467.17578616 1671.71553829 c 132,-1,63
 1439.42648067 1642.33392071 1439.42648067 1642.33392071 1439.42648067 1604.26834015 c 4,64,65
 1439.42648067 1547.25857535 1439.42648067 1547.25857535 1510.21324034 1525.62928767 c 132,-1,66
 1581 1504 1581 1504 1581 1445.46632123 c 4,67,68
 1581 1422.87803776 1581 1422.87803776 1590.50477957 1422.87803776 c 132,-1,69
 1600.00955913 1422.87803776 1600.00955913 1422.87803776 1625.9737 1447.29669405 c 132,-1,70
 1651.93784087 1471.71535034 1651.93784087 1471.71535034 1677.17244613 1471.71535034 c 132,-1,71
 1702.40705139 1471.71535034 1702.40705139 1471.71535034 1824.21746578 1460 c 5,72,73
 1945 1460 1945 1460 1945 1419.04313247 c 4,74,75
 1945 1404 1945 1404 1927.18762001 1396.36612286 c 132,-1,76
 1909.37524003 1388.73224573 1909.37524003 1388.73224573 1909.37524003 1366.98724167 c 132,-1,77
 1909.37524003 1345.2422376 1909.37524003 1345.2422376 1934.2157433 1302.86726143 c 132,-1,78
 1959.05624657 1260.49228526 1959.05624657 1260.49228526 1959.05624657 1224.24614263 c 132,-1,79
 1959.05624657 1188 1959.05624657 1188 1932.02812328 1188 c 132,-1,80
 1905 1188 1905 1188 1852.5363482 1138.81532644 c 132,-1,81
 1800.0726964 1089.63065288 1800.0726964 1089.63065288 1742.90569533 1089.63065288 c 132,-1,82
 1685.73869425 1089.63065288 1685.73869425 1089.63065288 1646.31361114 1109.34319443 c 132,-1,83
 1606.88852803 1129.05573599 1606.88852803 1129.05573599 1584.51259725 1129.05573599 c 4,84,85
 1537 1129.05573599 1537 1129.05573599 1537 1061.72649661 c 132,-1,86
 1537 994.397257229 1537 994.397257229 1505.45598781 994.397257229 c 5,87,88
 1505.45598781 994.397257229 1505.45598781 994.397257229 1435.79282862 1019.87419765 c 5,89,90
 1422.93709882 1019.87419765 1422.93709882 1019.87419765 1419.96854941 1003.93709883 c 132,-1,91
 1417 988 1417 988 1431 972 c 132,-1,92
 1445 956 1445 956 1463 832 c 132,-1,93
 1481 708 1481 708 1498.25013775 689.181667902 c 132,-1,94
 1515.50027551 670.363335804 1515.50027551 670.363335804 1515.50027551 659.006846986 c 132,-1,95
 1515.50027551 647.650358167 1515.50027551 647.650358167 1500.25013775 627.825179083 c 132,-1,96
 1485 608 1485 608 1471 538 c 132,-1,97
 1457 468 1457 468 1389 400 c 132,-1,98
 1321 332 1321 332 1215.98449622 332 c 4,99,100
 1041 332 1041 332 1041 538 c 5,101,-1
 1053 636 l 6,102,103
 1061.03504219 701.619511231 1061.03504219 701.619511231 1061.03504219 778.152474309 c 132,-1,104
 1061.03504219 854.685437386 1061.03504219 854.685437386 1076.42398735 1042.13112459 c 5,105,106
 1076.42398735 1147.16350994 1076.42398735 1147.16350994 1032.90924976 1147.16350994 c 4,107,108
 1016.48523689 1147.16350994 1016.48523689 1147.16350994 1003.94998718 1126.79372916 c 132,-1,109
 991.414737465 1106.42394838 991.414737465 1106.42394838 974.546200731 1106.42394838 c 132,-1,110
 957.677663996 1106.42394838 957.677663996 1106.42394838 888.647176823 1115.78346392 c 5,111,112
 829.19346248 1115.78346392 829.19346248 1115.78346392 804.938657673 1054.43307529 c 4,113,114
 792.973880893 1024.16922814 792.973880893 1024.16922814 780.91924919 1024.16922814 c 132,-1,115
 768.864617487 1024.16922814 768.864617487 1024.16922814 758.111251946 1037.61093507 c 4,116,117
 721 1084 721 1084 613 1084 c 132,-1,118
 505 1084 505 1084 445 1048 c 6,119,-1
 377 1008 l 5,120,-1
 321 1068 l 5,121,122
 285.787973347 1103.21202665 285.787973347 1103.21202665 254.954677512 1103.21202665 c 132,-1,123
 224.121381678 1103.21202665 224.121381678 1103.21202665 198.950718874 1084.24168435 c 132,-1,124
 173.780056069 1065.27134205 173.780056069 1065.27134205 152.23021571 1065.27134205 c 4,125,126
 106.395502392 1065.27134205 106.395502392 1065.27134205 73.697751196 1140.63567102 c 132,-1,127
 41 1216 41 1216 41 1310 c 132,-1,128
 41 1404 41 1404 89.8866951385 1458.31855016 c 132,-1,129
 138.773390277 1512.63710031 138.773390277 1512.63710031 138.773390277 1528.82501162 c 132,-1,130
 138.773390277 1545.01292293 138.773390277 1545.01292293 135.900330541 1579.01214289 c 132,-1,131
 133.027270805 1613.01136284 133.027270805 1613.01136284 175.013635403 1630.50568142 c 132,-1,132
 217 1648 217 1648 221.121105277 1657.61591232 c 132,-1,133
 225.242210554 1667.23182463 225.242210554 1667.23182463 225.242210554 1674.02262682 c 132,-1,134
 225.242210554 1680.81342902 225.242210554 1680.81342902 217 1758.14752849 c 5,135,136
 217 1784 217 1784 263 1868 c 132,-1,137
 309 1952 309 1952 331.731636874 1977.97901357 c 132,-1,138
 354.463273747 2003.95802714 354.463273747 2003.95802714 354.463273747 2022.95579559 c 132,-1,139
 354.463273747 2041.95356405 354.463273747 2041.95356405 349.925784026 2099.44023993 c 132,-1,140
 345.388294306 2156.9269158 345.388294306 2156.9269158 379.301863715 2192.31498822 c 132,-1,141
 413.215433124 2227.70306065 413.215433124 2227.70306065 413.215433124 2251.7098536 c 132,-1,142
 413.215433124 2275.71664655 413.215433124 2275.71664655 409.225019674 2325.7769465 c 132,-1,143
 405.234606224 2375.83724645 405.234606224 2375.83724645 423.216179697 2401.68575831 c 132,-1,144
 441.19775317 2427.53427018 441.19775317 2427.53427018 441.19775317 2467.34503724 c 132,-1,145
 441.19775317 2507.15580431 441.19775317 2507.15580431 427.098876585 2543.57790215 c 132,-1,146
 413 2580 413 2580 413 2586 c 132,-1,147
 413 2592 413 2592 437.766989543 2644.28586682 c 132,-1,148
 462.533979086 2696.57173363 462.533979086 2696.57173363 462.533979086 2728.71062466 c 132,-1,149
 462.533979086 2760.84951569 462.533979086 2760.84951569 443.30114612 2775.27414041 c 132,-1,150
 424.068313153 2789.69876513 424.068313153 2789.69876513 424.068313153 2822.32944506 c 132,-1,151
 424.068313153 2854.96012499 424.068313153 2854.96012499 429.395560372 2854.96012499 c 132,-1,152
 434.722807592 2854.96012499 434.722807592 2854.96012499 443.908509056 2854.86966767 c 132,-1,153
 453.09421052 2854.77921035 453.09421052 2854.77921035 457.04710526 2971.38960517 c 132,-1,154
 461 3088 461 3088 510.852891844 3088 c 4,155,156
 537 3088 537 3088 605.075324341 3047.1548054 c 4,157,158
 758.29747081 2955.22151751 758.29747081 2955.22151751 758.29747081 2875.74504933 c 5,159,160
 758.29747081 2875.74504933 758.29747081 2875.74504933 736.773134312 2784.22567733 c 5,161,162
 736.773134312 2784.22567733 736.773134312 2784.22567733 759.966374923 2659.45213848 c 5,163,164
 759.966374923 2628.44956238 759.966374923 2628.44956238 745.510834065 2606.76625109 c 132,-1,165
 731.055293207 2585.08293981 731.055293207 2585.08293981 731.055293207 2571.40425211 c 132,-1,166
 731.055293207 2557.7255644 731.055293207 2557.7255644 757 2448.6660037 c 5,167,168
 757 2448.6660037 757 2448.6660037 726.247767485 2310.60057711 c 5,169,170
 726.247767485 2310.60057711 726.247767485 2310.60057711 744.585063399 2236.22485631 c 5,171,172
 744.585063399 2202.98888115 744.585063399 2202.98888115 702.792531699 2149.49444058 c 132,-1,173
 661 2096 661 2096 653 2032 c 132,-1,13
 645 1968 645 1968 635 1936 c 132,-1,14
717 2432 m 132,-1,175
 717 2452 717 2452 697 2452 c 132,-1,176
 677 2452 677 2452 677 2432 c 132,-1,177
 677 2412 677 2412 697 2412 c 132,-1,174
 717 2412 717 2412 717 2432 c 132,-1,175
653 3098 m 132,-1,179
 653 3108 653 3108 665 3108 c 132,-1,180
 677 3108 677 3108 677 3098 c 132,-1,181
 677 3088 677 3088 665 3088 c 132,-1,178
 653 3088 653 3088 653 3098 c 132,-1,179
EndSplineSet
EndChar

